<?xml version="1.0" standalone="no"?>
<!DOCTYPE svg PUBLIC "-//W3C//DTD SVG 1.1//EN"
  "http://www.w3.org/Graphics/SVG/1.1/DTD/svg11.dtd">
<!-- Created with matplotlib (http://matplotlib.sourceforge.net/) -->
<svg width="720pt" height="504pt" viewBox="0 0 720 504"
   xmlns="http://www.w3.org/2000/svg"
   xmlns:xlink="http://www.w3.org/1999/xlink"
   version="1.1"
   id="svg1">
<filter id="colorAdd"><feComposite in="SourceGraphic" in2="BackgroundImage" operator="arithmetic" k2="1" k3="1"/></filter>
<g id="figure1">
<g id="patch1">
<path style="fill: #ffffff; stroke: #ffffff; stroke-width: 1.000000; stroke-linejoin: round; stroke-linecap: square;  opacity: 1.000000"  d="M0.000000 504.000000L720.000000 504.000000L720.000000 0.000000
L0.000000 0.000000z"/>
</g>
<g id="axes1">
<g id="patch2">
<path style="fill: #ffffff; opacity: 1.000000"  d="M90.000000 453.600000L648.000000 453.600000L648.000000 50.400000
L90.000000 50.400000z"/>
</g>
<g id="line2d1">
<defs>
  <clipPath id="p6d54bdcfc682fd2a5eb67e424bad820e">
<rect x="90.000000" y="50.400000" width="558.000000" height="403.200000"/>
  </clipPath>
</defs><path style="fill: none; stroke: #ff0000; stroke-width: 3.000000; stroke-linejoin: round; stroke-linecap: square;  opacity: 1.000000" clip-path="url(#p6d54bdcfc682fd2a5eb67e424bad820e)" d="M90.000000 453.591040L120.889792 453.528320L121.173184 453.367040
L124.857288 453.152000L125.424073 453.026560L128.824784 452.721920
L129.391569 452.614400L132.792280 452.444160L133.359066 452.390400
L148.095480 451.548160L148.662265 451.539200L148.945658 451.288320
L150.362621 451.279360L150.929406 451.180800L154.330117 451.055360
L155.747080 451.037440L156.597257 450.983680L156.880650 451.153920
L168.783139 450.670080L173.034027 450.293760L176.434738 450.069760
L178.418487 449.971200L179.835449 449.827840L180.969020 449.684480
L182.102590 449.594880L182.669375 449.523200L184.653123 449.308160
L185.503301 449.263360L187.203657 449.209600L188.337227 449.084160
L188.904012 448.931840L189.754190 448.922880L200.239716 448.215040
L200.806501 448.000000L201.373286 447.892480L202.223464 447.776000
L203.073641 447.560960L205.340782 447.229440L207.041138 447.354880
L209.024886 447.453440L209.591671 447.498240L211.008634 447.292160
L212.425597 447.112960L213.275775 447.077120L214.125952 447.005440
L215.542915 446.880000L216.109700 446.888960L218.093448 446.736640
L218.376841 446.647040L218.660234 446.691840L219.227019 446.584320
L220.643982 446.423040L221.210767 445.939200L222.060945 445.894400
L222.344337 445.760000L222.911122 445.670400L223.761300 445.356800
L224.611478 445.177600L225.461656 444.962560L226.595226 444.855040
L229.145759 444.478720L229.712544 444.281600L229.995937 444.147200
L230.279330 443.708160L231.979685 443.018240L232.263078 442.686720
L233.113255 442.632960L234.246826 442.821120L235.097004 442.973440
L235.663789 443.080960L235.947181 443.018240L236.230574 443.080960
L236.513966 443.000320L237.080752 443.063040L237.647537 443.027200
L243.882174 442.758400L245.299137 442.534400L249.833418 442.068480
L250.116811 441.710080L253.234129 441.315840L253.800914 441.351680
L254.084307 441.163520L260.885729 440.652800L262.869477 440.222720
L263.436262 440.240640L265.703403 439.989760L266.553580 439.962880
L267.403758 440.124160L269.104114 440.097280L270.804469 440.213760
L271.938040 440.061440L272.788217 440.115200L273.355003 439.989760
L274.488573 440.061440L275.338751 439.855360L275.622143 439.855360
L276.188928 439.604480L277.039106 439.577600L277.889284 439.523840
L279.306247 439.488000L282.140173 439.022080L283.273743 439.066880
L283.840528 438.896640L284.123921 438.609920L284.407313 438.502400
L284.974099 438.556160L285.540884 438.484480L285.824276 438.260480
L286.674454 438.197760L287.524632 438.152960L288.091417 438.009600
L289.224987 437.955840L289.508380 437.955840L289.791772 437.794560
L291.775521 437.552640L295.176232 437.131520L295.459624 437.239040
L297.443372 436.988160L298.010157 436.746240L307.645505 435.312640
L308.212291 435.321600L308.779076 435.249920L309.062468 435.267840
L309.345861 435.160320L309.629253 435.348480L309.912646 435.249920
L310.196039 435.303680L311.329609 435.070720L313.313357 434.882560
L313.596750 434.954240L313.880142 434.828800L314.730320 434.882560
L316.147283 434.586880L316.997461 434.604800L318.981209 434.488320
L320.114779 434.873600L320.681564 434.837760L321.248349 434.864640
L321.531742 434.792960L321.815135 434.855680L322.665312 434.739200
L323.232098 434.792960L323.515490 434.999040L324.082275 434.784000
L326.916201 434.004480L327.199594 434.022400L327.482986 433.744640
L328.049771 433.762560L328.616557 433.726720L328.899949 433.547520
L329.183342 433.529600L329.466734 433.726720L330.033520 433.699840
L330.600305 433.457920L330.883697 433.529600L331.733875 433.189120
L334.284408 431.970560L334.567801 432.131840L335.417979 431.522560
L338.251905 430.536960L338.535297 430.572800L339.102082 430.393600
L339.952260 430.133760L341.085830 429.273600L341.369223 428.762880
L341.936008 428.547840L343.069578 428.180480L343.352971 428.440320
L345.053327 428.135680L345.336719 427.768320L345.620112 427.848960
L349.304215 427.024640L349.871001 427.096320L350.437786 427.051520
L351.004571 426.845440L351.287963 426.863360L351.571356 426.693120
L352.704926 426.585600L354.121889 426.254080L355.255460 425.904640
L355.822245 425.501440L356.672423 425.608960L356.955815 425.465600
L358.939563 425.053440L359.222956 424.757760L359.506348 424.686080
L360.356526 424.712960L362.056882 424.471040L362.907059 424.291840
L363.473845 424.273920L364.040630 423.987200L364.890808 424.040960
L365.174200 424.264960L366.024378 423.942400L366.874556 423.861760
L367.157948 423.333120L367.441341 423.360000L368.291519 423.028480
L370.842052 422.186240L371.125444 422.284800L371.408837 422.132480
L371.692230 422.168320L372.825800 421.639680L373.392585 421.532160
L374.242763 421.594880L374.526155 421.800960L375.376333 421.783040
L375.943118 421.971200L376.509904 422.078720L377.076689 422.150400
L377.643474 422.078720L377.926866 422.222080L378.210259 422.240000
L378.777044 421.971200L379.060437 421.890560L380.194007 421.102080
L383.311326 419.793920L383.594718 419.722240L383.878111 419.453440
L384.444896 419.399680L384.728288 419.184640L385.295074 418.629120
L388.695785 416.855040L388.979177 417.320960L389.829355 417.034240
L390.679533 416.648960L390.962925 417.204480L391.246318 416.657920
L391.529711 416.469760L392.096496 415.824640L392.663281 415.394560
L392.946673 414.803200L393.230066 414.543360L393.796851 414.319360
L394.647029 414.023680L394.930422 414.005760L395.213814 413.808640
L395.497207 413.450240L395.780599 412.876800L396.630777 410.108160
L397.480955 406.273280L398.897918 401.614080L400.598273 397.483520
L400.881666 397.268480L401.165058 396.695040L402.582021 394.992640
L403.148807 394.213120L403.432199 393.944320L403.998984 393.012480
L404.282377 392.582400L405.132555 388.720640L405.699340 384.061440
L406.549518 376.875520L407.399695 372.099840L407.683088 370.558720
L407.966480 369.707520L408.533266 367.324160L408.816658 366.481920
L410.800406 357.423360L411.933977 354.547200L412.784154 352.764160
L413.067547 352.235520L413.350940 351.429120L413.634332 351.285760
L414.201117 350.470400L414.484510 350.300160L414.767902 349.816320
L415.051295 349.619200L417.035043 346.868480L418.735399 345.515520
L419.302184 345.004800L420.719147 344.261120L421.002539 343.768320
L421.285932 343.759360L421.852717 343.365120L422.136110 343.024640
L423.269680 342.522880L423.836465 342.298880L424.119858 342.657280
L424.403250 342.424320L424.686643 342.406400L425.253428 341.832960
L425.820213 341.393920L426.103606 340.838400L426.386998 340.587520
L426.953784 340.471040L427.520569 340.005120L428.087354 340.211200
L428.370747 340.076800L428.654139 339.790080L428.937532 339.745280
L429.220924 339.933440L429.787709 339.637760L430.071102 339.467520
L430.354495 339.485440L430.637887 339.252480L430.921280 338.679040
L431.204672 338.661120L431.488065 338.526720L432.054850 338.723840
L432.338243 339.171840L432.905028 339.368960L433.471813 338.929920
L433.755206 338.481920L434.321991 338.464000L434.605383 338.679040
L434.888776 338.723840L435.172169 338.526720L435.455561 339.001600
L435.738954 339.028480L436.022346 338.876160L436.305739 338.481920
L437.722702 337.854720L438.289487 337.344000L438.572880 337.137920
L439.139665 336.465920L439.706450 336.295680L439.989843 336.367360
L440.273235 335.820800L440.840020 336.215040L441.123413 336.250880
L441.690198 335.587840L442.256983 335.811840L442.823768 335.292160
L443.390554 336.179200L443.957339 335.713280L444.807517 334.862080
L445.374302 333.500160L445.941087 332.640000L446.224479 332.326400
L446.791265 331.331840L447.074657 331.296000L447.358050 330.892800
L447.641442 330.839040L447.924835 330.632960L448.208228 330.113280
L448.491620 329.960960L448.775013 329.468160L449.058405 328.294400
L449.625190 327.703040L449.908583 327.667200L450.475368 327.156480
L450.758761 327.156480L451.892331 326.036480L452.459116 326.000640
L453.025901 325.624320L453.309294 325.480960L453.876079 325.516800
L454.159472 325.740800L454.442864 325.642240L454.726257 325.767680
L455.009650 325.543680L455.576435 325.400320L456.143220 324.988160
L456.426612 324.656640L457.276790 325.283840L457.560183 325.032960
L457.843575 325.140480L460.110716 322.336000L460.394109 322.264320
L462.094464 320.669440L462.377857 320.678400L462.661249 319.961600
L463.228035 319.379200L463.794820 319.217920L464.078212 319.567360
L464.644997 319.352320L464.928390 319.029760L465.211783 319.002880
L465.495175 319.101440L466.345353 318.769920L467.195531 317.918720
L467.762316 318.133760L468.045708 318.053120L468.329101 317.623040
L468.612494 317.434880L469.179279 317.425920L469.462671 316.968960
L470.029457 316.798720L470.312849 316.422400L471.163027 315.929600
L471.446420 315.589120L471.729812 315.633920L472.013205 315.490560
L472.296597 315.696640L472.863382 315.168000L473.146775 315.141120
L473.713560 314.630400L473.996953 314.549760L474.563738 313.725440
L475.413916 313.644800L475.697308 313.564160L475.980701 313.698560
L476.547486 313.474560L476.830879 313.358080L477.114271 313.116160
L477.397664 313.143040L477.681056 313.053440L477.964449 313.635840
L478.531234 313.877760L479.098019 313.653760L479.381412 313.528320
L479.664804 313.913600L479.948197 313.877760L480.231590 314.056960
L480.798375 314.083840L481.081767 314.316800L481.365160 314.074880
L481.648553 314.137600L481.931945 313.779200L482.215338 313.608960
L482.498730 313.573120L482.782123 313.420800L483.065515 312.963840
L483.348908 312.211200L483.632301 311.037440L484.199086 309.845760
L485.049264 308.716800L485.332656 308.707840L485.899441 308.062720
L486.749619 307.202560L487.033012 307.220480L487.599797 306.978560
L487.883189 306.906880L489.016760 306.279680L490.150330 305.795840
L490.717115 304.855040L491.000508 304.828160L491.283900 304.622080
L491.567293 304.263680L491.850686 304.326400L492.134078 304.684800
L492.700863 304.640000L492.984256 304.317440L493.834434 303.932160
L494.401219 303.985920L495.251397 303.260160L495.534789 303.215360
L496.101574 303.493120L496.384967 303.520000L496.668360 303.815680
L496.951752 303.663360L497.235145 303.896320L497.518537 303.851520
L498.085322 303.448320L498.368715 303.107840L499.218893 302.883840
L499.502285 302.919680L500.069071 303.385600L500.635856 303.009280
L500.919248 303.233280L501.202641 302.785280L501.486034 303.125760
L501.769426 303.206400L502.052819 303.421440L502.336211 303.493120
L502.619604 303.412480L503.186389 303.511040L503.469782 304.523520
L504.036567 304.003840L504.603352 303.663360L504.886745 303.582720
L505.170137 303.735040L506.303707 303.528960L506.587100 303.224320
L508.004063 304.209920L508.854241 303.815680L509.137633 303.358720
L509.421026 302.211840L510.271204 302.176000L510.837989 301.754880
L511.121381 302.041600L511.404774 302.005760L511.688167 301.423360
L512.538344 300.849920L512.821737 300.500480L513.105130 300.410880
L513.388522 300.142080L513.955307 299.057920L514.238700 298.609920
L514.522092 298.457600L514.805485 297.920000L515.372270 297.606400
L515.655663 297.624320L515.939055 297.391360L516.222448 296.755200
L516.505841 296.719360L517.072626 296.047360L518.489589 296.047360
L518.772981 295.957760L519.339766 295.393280L519.623159 295.473920
L519.906552 296.020480L520.189944 295.742720L520.473337 295.742720
L521.040122 295.294720L521.890300 295.034880L522.457085 294.022400
L523.023870 293.843200L523.307263 293.260800L524.440833 292.624640
L525.007618 292.848640L525.857796 292.535040L527.274759 291.352320
L527.841544 291.334400L528.124937 291.576320L528.408329 292.060160
L528.691722 292.275200L529.258507 292.346880L529.541899 292.230400
L530.108685 292.579840L530.392077 292.615680L530.958862 292.938240
L531.525648 293.162240L531.809040 293.323520L532.092433 293.171200
L532.375825 293.493760L532.659218 293.628160L533.792788 294.801920
L534.642966 294.246400L535.493144 295.223040L535.776536 295.285760
L536.059929 295.706880L536.343321 295.912960L536.626714 295.796480
L537.193499 296.343040L537.476892 296.441600L537.760284 296.262400
L538.043677 296.352000L538.327070 296.163840L538.610462 296.298240
L538.893855 295.939840L539.177247 295.939840L539.460640 296.128000
L539.744033 296.450560L540.027425 296.092160L540.594210 296.360960
L540.877603 296.495360L542.011173 295.671040L542.861351 294.855680
L543.428136 294.183680L543.711529 294.156800L544.278314 293.923840
L544.845099 293.986560L545.128492 293.959680L545.411884 293.807360
L545.978669 293.198080L547.112240 290.984960L547.679025 290.088960
L547.962417 289.802240L548.245810 290.133760L549.662773 286.630400
L549.946166 286.379520L550.229558 285.841920L550.512951 285.662720
L551.929914 283.413760L553.063484 282.714880L553.346877 282.284800
L553.630269 282.392320L553.913662 282.275840L554.197054 281.128960
L554.480447 280.878080L554.763840 280.860160L555.047232 280.707840
L555.897410 279.336960L556.180802 279.175680L556.464195 279.157760
L556.747588 278.718720L557.881158 278.261760L558.164551 278.037760
L558.447943 277.464320L559.014728 276.962560L559.581513 276.684800
L559.864906 276.218880L560.148299 276.120320L560.715084 275.627520
L560.998476 274.785280L562.132047 274.023680L562.415439 273.620480
L562.698832 273.539840L563.265617 273.047040L563.549010 272.814080
L563.832402 272.312320L564.115795 272.285440L564.399187 271.837440
L564.682580 271.882240L565.249365 271.129600L565.532758 270.977280
L565.816150 270.690560L566.666328 269.086720L567.233113 268.665600
L567.516506 268.773120L567.799898 267.930880L568.650076 267.330560
L568.933469 266.936320L569.500254 266.667520L569.783647 266.586880
L570.917217 265.260800L571.767395 264.759040L572.050787 264.445440
L572.334180 264.355840L572.617572 263.952640L573.184358 262.868480
L573.467750 262.644480L574.034535 261.623040L574.317928 261.381120
L576.018283 258.092800L576.585069 257.653760L576.868461 257.384960
L577.435246 256.390400L578.002031 255.691520L578.285424 255.619840
L579.985780 253.827840L580.269172 253.200640L580.552565 252.851200
L580.835957 253.066240L581.402743 253.774080L582.536313 253.379840
L583.386491 254.240000L583.669883 254.177280L583.953276 254.374400
L584.236668 254.741760L584.520061 254.634240L584.803454 254.947840
L585.370239 254.177280L586.220416 252.358400L587.353987 247.278080
L587.920772 246.355200L589.337735 242.511360L589.904520 238.649600
L590.187913 237.664000L590.471305 237.350400L591.038090 235.970560
L591.604876 234.698240L591.888268 233.918720L592.455053 233.004800
L592.738446 232.458240L593.021838 232.261120L593.305231 231.436800
L593.872016 225.442560L595.005587 208.983040L595.288979 204.655360
L596.139157 197.299200L596.989335 187.048960L597.556120 179.576320
L599.256475 163.466240L599.823261 170.786560L600.106653 169.120000
L600.390046 168.582400L600.956831 166.324480L601.240223 165.061120
L601.807009 159.953920L602.373794 157.427200L602.940579 155.169280
L604.074149 148.807680L606.624683 148.807680L606.908075 135.511040
L607.191468 134.821120L607.758253 132.849920L608.608431 130.860800
L609.175216 131.075840L609.458608 130.403840L610.308786 127.258880
L611.725749 123.459840L613.142712 116.910080L614.559675 111.632640
L615.693245 108.254720L616.260030 107.555840L616.826816 106.086400
L617.393601 104.554240L617.960386 102.188800L618.527171 99.223040
L618.810564 98.792960L619.377349 96.956160L619.660741 96.212480
L622.211275 86.365440L622.494667 85.666560L623.061453 84.896000
L623.911630 82.485760L624.761808 81.518080L625.328593 80.281600
L626.178771 78.265600L626.745556 78.014720L627.879126 75.953920
L628.162519 75.828480L628.445912 75.174400L628.729304 74.941440
L629.012697 75.084800L630.146267 72.172800L630.996445 69.995520
L631.279837 69.027840L631.563230 69.018880L631.846623 68.597760
L632.413408 68.158720L632.696800 67.639040L633.546978 67.200000
L634.113763 65.775360L634.680549 64.323840L634.963941 66.196480
L635.247334 65.963520L635.814119 64.753920L636.380904 63.911680
L636.664297 63.857920L637.231082 63.203840L637.514474 62.585600
L637.797867 62.648320L638.081260 62.451200L638.364652 62.406400
L638.648045 62.137600L639.214830 63.257600L639.781615 63.804160
L640.065008 64.377600L640.631793 64.753920L640.915185 61.788160
L641.481971 67.486720L642.048756 67.379200L642.332148 66.805760
L642.615541 67.182080L642.898933 66.572800L643.465719 64.816640
L644.032504 64.341760L644.315896 63.499520L644.599289 63.902720
L644.882682 63.974400L645.166074 64.843520L645.732859 64.046080
L646.016252 63.768320L646.299644 63.159040L646.866430 62.908160
L647.433215 56.474880L647.716607 56.152320L648.000000 56.277760
L648.000000 56.277760"/>
</g>
<g id="line2d2">
<path style="fill: none; stroke: #ff0000; stroke-width: 2.000000; stroke-linejoin: round; stroke-linecap: butt; stroke-dasharray: 6.000000,6.000000; stroke-dashoffset: 0.000000; opacity: 1.000000" clip-path="url(#p6d54bdcfc682fd2a5eb67e424bad820e)" d="M90.000000 450.589440L92.833926 450.571520L103.319451 450.464000
L107.570340 450.428160L110.120874 450.401280L119.189436 450.455040
L119.472829 450.284800L123.440325 450.356480L124.007110 450.338560
L124.857288 450.383360L125.140681 450.311680L125.990858 450.410240
L127.974606 450.508800L135.059421 450.410240L137.609954 450.275840
L138.743525 450.266880L139.877095 450.338560L141.010665 450.231040
L144.411376 450.123520L145.544947 450.051840L156.597257 449.953280
L156.880650 450.168320L162.548502 449.917440L163.682072 449.890560
L188.337227 449.066240L188.904012 448.976640L192.304723 448.851200
L192.871508 448.851200L201.089893 448.483840L205.057390 448.125440
L205.624175 448.152320L208.174708 448.277760L208.458101 448.448000
L218.660234 448.340480L219.510411 448.313600L220.360589 448.304640
L220.643982 448.224000L221.210767 447.758080L222.627730 447.740160
L223.477908 447.507200L223.761300 447.731200L224.894870 447.784960
L230.562722 448.241920L231.412900 448.286720L233.396648 448.259840
L237.364144 448.107520L242.465211 448.026880L243.315389 447.928320
L244.448959 447.784960L246.149314 447.605760L248.416455 447.552000
L249.266633 447.552000L256.068055 447.238400L257.201625 447.238400
L260.318944 447.229440L262.302692 447.005440L266.553580 446.736640
L267.403758 446.969600L269.387506 446.924800L270.804469 447.005440
L271.938040 446.880000L273.071610 446.862080L273.921788 446.880000
L274.488573 447.005440L278.456069 446.700800L280.439817 446.799360
L281.006602 446.709760L283.840528 446.512640L284.407313 446.216960
L285.257491 446.243840L286.391061 446.181120L287.808024 446.208000
L288.658202 446.154240L289.508380 446.109440L290.075165 445.966080
L291.775521 445.984000L295.459624 445.992960L296.026409 446.136320
L298.860335 445.795840L299.427120 445.768960L301.694261 445.589760
L302.544439 445.616640L305.378365 445.634560L307.078720 445.518080
L307.362113 445.571840L307.928898 445.527040L309.345861 445.482240
L309.629253 445.589760L310.196039 445.553920L311.046216 445.464320
L313.313357 445.500160L315.580498 445.616640L316.147283 445.589760
L320.964957 445.992960L322.948705 445.831680L325.215846 445.733120
L325.499238 445.536000L326.066023 445.455360L326.916201 445.347840
L328.616557 445.410560L332.300660 445.303040L334.284408 445.079040
L334.851193 445.096960L335.984764 445.061120L337.118334 445.105920
L337.401727 445.025280L337.968512 445.034240L339.385475 444.890880
L339.668867 444.810240L339.952260 444.855040L341.369223 444.595200
L343.636364 444.541440L347.320467 444.550400L349.587608 444.442880
L351.287963 444.389120L351.854749 444.335360L352.988319 444.407040
L353.555104 444.362240L354.405282 444.335360L355.538852 444.236800
L356.105637 444.218880L356.955815 444.218880L358.939563 444.021760
L360.073134 443.905280L361.206704 443.914240L363.757237 443.923200
L364.324022 443.887360L364.890808 443.905280L365.740985 443.582720
L367.441341 443.699200L369.708481 443.340800L370.275267 443.233280
L372.259015 443.313920L372.825800 443.287040L373.392585 443.197440
L377.360081 443.591680L379.627222 443.627520L380.194007 443.475200
L383.311326 443.152640L385.295074 443.134720L386.145251 442.973440
L386.712037 442.919680L387.562214 442.821120L388.128999 442.650880
L388.412392 442.713600L388.979177 442.659840L389.545962 442.650880
L391.246318 442.561280L391.813103 442.382080L392.663281 442.301440
L392.946673 442.131200L394.930422 441.978880L396.630777 441.880320
L397.197562 441.674240L398.331133 441.719040L398.897918 441.665280
L400.031488 441.486080L400.598273 441.432320L401.448451 441.512960
L402.865414 441.378560L403.715592 441.297920L404.565769 441.217280
L406.549518 441.235200L407.116303 441.047040L407.966480 441.145600
L417.318436 440.357120L418.735399 440.428800L420.719147 440.267520
L421.285932 440.375040L422.419502 440.303360L422.986287 440.321280
L424.403250 440.339200L424.970036 440.330240L426.386998 440.079360
L426.953784 439.909120L427.520569 439.918080L430.921280 439.936000
L432.338243 440.168960L433.471813 440.222720L434.038598 440.168960
L434.888776 440.177920L435.172169 440.106240L436.022346 440.160000
L437.155917 440.052480L438.006094 440.007680L439.139665 440.151040
L439.706450 440.177920L442.823768 440.070400L443.673946 440.249600
L445.657694 439.828480L446.224479 439.918080L446.791265 439.747840
L447.924835 439.712000L448.775013 439.604480L450.758761 439.389440
L452.175724 439.272960L453.309294 439.165440L454.726257 439.192320
L455.293042 439.075840L456.143220 439.057920L456.426612 439.004160
L457.276790 439.022080L458.126968 438.941440L458.693753 438.905600
L460.110716 438.565120L461.244286 438.592000L462.377857 438.403840
L463.228035 438.448640L466.061960 438.466560L467.195531 438.242560
L468.612494 438.323200L469.746064 438.179840L470.029457 438.206720
L470.596242 438.054400L473.430168 437.911040L473.713560 437.973760
L474.847131 437.678080L475.697308 437.740800L476.264093 437.597440
L476.830879 437.687040L477.397664 437.704960L479.664804 437.902080
L480.231590 437.991680L480.798375 437.982720L481.081767 438.054400
L483.065515 437.713920L483.348908 437.749760L483.632301 437.624320
L483.915693 437.633280L484.482478 437.498880L485.332656 437.436160
L486.182834 437.454080L486.749619 437.427200L487.316404 437.463040
L488.166582 437.346560L488.733367 437.418240L496.668360 436.835840
L497.235145 436.773120L498.085322 436.764160L498.935500 436.638720
L500.352463 436.602880L500.919248 436.513280L501.486034 436.423680
L502.052819 436.432640L504.319959 436.441600L504.886745 436.343040
L506.020315 436.289280L507.153885 436.235520L508.004063 436.414720
L508.570848 436.414720L509.987811 436.423680L511.404774 436.343040
L511.971559 436.280320L512.821737 436.316160L513.671915 436.289280
L514.238700 436.181760L518.489589 436.360960L522.457085 436.092160
L523.023870 436.136960L523.874048 436.128000L524.157440 436.208640
L525.007618 436.172800L527.841544 436.101120L528.408329 436.253440
L530.392077 436.226560L530.958862 436.217600L531.525648 436.172800
L532.942610 436.298240L534.076181 436.280320L534.359573 436.217600
L535.209751 436.369920L536.343321 436.352000L536.626714 436.217600
L537.476892 436.217600L540.027425 436.190720L540.310818 436.343040
L540.594210 436.289280L541.160995 436.414720L542.294566 436.262400
L543.144744 436.235520L544.561706 436.334080L545.128492 436.360960
L545.411884 436.325120L545.978669 436.423680L546.828847 436.316160
L547.962417 436.119040L548.245810 436.262400L549.662773 436.047360
L549.946166 436.110080L550.512951 435.984640L551.363128 435.948800
L552.213306 435.823360L553.063484 435.662080L558.164551 435.590400
L558.731336 435.590400L559.014728 435.500800L559.864906 435.527680
L560.431691 435.518720L561.281869 435.500800L561.565262 435.438080
L561.848654 435.500800L562.415439 435.330560L564.965973 435.330560
L565.816150 435.285760L566.382936 435.303680L566.666328 435.115520
L567.233113 435.097600L567.799898 435.124480L568.083291 434.945280
L568.650076 434.936320L570.350432 434.810880L573.184358 434.891520
L574.034535 434.873600L574.884713 434.918400L577.151854 434.712320
L578.285424 434.784000L578.852209 434.721280L579.418994 434.649600
L579.985780 434.694400L580.552565 434.703360L582.536313 435.133440
L582.819705 435.097600L584.236668 435.411200L585.653631 435.491840
L586.220416 435.447040L586.503809 435.393280L587.353987 434.972160
L588.204165 434.810880L588.770950 433.843200L589.337735 433.717760
L589.621127 431.710720L590.187913 429.936640L591.321483 429.918720
L591.888268 429.847040L593.872016 429.614080L594.438801 429.640960
L594.722194 430.035200L595.288979 430.017280L595.572372 431.988480
L596.139157 433.502720L596.422550 433.932800L596.989335 433.762560
L597.272727 431.934720L599.256475 431.549440L599.823261 431.764480
L600.673438 431.567360L601.240223 431.603200L601.807009 431.415040
L602.373794 431.495680L603.223972 431.441920L604.074149 431.182080
L606.624683 431.182080L606.908075 430.689280L608.891823 430.545920
L611.442357 430.286080L612.009142 430.106880L612.575927 430.106880
L613.426105 429.900800L615.126460 429.936640L617.393601 429.712640
L617.960386 429.712640L619.377349 429.408000L619.944134 429.228800
L620.794312 428.977920L621.077704 429.058560L622.211275 428.906240
L622.494667 428.870400L623.061453 428.512000L623.911630 428.449280
L624.478415 428.323840L625.328593 428.476160L625.895378 428.467200
L627.879126 428.395520L628.445912 428.225280L629.296089 428.305920
L629.579482 428.252160L630.429660 428.386560L631.563230 428.413440
L631.846623 428.305920L632.696800 428.494080L636.380904 428.001280
L637.231082 427.669760L637.514474 427.616000L637.797867 427.687680
L638.364652 427.616000L638.648045 427.571200L638.931437 427.669760
L640.915185 427.481600L641.481971 426.379520L642.048756 426.424320
L642.332148 425.994240L642.898933 426.021120L643.465719 425.877760
L644.882682 425.743360L645.166074 426.003200L645.732859 425.958400
L646.299644 426.092800L646.866430 426.236160L647.149822 426.128640
L647.433215 427.230720L647.716607 427.212800L648.000000 427.338240
L648.000000 427.338240"/>
</g>
<g id="line2d3">
<path style="fill: none; stroke: #0000ff; stroke-width: 3.000000; stroke-linejoin: round; stroke-linecap: square;  opacity: 1.000000" clip-path="url(#p6d54bdcfc682fd2a5eb67e424bad820e)" d="M472.579990 321.287680L477.114271 315.266560L478.531234 313.698560
L480.231590 311.772160L484.199086 306.897920L486.749619 303.851520
L488.733367 301.575680L494.117826 295.447040L496.668360 292.651520
L498.085322 291.047680L499.502285 289.381120L500.352463 288.359680
L504.603352 283.557120L506.020315 281.926400L508.854241 278.673920
L510.837989 276.281600L513.671915 272.823040L514.238700 271.703040
L515.088878 269.140480L516.789233 263.997440L517.922803 261.291520
L519.623159 257.841920L520.473337 256.327680L521.040122 256.327680
L521.323514 254.912000L522.740477 252.609280L524.157440 250.432000
L528.124937 244.948480L530.675470 241.803520L534.926359 236.983040
L536.910107 234.895360L538.893855 232.700160L541.444388 229.877760
L542.861351 228.336640L546.545455 224.000000L551.363128 217.934080
L552.780091 216.222720L554.197054 214.484480L554.480447 214.484480
L554.763840 214.152960L555.047232 213.436160L557.597765 210.228480
L557.881158 210.228480L558.731336 209.251840L559.014728 208.517120
L559.298121 208.149760L559.581513 208.149760L560.715084 206.572800
L560.998476 206.097920L561.281869 205.094400L561.565262 204.583680
L561.848654 204.583680L563.832402 201.053440L566.949721 196.107520
L570.633824 190.686720L572.050787 188.894720L579.418994 179.907840
L584.520061 179.907840L584.803454 174.092800L585.086846 173.949440
L585.937024 172.784640L587.070594 171.476480L587.353987 171.476480
L592.171661 165.957120L592.455053 165.957120L594.438801 163.618560
L595.572372 162.193920L596.422550 161.271040L596.705942 161.271040
L598.122905 159.649280L600.106653 157.480960L600.673438 156.764160
L600.956831 156.764160L601.523616 156.056320L602.940579 156.056320
L603.223972 153.646080L603.507364 153.269760L603.790757 153.269760
L604.924327 151.889920L605.207720 151.889920L606.057897 151.011840
L606.624683 150.357760L607.474860 150.357760L607.758253 148.951040
L608.041646 148.556800L608.325038 148.556800L608.608431 148.207360
L608.891823 148.207360L609.742001 147.015680L610.025394 147.015680
L610.592179 146.316800L610.875571 146.316800L611.442357 145.519360
L611.725749 145.519360L612.292534 144.775680L612.575927 144.775680
L613.142712 144.085760L613.426105 144.085760L613.992890 143.288320
L614.276282 143.288320L614.559675 142.840320L614.843068 142.840320
L615.409853 141.971200L615.693245 141.971200L615.976638 141.576960
L617.110208 141.576960L617.393601 138.503680L617.676993 138.503680
L617.960386 137.813760L618.243779 137.813760L618.527171 136.917760
L618.810564 136.917760L619.093956 136.200960L619.377349 136.200960
L619.944134 134.758400L620.227527 134.758400L620.510919 134.131200
L620.794312 134.131200L621.077704 133.459200L621.361097 133.459200
L621.927882 132.231680L622.211275 132.231680L622.778060 131.228160
L623.061453 131.228160L623.628238 130.188800L623.911630 130.188800
L624.478415 129.328640L624.761808 129.328640L625.328593 128.352000
L625.895378 127.608320L626.462164 127.608320L626.745556 124.597760
L627.028949 124.158720L627.312341 124.158720L628.162519 123.092480
L628.445912 123.092480L629.862875 121.452800L630.146267 121.452800
L631.563230 119.857920L631.846623 119.857920L632.980193 118.531840
L633.263586 118.531840L634.680549 117.008640L634.963941 117.008640
L637.514474 114.392320L637.797867 113.792000L639.781615 113.792000
L640.065008 111.713280L640.348400 111.713280L640.631793 111.354880
L640.915185 111.354880L641.481971 110.790400L641.765363 110.790400
L642.332148 110.234880L642.615541 110.234880L643.182326 109.697280
L644.032504 109.697280L644.315896 108.218880L644.599289 108.218880
L645.449467 107.376640L645.732859 107.376640L646.299644 106.776320
L646.583037 106.776320L647.149822 106.292480L647.433215 106.292480
L648.000000 105.728000L648.000000 105.728000"/>
</g>
<g id="line2d4">
<path style="fill: none; stroke: #0000ff; stroke-width: 2.000000; stroke-linejoin: round; stroke-linecap: butt; stroke-dasharray: 6.000000,6.000000; stroke-dashoffset: 0.000000; opacity: 1.000000" clip-path="url(#p6d54bdcfc682fd2a5eb67e424bad820e)" d="M472.579990 443.072000L481.931945 442.382080L484.199086 442.202880
L491.000508 441.665280L507.720670 440.186880L511.688167 439.828480
L533.226003 437.893120L543.994921 437.104640L574.884713 434.282240
L582.252920 433.914880L584.520061 433.914880L584.803454 433.556480
L587.920772 433.350400L597.272727 432.651520L602.090401 432.302080
L602.940579 432.302080L603.223972 432.113920L606.908075 431.854080
L607.758253 431.755520L617.110208 431.217920L617.393601 431.020800
L618.810564 430.931200L619.944134 430.796800L621.361097 430.707200
L622.494667 430.590720L626.178771 430.339840L626.462164 430.339840
L626.745556 430.169600L629.862875 429.963520L631.846623 429.864960
L639.214830 429.497600L639.781615 429.497600L640.065008 429.336320
L642.898933 429.237760L646.299644 429.022720L648.000000 428.951040
L648.000000 428.951040"/>
</g>
<g id="matplotlib.axis1">
<g id="xtick1">
<g id="line2d5">
<path style="fill: none; stroke: #000000; stroke-width: 0.500000; stroke-linejoin: round; stroke-linecap: butt; stroke-dasharray: 1.000000,3.000000; stroke-dashoffset: 0.000000; opacity: 1.000000" clip-path="url(#p6d54bdcfc682fd2a5eb67e424bad820e)" d="M169.066531 453.600000L169.066531 50.400000"/>
</g>
<g id="line2d6">
<defs><path id="m30e32995789d870ad79a2e54c91cf9c6" d="M0.000000 0.000000L0.000000 -4.000000"/></defs>
<g ><use style="fill: none; stroke: #000000; stroke-width: 0.500000; stroke-linejoin: round; stroke-linecap: butt;  opacity: 1.000000" xlink:href="#m30e32995789d870ad79a2e54c91cf9c6" x="169.066531" y="453.600000"/>
</g></g>
<g id="line2d7">
<defs><path id="m9281cae24120827b11d5ea8a7ad3e96b" d="M0.000000 0.000000L0.000000 4.000000"/></defs>
<g ><use style="fill: none; stroke: #000000; stroke-width: 0.500000; stroke-linejoin: round; stroke-linecap: butt;  opacity: 1.000000" xlink:href="#m9281cae24120827b11d5ea8a7ad3e96b" x="169.066531" y="50.400000"/>
</g></g>
<g id="text1">
<defs>
<path id="c_ed3f3ed3ebfbd18bcb9c012009a68ad1" d="M19.187500 -8.296875l34.421875 0.000000l0.000000 8.296875l-46.281250 0.000000l0.000000 -8.296875q5.609375 -5.812500 15.296875 -15.593750q9.703125 -9.796875 12.187500 -12.640625q4.734375 -5.312500 6.609375 -9.000000q1.890625 -3.687500 1.890625 -7.250000q0.000000 -5.812500 -4.078125 -9.468750q-4.078125 -3.671875 -10.625000 -3.671875q-4.640625 0.000000 -9.796875 1.609375q-5.140625 1.609375 -11.000000 4.890625l0.000000 -9.968750q5.953125 -2.390625 11.125000 -3.609375q5.187500 -1.218750 9.484375 -1.218750q11.328125 0.000000 18.062500 5.671875q6.734375 5.656250 6.734375 15.125000q0.000000 4.500000 -1.687500 8.531250q-1.671875 4.015625 -6.125000 9.484375q-1.218750 1.421875 -7.765625 8.187500q-6.531250 6.765625 -18.453125 18.921875"/>
<path id="c_7a2040fe3b94fcd41d0a72c84e93b115" d="M31.781250 -66.406250q-7.609375 0.000000 -11.453125 7.500000q-3.828125 7.484375 -3.828125 22.531250q0.000000 14.984375 3.828125 22.484375q3.843750 7.500000 11.453125 7.500000q7.671875 0.000000 11.500000 -7.500000q3.843750 -7.500000 3.843750 -22.484375q0.000000 -15.046875 -3.843750 -22.531250q-3.828125 -7.500000 -11.500000 -7.500000M31.781250 -74.218750q12.265625 0.000000 18.734375 9.703125q6.468750 9.687500 6.468750 28.140625q0.000000 18.406250 -6.468750 28.109375q-6.468750 9.687500 -18.734375 9.687500q-12.250000 0.000000 -18.718750 -9.687500q-6.468750 -9.703125 -6.468750 -28.109375q0.000000 -18.453125 6.468750 -28.140625q6.468750 -9.703125 18.718750 -9.703125"/>
<path id="c_956f18cfdaf972f35a6c2b4aaac2532b" d="M8.203125 -72.906250l46.875000 0.000000l0.000000 4.203125l-26.468750 68.703125l-10.296875 0.000000l24.906250 -64.593750l-35.015625 0.000000z"/>
</defs>
<g style="fill: #000000; opacity: 1.000000" transform="translate(154.738406,466.506250)scale(0.120000)">
<use xlink:href="#c_ed3f3ed3ebfbd18bcb9c012009a68ad1"/>
<use xlink:href="#c_7a2040fe3b94fcd41d0a72c84e93b115" x="63.623047"/>
<use xlink:href="#c_7a2040fe3b94fcd41d0a72c84e93b115" x="127.246094"/>
<use xlink:href="#c_956f18cfdaf972f35a6c2b4aaac2532b" x="190.869141"/>
</g>
</g>
</g>
<g id="xtick2">
<g id="line2d8">
<path style="fill: none; stroke: #000000; stroke-width: 0.500000; stroke-linejoin: round; stroke-linecap: butt; stroke-dasharray: 1.000000,3.000000; stroke-dashoffset: 0.000000; opacity: 1.000000" clip-path="url(#p6d54bdcfc682fd2a5eb67e424bad820e)" d="M272.504825 453.600000L272.504825 50.400000"/>
</g>
<g id="line2d9">
<g ><use style="fill: none; stroke: #000000; stroke-width: 0.500000; stroke-linejoin: round; stroke-linecap: butt;  opacity: 1.000000" xlink:href="#m30e32995789d870ad79a2e54c91cf9c6" x="272.504825" y="453.600000"/>
</g></g>
<g id="line2d10">
<g ><use style="fill: none; stroke: #000000; stroke-width: 0.500000; stroke-linejoin: round; stroke-linecap: butt;  opacity: 1.000000" xlink:href="#m9281cae24120827b11d5ea8a7ad3e96b" x="272.504825" y="50.400000"/>
</g></g>
<g id="text2">
<defs>
<path id="c_bef35738d52871942e50b9de9b122bab" d="M31.781250 -34.625000q-7.031250 0.000000 -11.062500 3.765625q-4.015625 3.765625 -4.015625 10.343750q0.000000 6.593750 4.015625 10.359375q4.031250 3.765625 11.062500 3.765625q7.031250 0.000000 11.078125 -3.781250q4.062500 -3.796875 4.062500 -10.343750q0.000000 -6.578125 -4.031250 -10.343750q-4.015625 -3.765625 -11.109375 -3.765625M21.921875 -38.812500q-6.343750 -1.562500 -9.890625 -5.906250q-3.531250 -4.359375 -3.531250 -10.609375q0.000000 -8.734375 6.218750 -13.812500q6.234375 -5.078125 17.062500 -5.078125q10.890625 0.000000 17.093750 5.078125q6.203125 5.078125 6.203125 13.812500q0.000000 6.250000 -3.546875 10.609375q-3.531250 4.343750 -9.828125 5.906250q7.125000 1.656250 11.093750 6.500000q3.984375 4.828125 3.984375 11.796875q0.000000 10.609375 -6.468750 16.281250q-6.468750 5.656250 -18.531250 5.656250q-12.046875 0.000000 -18.531250 -5.656250q-6.468750 -5.671875 -6.468750 -16.281250q0.000000 -6.968750 4.000000 -11.796875q4.015625 -4.843750 11.140625 -6.500000M18.312500 -54.390625q0.000000 5.656250 3.531250 8.828125q3.546875 3.171875 9.937500 3.171875q6.359375 0.000000 9.937500 -3.171875q3.593750 -3.171875 3.593750 -8.828125q0.000000 -5.671875 -3.593750 -8.843750q-3.578125 -3.171875 -9.937500 -3.171875q-6.390625 0.000000 -9.937500 3.171875q-3.531250 3.171875 -3.531250 8.843750"/>
</defs>
<g style="fill: #000000; opacity: 1.000000" transform="translate(258.075137,466.506250)scale(0.120000)">
<use xlink:href="#c_ed3f3ed3ebfbd18bcb9c012009a68ad1"/>
<use xlink:href="#c_7a2040fe3b94fcd41d0a72c84e93b115" x="63.623047"/>
<use xlink:href="#c_7a2040fe3b94fcd41d0a72c84e93b115" x="127.246094"/>
<use xlink:href="#c_bef35738d52871942e50b9de9b122bab" x="190.869141"/>
</g>
</g>
</g>
<g id="xtick3">
<g id="line2d11">
<path style="fill: none; stroke: #000000; stroke-width: 0.500000; stroke-linejoin: round; stroke-linecap: butt; stroke-dasharray: 1.000000,3.000000; stroke-dashoffset: 0.000000; opacity: 1.000000" clip-path="url(#p6d54bdcfc682fd2a5eb67e424bad820e)" d="M376.226511 453.600000L376.226511 50.400000"/>
</g>
<g id="line2d12">
<g ><use style="fill: none; stroke: #000000; stroke-width: 0.500000; stroke-linejoin: round; stroke-linecap: butt;  opacity: 1.000000" xlink:href="#m30e32995789d870ad79a2e54c91cf9c6" x="376.226511" y="453.600000"/>
</g></g>
<g id="line2d13">
<g ><use style="fill: none; stroke: #000000; stroke-width: 0.500000; stroke-linejoin: round; stroke-linecap: butt;  opacity: 1.000000" xlink:href="#m9281cae24120827b11d5ea8a7ad3e96b" x="376.226511" y="50.400000"/>
</g></g>
<g id="text3">
<defs>
<path id="c_cd96f817f3cab988d24a2b49a5577fe6" d="M10.984375 -1.515625l0.000000 -8.984375q3.718750 1.765625 7.515625 2.687500q3.812500 0.921875 7.484375 0.921875q9.765625 0.000000 14.906250 -6.562500q5.156250 -6.562500 5.890625 -19.953125q-2.828125 4.203125 -7.187500 6.453125q-4.343750 2.250000 -9.609375 2.250000q-10.937500 0.000000 -17.312500 -6.609375q-6.375000 -6.625000 -6.375000 -18.109375q0.000000 -11.218750 6.640625 -18.000000q6.640625 -6.796875 17.671875 -6.796875q12.656250 0.000000 19.312500 9.703125q6.671875 9.687500 6.671875 28.140625q0.000000 17.234375 -8.187500 27.515625q-8.171875 10.281250 -21.984375 10.281250q-3.718750 0.000000 -7.531250 -0.734375q-3.796875 -0.734375 -7.906250 -2.203125M30.609375 -32.421875q6.640625 0.000000 10.515625 -4.531250q3.890625 -4.546875 3.890625 -12.468750q0.000000 -7.859375 -3.890625 -12.421875q-3.875000 -4.562500 -10.515625 -4.562500q-6.640625 0.000000 -10.515625 4.562500q-3.875000 4.562500 -3.875000 12.421875q0.000000 7.921875 3.875000 12.468750q3.875000 4.531250 10.515625 4.531250"/>
</defs>
<g style="fill: #000000; opacity: 1.000000" transform="translate(361.804636,466.506250)scale(0.120000)">
<use xlink:href="#c_ed3f3ed3ebfbd18bcb9c012009a68ad1"/>
<use xlink:href="#c_7a2040fe3b94fcd41d0a72c84e93b115" x="63.623047"/>
<use xlink:href="#c_7a2040fe3b94fcd41d0a72c84e93b115" x="127.246094"/>
<use xlink:href="#c_cd96f817f3cab988d24a2b49a5577fe6" x="190.869141"/>
</g>
</g>
</g>
<g id="xtick4">
<g id="line2d14">
<path style="fill: none; stroke: #000000; stroke-width: 0.500000; stroke-linejoin: round; stroke-linecap: butt; stroke-dasharray: 1.000000,3.000000; stroke-dashoffset: 0.000000; opacity: 1.000000" clip-path="url(#p6d54bdcfc682fd2a5eb67e424bad820e)" d="M479.664804 453.600000L479.664804 50.400000"/>
</g>
<g id="line2d15">
<g ><use style="fill: none; stroke: #000000; stroke-width: 0.500000; stroke-linejoin: round; stroke-linecap: butt;  opacity: 1.000000" xlink:href="#m30e32995789d870ad79a2e54c91cf9c6" x="479.664804" y="453.600000"/>
</g></g>
<g id="line2d16">
<g ><use style="fill: none; stroke: #000000; stroke-width: 0.500000; stroke-linejoin: round; stroke-linecap: butt;  opacity: 1.000000" xlink:href="#m9281cae24120827b11d5ea8a7ad3e96b" x="479.664804" y="50.400000"/>
</g></g>
<g id="text4">
<defs>
<path id="c_42baa63129a918535c52adb20d687ea7" d="M12.406250 -8.296875l16.109375 0.000000l0.000000 -55.625000l-17.531250 3.515625l0.000000 -8.984375l17.437500 -3.515625l9.859375 0.000000l0.000000 64.609375l16.109375 0.000000l0.000000 8.296875l-41.984375 0.000000z"/>
</defs>
<g style="fill: #000000; opacity: 1.000000" transform="translate(465.219492,466.506250)scale(0.120000)">
<use xlink:href="#c_ed3f3ed3ebfbd18bcb9c012009a68ad1"/>
<use xlink:href="#c_7a2040fe3b94fcd41d0a72c84e93b115" x="63.623047"/>
<use xlink:href="#c_42baa63129a918535c52adb20d687ea7" x="127.246094"/>
<use xlink:href="#c_7a2040fe3b94fcd41d0a72c84e93b115" x="190.869141"/>
</g>
</g>
</g>
<g id="xtick5">
<g id="line2d17">
<path style="fill: none; stroke: #000000; stroke-width: 0.500000; stroke-linejoin: round; stroke-linecap: butt; stroke-dasharray: 1.000000,3.000000; stroke-dashoffset: 0.000000; opacity: 1.000000" clip-path="url(#p6d54bdcfc682fd2a5eb67e424bad820e)" d="M583.103098 453.600000L583.103098 50.400000"/>
</g>
<g id="line2d18">
<g ><use style="fill: none; stroke: #000000; stroke-width: 0.500000; stroke-linejoin: round; stroke-linecap: butt;  opacity: 1.000000" xlink:href="#m30e32995789d870ad79a2e54c91cf9c6" x="583.103098" y="453.600000"/>
</g></g>
<g id="line2d19">
<g ><use style="fill: none; stroke: #000000; stroke-width: 0.500000; stroke-linejoin: round; stroke-linecap: butt;  opacity: 1.000000" xlink:href="#m9281cae24120827b11d5ea8a7ad3e96b" x="583.103098" y="50.400000"/>
</g></g>
<g id="text5">
<g style="fill: #000000; opacity: 1.000000" transform="translate(568.814036,466.506250)scale(0.120000)">
<use xlink:href="#c_ed3f3ed3ebfbd18bcb9c012009a68ad1"/>
<use xlink:href="#c_7a2040fe3b94fcd41d0a72c84e93b115" x="63.623047"/>
<use xlink:href="#c_42baa63129a918535c52adb20d687ea7" x="127.246094"/>
<use xlink:href="#c_42baa63129a918535c52adb20d687ea7" x="190.869141"/>
</g>
</g>
</g>
</g>
<g id="matplotlib.axis2">
<g id="ytick1">
<g id="line2d20">
<path style="fill: none; stroke: #000000; stroke-width: 0.500000; stroke-linejoin: round; stroke-linecap: butt; stroke-dasharray: 1.000000,3.000000; stroke-dashoffset: 0.000000; opacity: 1.000000" clip-path="url(#p6d54bdcfc682fd2a5eb67e424bad820e)" d="M90.000000 453.600000L648.000000 453.600000"/>
</g>
<g id="line2d21">
<defs><path id="m3400efa6b1638b3fea9e19e898273957" d="M0.000000 0.000000L4.000000 0.000000"/></defs>
<g ><use style="fill: none; stroke: #000000; stroke-width: 0.500000; stroke-linejoin: round; stroke-linecap: butt;  opacity: 1.000000" xlink:href="#m3400efa6b1638b3fea9e19e898273957" x="90.000000" y="453.600000"/>
</g></g>
<g id="text6">
<g style="fill: #000000; opacity: 1.000000" transform="translate(79.953125,457.967188)scale(0.120000)">
<use xlink:href="#c_7a2040fe3b94fcd41d0a72c84e93b115"/>
</g>
</g>
</g>
<g id="ytick2">
<g id="line2d22">
<path style="fill: none; stroke: #000000; stroke-width: 0.500000; stroke-linejoin: round; stroke-linecap: butt; stroke-dasharray: 1.000000,3.000000; stroke-dashoffset: 0.000000; opacity: 1.000000" clip-path="url(#p6d54bdcfc682fd2a5eb67e424bad820e)" d="M90.000000 408.800000L648.000000 408.800000"/>
</g>
<g id="line2d23">
<g ><use style="fill: none; stroke: #000000; stroke-width: 0.500000; stroke-linejoin: round; stroke-linecap: butt;  opacity: 1.000000" xlink:href="#m3400efa6b1638b3fea9e19e898273957" x="90.000000" y="408.800000"/>
</g></g>
<g id="text7">
<defs>
<path id="c_1260a2df50f305f3db244e29828f968e" d="M10.796875 -72.906250l38.718750 0.000000l0.000000 8.312500l-29.687500 0.000000l0.000000 17.859375q2.140625 -0.734375 4.281250 -1.093750q2.156250 -0.359375 4.312500 -0.359375q12.203125 0.000000 19.328125 6.687500q7.140625 6.687500 7.140625 18.109375q0.000000 11.765625 -7.328125 18.296875q-7.328125 6.515625 -20.656250 6.515625q-4.593750 0.000000 -9.359375 -0.781250q-4.750000 -0.781250 -9.828125 -2.343750l0.000000 -9.921875q4.390625 2.390625 9.078125 3.562500q4.687500 1.171875 9.906250 1.171875q8.453125 0.000000 13.375000 -4.437500q4.937500 -4.437500 4.937500 -12.062500q0.000000 -7.609375 -4.937500 -12.046875q-4.921875 -4.453125 -13.375000 -4.453125q-3.953125 0.000000 -7.890625 0.875000q-3.921875 0.875000 -8.015625 2.734375z"/>
</defs>
<g style="fill: #000000; opacity: 1.000000" transform="translate(57.156250,413.167188)scale(0.120000)">
<use xlink:href="#c_1260a2df50f305f3db244e29828f968e"/>
<use xlink:href="#c_7a2040fe3b94fcd41d0a72c84e93b115" x="63.623047"/>
<use xlink:href="#c_7a2040fe3b94fcd41d0a72c84e93b115" x="127.246094"/>
<use xlink:href="#c_7a2040fe3b94fcd41d0a72c84e93b115" x="190.869141"/>
</g>
</g>
</g>
<g id="ytick3">
<g id="line2d24">
<path style="fill: none; stroke: #000000; stroke-width: 0.500000; stroke-linejoin: round; stroke-linecap: butt; stroke-dasharray: 1.000000,3.000000; stroke-dashoffset: 0.000000; opacity: 1.000000" clip-path="url(#p6d54bdcfc682fd2a5eb67e424bad820e)" d="M90.000000 364.000000L648.000000 364.000000"/>
</g>
<g id="line2d25">
<g ><use style="fill: none; stroke: #000000; stroke-width: 0.500000; stroke-linejoin: round; stroke-linecap: butt;  opacity: 1.000000" xlink:href="#m3400efa6b1638b3fea9e19e898273957" x="90.000000" y="364.000000"/>
</g></g>
<g id="text8">
<g style="fill: #000000; opacity: 1.000000" transform="translate(49.906250,368.367188)scale(0.120000)">
<use xlink:href="#c_42baa63129a918535c52adb20d687ea7"/>
<use xlink:href="#c_7a2040fe3b94fcd41d0a72c84e93b115" x="63.623047"/>
<use xlink:href="#c_7a2040fe3b94fcd41d0a72c84e93b115" x="127.246094"/>
<use xlink:href="#c_7a2040fe3b94fcd41d0a72c84e93b115" x="190.869141"/>
<use xlink:href="#c_7a2040fe3b94fcd41d0a72c84e93b115" x="254.492188"/>
</g>
</g>
</g>
<g id="ytick4">
<g id="line2d26">
<path style="fill: none; stroke: #000000; stroke-width: 0.500000; stroke-linejoin: round; stroke-linecap: butt; stroke-dasharray: 1.000000,3.000000; stroke-dashoffset: 0.000000; opacity: 1.000000" clip-path="url(#p6d54bdcfc682fd2a5eb67e424bad820e)" d="M90.000000 319.200000L648.000000 319.200000"/>
</g>
<g id="line2d27">
<g ><use style="fill: none; stroke: #000000; stroke-width: 0.500000; stroke-linejoin: round; stroke-linecap: butt;  opacity: 1.000000" xlink:href="#m3400efa6b1638b3fea9e19e898273957" x="90.000000" y="319.200000"/>
</g></g>
<g id="text9">
<g style="fill: #000000; opacity: 1.000000" transform="translate(49.906250,323.567187)scale(0.120000)">
<use xlink:href="#c_42baa63129a918535c52adb20d687ea7"/>
<use xlink:href="#c_1260a2df50f305f3db244e29828f968e" x="63.623047"/>
<use xlink:href="#c_7a2040fe3b94fcd41d0a72c84e93b115" x="127.246094"/>
<use xlink:href="#c_7a2040fe3b94fcd41d0a72c84e93b115" x="190.869141"/>
<use xlink:href="#c_7a2040fe3b94fcd41d0a72c84e93b115" x="254.492188"/>
</g>
</g>
</g>
<g id="ytick5">
<g id="line2d28">
<path style="fill: none; stroke: #000000; stroke-width: 0.500000; stroke-linejoin: round; stroke-linecap: butt; stroke-dasharray: 1.000000,3.000000; stroke-dashoffset: 0.000000; opacity: 1.000000" clip-path="url(#p6d54bdcfc682fd2a5eb67e424bad820e)" d="M90.000000 274.400000L648.000000 274.400000"/>
</g>
<g id="line2d29">
<g ><use style="fill: none; stroke: #000000; stroke-width: 0.500000; stroke-linejoin: round; stroke-linecap: butt;  opacity: 1.000000" xlink:href="#m3400efa6b1638b3fea9e19e898273957" x="90.000000" y="274.400000"/>
</g></g>
<g id="text10">
<g style="fill: #000000; opacity: 1.000000" transform="translate(49.468750,278.767187)scale(0.120000)">
<use xlink:href="#c_ed3f3ed3ebfbd18bcb9c012009a68ad1"/>
<use xlink:href="#c_7a2040fe3b94fcd41d0a72c84e93b115" x="63.623047"/>
<use xlink:href="#c_7a2040fe3b94fcd41d0a72c84e93b115" x="127.246094"/>
<use xlink:href="#c_7a2040fe3b94fcd41d0a72c84e93b115" x="190.869141"/>
<use xlink:href="#c_7a2040fe3b94fcd41d0a72c84e93b115" x="254.492188"/>
</g>
</g>
</g>
<g id="ytick6">
<g id="line2d30">
<path style="fill: none; stroke: #000000; stroke-width: 0.500000; stroke-linejoin: round; stroke-linecap: butt; stroke-dasharray: 1.000000,3.000000; stroke-dashoffset: 0.000000; opacity: 1.000000" clip-path="url(#p6d54bdcfc682fd2a5eb67e424bad820e)" d="M90.000000 229.600000L648.000000 229.600000"/>
</g>
<g id="line2d31">
<g ><use style="fill: none; stroke: #000000; stroke-width: 0.500000; stroke-linejoin: round; stroke-linecap: butt;  opacity: 1.000000" xlink:href="#m3400efa6b1638b3fea9e19e898273957" x="90.000000" y="229.600000"/>
</g></g>
<g id="text11">
<g style="fill: #000000; opacity: 1.000000" transform="translate(49.468750,233.967187)scale(0.120000)">
<use xlink:href="#c_ed3f3ed3ebfbd18bcb9c012009a68ad1"/>
<use xlink:href="#c_1260a2df50f305f3db244e29828f968e" x="63.623047"/>
<use xlink:href="#c_7a2040fe3b94fcd41d0a72c84e93b115" x="127.246094"/>
<use xlink:href="#c_7a2040fe3b94fcd41d0a72c84e93b115" x="190.869141"/>
<use xlink:href="#c_7a2040fe3b94fcd41d0a72c84e93b115" x="254.492188"/>
</g>
</g>
</g>
<g id="ytick7">
<g id="line2d32">
<path style="fill: none; stroke: #000000; stroke-width: 0.500000; stroke-linejoin: round; stroke-linecap: butt; stroke-dasharray: 1.000000,3.000000; stroke-dashoffset: 0.000000; opacity: 1.000000" clip-path="url(#p6d54bdcfc682fd2a5eb67e424bad820e)" d="M90.000000 184.800000L648.000000 184.800000"/>
</g>
<g id="line2d33">
<g ><use style="fill: none; stroke: #000000; stroke-width: 0.500000; stroke-linejoin: round; stroke-linecap: butt;  opacity: 1.000000" xlink:href="#m3400efa6b1638b3fea9e19e898273957" x="90.000000" y="184.800000"/>
</g></g>
<g id="text12">
<defs>
<path id="c_3dcfa38a02242cb63ec6726c6e70be7a" d="M40.578125 -39.312500q7.078125 1.515625 11.046875 6.312500q3.984375 4.781250 3.984375 11.812500q0.000000 10.781250 -7.421875 16.703125q-7.421875 5.906250 -21.093750 5.906250q-4.578125 0.000000 -9.437500 -0.906250q-4.859375 -0.906250 -10.031250 -2.718750l0.000000 -9.515625q4.093750 2.390625 8.968750 3.609375q4.890625 1.218750 10.218750 1.218750q9.265625 0.000000 14.125000 -3.656250q4.859375 -3.656250 4.859375 -10.640625q0.000000 -6.453125 -4.515625 -10.078125q-4.515625 -3.640625 -12.562500 -3.640625l-8.500000 0.000000l0.000000 -8.109375l8.890625 0.000000q7.265625 0.000000 11.125000 -2.906250q3.859375 -2.906250 3.859375 -8.375000q0.000000 -5.609375 -3.984375 -8.609375q-3.968750 -3.015625 -11.390625 -3.015625q-4.062500 0.000000 -8.703125 0.890625q-4.640625 0.875000 -10.203125 2.718750l0.000000 -8.781250q5.625000 -1.562500 10.531250 -2.343750q4.906250 -0.781250 9.250000 -0.781250q11.234375 0.000000 17.765625 5.109375q6.546875 5.093750 6.546875 13.781250q0.000000 6.062500 -3.468750 10.234375q-3.468750 4.171875 -9.859375 5.781250"/>
</defs>
<g style="fill: #000000; opacity: 1.000000" transform="translate(49.515625,189.167188)scale(0.120000)">
<use xlink:href="#c_3dcfa38a02242cb63ec6726c6e70be7a"/>
<use xlink:href="#c_7a2040fe3b94fcd41d0a72c84e93b115" x="63.623047"/>
<use xlink:href="#c_7a2040fe3b94fcd41d0a72c84e93b115" x="127.246094"/>
<use xlink:href="#c_7a2040fe3b94fcd41d0a72c84e93b115" x="190.869141"/>
<use xlink:href="#c_7a2040fe3b94fcd41d0a72c84e93b115" x="254.492188"/>
</g>
</g>
</g>
<g id="ytick8">
<g id="line2d34">
<path style="fill: none; stroke: #000000; stroke-width: 0.500000; stroke-linejoin: round; stroke-linecap: butt; stroke-dasharray: 1.000000,3.000000; stroke-dashoffset: 0.000000; opacity: 1.000000" clip-path="url(#p6d54bdcfc682fd2a5eb67e424bad820e)" d="M90.000000 140.000000L648.000000 140.000000"/>
</g>
<g id="line2d35">
<g ><use style="fill: none; stroke: #000000; stroke-width: 0.500000; stroke-linejoin: round; stroke-linecap: butt;  opacity: 1.000000" xlink:href="#m3400efa6b1638b3fea9e19e898273957" x="90.000000" y="140.000000"/>
</g></g>
<g id="text13">
<g style="fill: #000000; opacity: 1.000000" transform="translate(49.515625,144.367188)scale(0.120000)">
<use xlink:href="#c_3dcfa38a02242cb63ec6726c6e70be7a"/>
<use xlink:href="#c_1260a2df50f305f3db244e29828f968e" x="63.623047"/>
<use xlink:href="#c_7a2040fe3b94fcd41d0a72c84e93b115" x="127.246094"/>
<use xlink:href="#c_7a2040fe3b94fcd41d0a72c84e93b115" x="190.869141"/>
<use xlink:href="#c_7a2040fe3b94fcd41d0a72c84e93b115" x="254.492188"/>
</g>
</g>
</g>
<g id="ytick9">
<g id="line2d36">
<path style="fill: none; stroke: #000000; stroke-width: 0.500000; stroke-linejoin: round; stroke-linecap: butt; stroke-dasharray: 1.000000,3.000000; stroke-dashoffset: 0.000000; opacity: 1.000000" clip-path="url(#p6d54bdcfc682fd2a5eb67e424bad820e)" d="M90.000000 95.200000L648.000000 95.200000"/>
</g>
<g id="line2d37">
<g ><use style="fill: none; stroke: #000000; stroke-width: 0.500000; stroke-linejoin: round; stroke-linecap: butt;  opacity: 1.000000" xlink:href="#m3400efa6b1638b3fea9e19e898273957" x="90.000000" y="95.200000"/>
</g></g>
<g id="text14">
<defs>
<path id="c_a0416418d96557a09b8c1332d34883ba" d="M37.796875 -64.312500l-24.906250 38.921875l24.906250 0.000000zM35.203125 -72.906250l12.406250 0.000000l0.000000 47.515625l10.406250 0.000000l0.000000 8.203125l-10.406250 0.000000l0.000000 17.187500l-9.812500 0.000000l0.000000 -17.187500l-32.906250 0.000000l0.000000 -9.515625z"/>
</defs>
<g style="fill: #000000; opacity: 1.000000" transform="translate(49.187500,99.567187)scale(0.120000)">
<use xlink:href="#c_a0416418d96557a09b8c1332d34883ba"/>
<use xlink:href="#c_7a2040fe3b94fcd41d0a72c84e93b115" x="63.623047"/>
<use xlink:href="#c_7a2040fe3b94fcd41d0a72c84e93b115" x="127.246094"/>
<use xlink:href="#c_7a2040fe3b94fcd41d0a72c84e93b115" x="190.869141"/>
<use xlink:href="#c_7a2040fe3b94fcd41d0a72c84e93b115" x="254.492188"/>
</g>
</g>
</g>
<g id="ytick10">
<g id="line2d38">
<path style="fill: none; stroke: #000000; stroke-width: 0.500000; stroke-linejoin: round; stroke-linecap: butt; stroke-dasharray: 1.000000,3.000000; stroke-dashoffset: 0.000000; opacity: 1.000000" clip-path="url(#p6d54bdcfc682fd2a5eb67e424bad820e)" d="M90.000000 50.400000L648.000000 50.400000"/>
</g>
<g id="line2d39">
<g ><use style="fill: none; stroke: #000000; stroke-width: 0.500000; stroke-linejoin: round; stroke-linecap: butt;  opacity: 1.000000" xlink:href="#m3400efa6b1638b3fea9e19e898273957" x="90.000000" y="50.400000"/>
</g></g>
<g id="text15">
<g style="fill: #000000; opacity: 1.000000" transform="translate(49.187500,54.767187)scale(0.120000)">
<use xlink:href="#c_a0416418d96557a09b8c1332d34883ba"/>
<use xlink:href="#c_1260a2df50f305f3db244e29828f968e" x="63.623047"/>
<use xlink:href="#c_7a2040fe3b94fcd41d0a72c84e93b115" x="127.246094"/>
<use xlink:href="#c_7a2040fe3b94fcd41d0a72c84e93b115" x="190.869141"/>
<use xlink:href="#c_7a2040fe3b94fcd41d0a72c84e93b115" x="254.492188"/>
</g>
</g>
</g>
<g id="text16">
<defs>
<path id="c_52f6883aecfed366d5cb1d7f9841bb8c" d="M51.125000 -44.000000l-14.203125 0.000000l-4.109375 16.312500l14.312500 0.000000zM43.796875 -71.781250l-5.078125 20.265625l14.265625 0.000000l5.125000 -20.265625l7.812500 0.000000l-5.031250 20.265625l15.234375 0.000000l0.000000 7.515625l-17.140625 0.000000l-4.000000 16.312500l15.531250 0.000000l0.000000 7.468750l-17.437500 0.000000l-5.078125 20.218750l-7.812500 0.000000l5.031250 -20.218750l-14.312500 0.000000l-5.031250 20.218750l-7.859375 0.000000l5.078125 -20.218750l-15.375000 0.000000l0.000000 -7.468750l17.187500 0.000000l4.093750 -16.312500l-15.718750 0.000000l0.000000 -7.515625l17.625000 0.000000l4.984375 -20.265625z"/>
<path id="c_d41d8cd98f00b204e9800998ecf8427e" d=""/>
<path id="c_f05dd90d41f04bb96ef1ca503cc2044b" d="M30.609375 -48.390625q-7.218750 0.000000 -11.421875 5.640625q-4.203125 5.640625 -4.203125 15.453125q0.000000 9.812500 4.171875 15.453125q4.187500 5.640625 11.453125 5.640625q7.187500 0.000000 11.375000 -5.656250q4.203125 -5.671875 4.203125 -15.437500q0.000000 -9.718750 -4.203125 -15.406250q-4.187500 -5.687500 -11.375000 -5.687500M30.609375 -56.000000q11.718750 0.000000 18.406250 7.625000q6.703125 7.609375 6.703125 21.078125q0.000000 13.421875 -6.703125 21.078125q-6.687500 7.640625 -18.406250 7.640625q-11.765625 0.000000 -18.437500 -7.640625q-6.656250 -7.656250 -6.656250 -21.078125q0.000000 -13.468750 6.656250 -21.078125q6.671875 -7.625000 18.437500 -7.625000"/>
<path id="c_73b12fe3945075d29fe0cc9a468fa31e" d="M37.109375 -75.984375l0.000000 7.484375l-8.593750 0.000000q-4.828125 0.000000 -6.718750 1.953125q-1.875000 1.953125 -1.875000 7.031250l0.000000 4.828125l14.796875 0.000000l0.000000 6.984375l-14.796875 0.000000l0.000000 47.703125l-9.031250 0.000000l0.000000 -47.703125l-8.593750 0.000000l0.000000 -6.984375l8.593750 0.000000l0.000000 -3.812500q0.000000 -9.125000 4.250000 -13.296875q4.250000 -4.187500 13.468750 -4.187500z"/>
<path id="c_ff9441f72805bc441fcb0bfe0d774f13" d="M19.671875 -64.796875l0.000000 56.687500l11.921875 0.000000q15.093750 0.000000 22.093750 -6.828125q7.000000 -6.843750 7.000000 -21.593750q0.000000 -14.640625 -7.000000 -21.453125q-7.000000 -6.812500 -22.093750 -6.812500zM9.812500 -72.906250l20.265625 0.000000q21.187500 0.000000 31.093750 8.812500q9.921875 8.812500 9.921875 27.562500q0.000000 18.859375 -9.968750 27.703125q-9.953125 8.828125 -31.046875 8.828125l-20.265625 0.000000z"/>
<path id="c_0bce5afba2dc6b9024b26277c38ad8e8" d="M56.203125 -29.593750l0.000000 4.390625l-41.312500 0.000000q0.593750 9.281250 5.593750 14.140625q5.000000 4.859375 13.937500 4.859375q5.171875 0.000000 10.031250 -1.265625q4.859375 -1.265625 9.656250 -3.812500l0.000000 8.500000q-4.843750 2.046875 -9.921875 3.125000q-5.078125 1.078125 -10.296875 1.078125q-13.093750 0.000000 -20.734375 -7.609375q-7.640625 -7.625000 -7.640625 -20.625000q0.000000 -13.421875 7.250000 -21.296875q7.250000 -7.890625 19.562500 -7.890625q11.031250 0.000000 17.453125 7.109375q6.421875 7.093750 6.421875 19.296875M47.218750 -32.234375q-0.093750 -7.359375 -4.125000 -11.750000q-4.031250 -4.406250 -10.671875 -4.406250q-7.515625 0.000000 -12.031250 4.250000q-4.515625 4.250000 -5.203125 11.968750z"/>
<path id="c_5cc9741494d2ad8f9764e03ae145569f" d="M48.687500 -27.296875q0.000000 -9.906250 -4.078125 -15.546875q-4.078125 -5.640625 -11.203125 -5.640625q-7.140625 0.000000 -11.218750 5.640625q-4.078125 5.640625 -4.078125 15.546875q0.000000 9.906250 4.078125 15.546875q4.078125 5.640625 11.218750 5.640625q7.125000 0.000000 11.203125 -5.640625q4.078125 -5.640625 4.078125 -15.546875M18.109375 -46.390625q2.843750 -4.875000 7.156250 -7.234375q4.328125 -2.375000 10.328125 -2.375000q9.968750 0.000000 16.187500 7.906250q6.234375 7.906250 6.234375 20.796875q0.000000 12.890625 -6.234375 20.812500q-6.218750 7.906250 -16.187500 7.906250q-6.000000 0.000000 -10.328125 -2.375000q-4.312500 -2.375000 -7.156250 -7.250000l0.000000 8.203125l-9.031250 0.000000l0.000000 -75.984375l9.031250 0.000000z"/>
<path id="c_6a63bda47b2f3da1cec6aadd80692cfe" d="M9.421875 -54.687500l8.984375 0.000000l0.000000 54.687500l-8.984375 0.000000zM9.421875 -75.984375l8.984375 0.000000l0.000000 11.390625l-8.984375 0.000000z"/>
<path id="c_01d93a582460e35a7945ca50d148ffeb" d="M34.281250 -27.484375q-10.890625 0.000000 -15.093750 2.484375q-4.203125 2.484375 -4.203125 8.500000q0.000000 4.781250 3.156250 7.593750q3.156250 2.796875 8.562500 2.796875q7.484375 0.000000 12.000000 -5.296875q4.515625 -5.296875 4.515625 -14.078125l0.000000 -2.000000zM52.203125 -31.203125l0.000000 31.203125l-8.984375 0.000000l0.000000 -8.296875q-3.078125 4.968750 -7.671875 7.343750q-4.593750 2.375000 -11.234375 2.375000q-8.390625 0.000000 -13.359375 -4.718750q-4.953125 -4.718750 -4.953125 -12.625000q0.000000 -9.218750 6.171875 -13.906250q6.187500 -4.687500 18.437500 -4.687500l12.609375 0.000000l0.000000 -0.890625q0.000000 -6.203125 -4.078125 -9.593750q-4.078125 -3.390625 -11.453125 -3.390625q-4.687500 0.000000 -9.140625 1.125000q-4.437500 1.125000 -8.531250 3.375000l0.000000 -8.312500q4.921875 -1.906250 9.562500 -2.843750q4.640625 -0.953125 9.031250 -0.953125q11.875000 0.000000 17.734375 6.156250q5.859375 6.140625 5.859375 18.640625"/>
<path id="c_fe791a90f5471e2ab20a5ed41a7fa451" d="M54.890625 -33.015625l0.000000 33.015625l-8.984375 0.000000l0.000000 -32.718750q0.000000 -7.765625 -3.031250 -11.609375q-3.031250 -3.859375 -9.078125 -3.859375q-7.281250 0.000000 -11.484375 4.640625q-4.203125 4.625000 -4.203125 12.640625l0.000000 30.906250l-9.031250 0.000000l0.000000 -54.687500l9.031250 0.000000l0.000000 8.500000q3.234375 -4.937500 7.593750 -7.375000q4.375000 -2.437500 10.093750 -2.437500q9.421875 0.000000 14.250000 5.828125q4.843750 5.828125 4.843750 17.156250"/>
<path id="c_8e0810ad13fe20a2a87a2619799b154d" d="M44.281250 -53.078125l0.000000 8.500000q-3.796875 -1.953125 -7.906250 -2.921875q-4.093750 -0.984375 -8.500000 -0.984375q-6.687500 0.000000 -10.031250 2.046875q-3.343750 2.046875 -3.343750 6.156250q0.000000 3.125000 2.390625 4.906250q2.390625 1.781250 9.625000 3.390625l3.078125 0.687500q9.562500 2.046875 13.593750 5.781250q4.031250 3.734375 4.031250 10.421875q0.000000 7.625000 -6.031250 12.078125q-6.031250 4.437500 -16.578125 4.437500q-4.390625 0.000000 -9.156250 -0.859375q-4.765625 -0.859375 -10.031250 -2.562500l0.000000 -9.281250q4.984375 2.593750 9.812500 3.890625q4.828125 1.281250 9.578125 1.281250q6.343750 0.000000 9.750000 -2.171875q3.421875 -2.171875 3.421875 -6.125000q0.000000 -3.656250 -2.468750 -5.609375q-2.453125 -1.953125 -10.812500 -3.765625l-3.125000 -0.734375q-8.343750 -1.750000 -12.062500 -5.390625q-3.703125 -3.640625 -3.703125 -9.984375q0.000000 -7.718750 5.468750 -11.906250q5.468750 -4.203125 15.531250 -4.203125q4.968750 0.000000 9.359375 0.734375q4.406250 0.718750 8.109375 2.187500"/>
<path id="c_0f8c41144cfbf448378cb6fd1cc8e549" d="M18.312500 -70.218750l0.000000 15.531250l18.500000 0.000000l0.000000 6.984375l-18.500000 0.000000l0.000000 29.687500q0.000000 6.687500 1.828125 8.593750q1.828125 1.906250 7.453125 1.906250l9.218750 0.000000l0.000000 7.515625l-9.218750 0.000000q-10.406250 0.000000 -14.359375 -3.875000q-3.953125 -3.890625 -3.953125 -14.140625l0.000000 -29.687500l-6.593750 0.000000l0.000000 -6.984375l6.593750 0.000000l0.000000 -15.531250z"/>
<path id="c_5099edb83619131346ae654950954dea" d="M9.421875 -75.984375l8.984375 0.000000l0.000000 75.984375l-8.984375 0.000000z"/>
</defs>
<g style="fill: #000000; opacity: 1.000000" transform="translate(44.187500,325.593750)rotate(-90.0)scale(0.120000)">
<use xlink:href="#c_52f6883aecfed366d5cb1d7f9841bb8c"/>
<use xlink:href="#c_d41d8cd98f00b204e9800998ecf8427e" x="83.789062"/>
<use xlink:href="#c_f05dd90d41f04bb96ef1ca503cc2044b" x="115.576172"/>
<use xlink:href="#c_73b12fe3945075d29fe0cc9a468fa31e" x="176.757812"/>
<use xlink:href="#c_d41d8cd98f00b204e9800998ecf8427e" x="211.962891"/>
<use xlink:href="#c_ff9441f72805bc441fcb0bfe0d774f13" x="243.750000"/>
<use xlink:href="#c_0bce5afba2dc6b9024b26277c38ad8e8" x="320.751953"/>
<use xlink:href="#c_5cc9741494d2ad8f9764e03ae145569f" x="382.275391"/>
<use xlink:href="#c_6a63bda47b2f3da1cec6aadd80692cfe" x="445.751953"/>
<use xlink:href="#c_01d93a582460e35a7945ca50d148ffeb" x="473.535156"/>
<use xlink:href="#c_fe791a90f5471e2ab20a5ed41a7fa451" x="534.814453"/>
<use xlink:href="#c_d41d8cd98f00b204e9800998ecf8427e" x="598.193359"/>
<use xlink:href="#c_6a63bda47b2f3da1cec6aadd80692cfe" x="629.980469"/>
<use xlink:href="#c_fe791a90f5471e2ab20a5ed41a7fa451" x="657.763672"/>
<use xlink:href="#c_8e0810ad13fe20a2a87a2619799b154d" x="721.142578"/>
<use xlink:href="#c_0f8c41144cfbf448378cb6fd1cc8e549" x="773.242188"/>
<use xlink:href="#c_01d93a582460e35a7945ca50d148ffeb" x="812.451172"/>
<use xlink:href="#c_5099edb83619131346ae654950954dea" x="873.730469"/>
<use xlink:href="#c_5099edb83619131346ae654950954dea" x="901.513672"/>
<use xlink:href="#c_01d93a582460e35a7945ca50d148ffeb" x="929.296875"/>
<use xlink:href="#c_0f8c41144cfbf448378cb6fd1cc8e549" x="990.576172"/>
<use xlink:href="#c_6a63bda47b2f3da1cec6aadd80692cfe" x="1029.785156"/>
<use xlink:href="#c_f05dd90d41f04bb96ef1ca503cc2044b" x="1057.568359"/>
<use xlink:href="#c_fe791a90f5471e2ab20a5ed41a7fa451" x="1118.750000"/>
<use xlink:href="#c_8e0810ad13fe20a2a87a2619799b154d" x="1182.128906"/>
</g>
</g>
</g>
<g id="patch3">
<path style="fill: none; stroke: #000000; stroke-width: 1.000000; stroke-linejoin: round; stroke-linecap: square;  opacity: 1.000000"  d="M90.000000 50.400000L648.000000 50.400000"/>
</g>
<g id="patch4">
<path style="fill: none; stroke: #000000; stroke-width: 1.000000; stroke-linejoin: round; stroke-linecap: square;  opacity: 1.000000"  d="M648.000000 453.600000L648.000000 50.400000"/>
</g>
<g id="patch5">
<path style="fill: none; stroke: #000000; stroke-width: 1.000000; stroke-linejoin: round; stroke-linecap: square;  opacity: 1.000000"  d="M90.000000 453.600000L648.000000 453.600000"/>
</g>
<g id="patch6">
<path style="fill: none; stroke: #000000; stroke-width: 1.000000; stroke-linejoin: round; stroke-linecap: square;  opacity: 1.000000"  d="M90.000000 453.600000L90.000000 50.400000"/>
</g>
<g id="legend1">
<g id="patch7">
<path style="fill: #ffffff; stroke: #000000; stroke-width: 1.000000; stroke-linejoin: round; stroke-linecap: square;  opacity: 1.000000"  d="M97.200000 144.907500L267.258750 144.907500L267.258750 57.600000
L97.200000 57.600000L97.200000 144.907500z"/>
</g>
<g id="line2d40">
<path style="fill: none; stroke: #ff0000; stroke-width: 3.000000; stroke-linejoin: round; stroke-linecap: square;  opacity: 1.000000"  d="M107.280000 68.960625L127.440000 68.960625"/>
</g>
<g id="line2d41">
</g>
<g id="text17">
<defs>
<path id="c_fabc000b0fb83f456ee9f092ad635e20" d="M9.812500 -72.906250l13.281250 0.000000l32.328125 60.984375l0.000000 -60.984375l9.562500 0.000000l0.000000 72.906250l-13.281250 0.000000l-32.312500 -60.984375l0.000000 60.984375l-9.578125 0.000000z"/>
<path id="c_c438d87e693443c2861ebd6359e6491e" d="M8.500000 -21.578125l0.000000 -33.109375l8.984375 0.000000l0.000000 32.765625q0.000000 7.765625 3.015625 11.656250q3.031250 3.875000 9.093750 3.875000q7.265625 0.000000 11.484375 -4.640625q4.234375 -4.640625 4.234375 -12.656250l0.000000 -31.000000l8.984375 0.000000l0.000000 54.687500l-8.984375 0.000000l0.000000 -8.406250q-3.265625 4.984375 -7.593750 7.406250q-4.312500 2.421875 -10.031250 2.421875q-9.421875 0.000000 -14.312500 -5.859375q-4.875000 -5.859375 -4.875000 -17.140625"/>
<path id="c_4653c6dfde66c7610eae0911760d3490" d="M52.000000 -44.187500q3.375000 -6.062500 8.062500 -8.937500q4.687500 -2.875000 11.031250 -2.875000q8.546875 0.000000 13.187500 5.984375q4.640625 5.968750 4.640625 17.000000l0.000000 33.015625l-9.031250 0.000000l0.000000 -32.718750q0.000000 -7.859375 -2.796875 -11.656250q-2.781250 -3.812500 -8.484375 -3.812500q-6.984375 0.000000 -11.046875 4.640625q-4.046875 4.625000 -4.046875 12.640625l0.000000 30.906250l-9.031250 0.000000l0.000000 -32.718750q0.000000 -7.906250 -2.781250 -11.687500q-2.781250 -3.781250 -8.593750 -3.781250q-6.890625 0.000000 -10.953125 4.656250q-4.046875 4.656250 -4.046875 12.625000l0.000000 30.906250l-9.031250 0.000000l0.000000 -54.687500l9.031250 0.000000l0.000000 8.500000q3.078125 -5.031250 7.375000 -7.421875q4.296875 -2.390625 10.203125 -2.390625q5.968750 0.000000 10.140625 3.031250q4.171875 3.015625 6.171875 8.781250"/>
<path id="c_518d586bee075aa0153eaebfcb5ab11f" d="M19.671875 -64.796875l0.000000 27.390625l12.406250 0.000000q6.890625 0.000000 10.640625 -3.562500q3.765625 -3.562500 3.765625 -10.156250q0.000000 -6.546875 -3.765625 -10.109375q-3.750000 -3.562500 -10.640625 -3.562500zM9.812500 -72.906250l22.265625 0.000000q12.265625 0.000000 18.531250 5.546875q6.281250 5.546875 6.281250 16.234375q0.000000 10.796875 -6.281250 16.312500q-6.265625 5.515625 -18.531250 5.515625l-12.406250 0.000000l0.000000 29.296875l-9.859375 0.000000z"/>
<path id="c_3fe22c4af425ac970aec982ae9662abe" d="M32.171875 5.078125q-3.796875 9.765625 -7.421875 12.734375q-3.609375 2.984375 -9.656250 2.984375l-7.187500 0.000000l0.000000 -7.515625l5.281250 0.000000q3.703125 0.000000 5.750000 -1.765625q2.062500 -1.750000 4.546875 -8.296875l1.609375 -4.093750l-22.109375 -53.812500l9.515625 0.000000l17.093750 42.765625l17.093750 -42.765625l9.515625 0.000000z"/>
<path id="c_7efa9804c2b4c09a4b614b91fdebee3d" d="M31.000000 -75.875000q-6.531250 11.218750 -9.718750 22.218750q-3.171875 10.984375 -3.171875 22.265625q0.000000 11.265625 3.203125 22.328125q3.203125 11.062500 9.687500 22.250000l-7.812500 0.000000q-7.312500 -11.484375 -10.953125 -22.562500q-3.640625 -11.078125 -3.640625 -22.015625q0.000000 -10.890625 3.609375 -21.921875q3.625000 -11.046875 10.984375 -22.562500z"/>
<path id="c_e96974be642f6eac0427d72f9cec6c19" d="M8.015625 -75.875000l7.812500 0.000000q7.312500 11.515625 10.953125 22.562500q3.640625 11.031250 3.640625 21.921875q0.000000 10.937500 -3.640625 22.015625q-3.640625 11.078125 -10.953125 22.562500l-7.812500 0.000000q6.484375 -11.187500 9.687500 -22.250000q3.203125 -11.062500 3.203125 -22.328125q0.000000 -11.281250 -3.203125 -22.265625q-3.203125 -11.000000 -9.687500 -22.218750"/>
</defs>
<g style="fill: #000000; opacity: 1.000000" transform="translate(143.280000,74.000625)scale(0.144000)">
<use xlink:href="#c_fabc000b0fb83f456ee9f092ad635e20"/>
<use xlink:href="#c_c438d87e693443c2861ebd6359e6491e" x="74.804688"/>
<use xlink:href="#c_4653c6dfde66c7610eae0911760d3490" x="138.183594"/>
<use xlink:href="#c_518d586bee075aa0153eaebfcb5ab11f" x="235.595703"/>
<use xlink:href="#c_3fe22c4af425ac970aec982ae9662abe" x="295.898438"/>
<use xlink:href="#c_d41d8cd98f00b204e9800998ecf8427e" x="355.078125"/>
<use xlink:href="#c_7efa9804c2b4c09a4b614b91fdebee3d" x="386.865234"/>
<use xlink:href="#c_ff9441f72805bc441fcb0bfe0d774f13" x="425.878906"/>
<use xlink:href="#c_0bce5afba2dc6b9024b26277c38ad8e8" x="502.880859"/>
<use xlink:href="#c_5cc9741494d2ad8f9764e03ae145569f" x="564.404297"/>
<use xlink:href="#c_6a63bda47b2f3da1cec6aadd80692cfe" x="627.880859"/>
<use xlink:href="#c_01d93a582460e35a7945ca50d148ffeb" x="655.664062"/>
<use xlink:href="#c_fe791a90f5471e2ab20a5ed41a7fa451" x="716.943359"/>
<use xlink:href="#c_e96974be642f6eac0427d72f9cec6c19" x="780.322266"/>
</g>
</g>
<g id="line2d42">
<path style="fill: none; stroke: #ff0000; stroke-width: 2.000000; stroke-linejoin: round; stroke-linecap: butt; stroke-dasharray: 6.000000,6.000000; stroke-dashoffset: 0.000000; opacity: 1.000000"  d="M107.280000 89.707500L127.440000 89.707500"/>
</g>
<g id="line2d43">
</g>
<g id="text18">
<defs>
<path id="c_b672e4bee30772019085dff1098f516d" d="M53.515625 -70.515625l0.000000 9.625000q-5.609375 -2.687500 -10.593750 -4.000000q-4.984375 -1.328125 -9.625000 -1.328125q-8.046875 0.000000 -12.421875 3.125000q-4.375000 3.125000 -4.375000 8.890625q0.000000 4.843750 2.906250 7.312500q2.906250 2.453125 11.015625 3.968750l5.953125 1.218750q11.031250 2.109375 16.281250 7.406250q5.250000 5.296875 5.250000 14.171875q0.000000 10.609375 -7.109375 16.078125q-7.093750 5.468750 -20.812500 5.468750q-5.171875 0.000000 -11.015625 -1.171875q-5.828125 -1.171875 -12.078125 -3.468750l0.000000 -10.156250q6.000000 3.359375 11.765625 5.078125q5.765625 1.703125 11.328125 1.703125q8.437500 0.000000 13.031250 -3.312500q4.593750 -3.328125 4.593750 -9.484375q0.000000 -5.359375 -3.296875 -8.390625q-3.296875 -3.031250 -10.812500 -4.546875l-6.015625 -1.171875q-11.031250 -2.187500 -15.968750 -6.875000q-4.921875 -4.687500 -4.921875 -13.046875q0.000000 -9.671875 6.812500 -15.234375q6.812500 -5.562500 18.765625 -5.562500q5.140625 0.000000 10.453125 0.937500q5.328125 0.921875 10.890625 2.765625"/>
<path id="c_d650c37394b681142a10dfc54356d478" d="M48.781250 -52.593750l0.000000 8.406250q-3.812500 -2.109375 -7.640625 -3.156250q-3.828125 -1.046875 -7.734375 -1.046875q-8.750000 0.000000 -13.593750 5.546875q-4.828125 5.531250 -4.828125 15.546875q0.000000 10.015625 4.828125 15.562500q4.843750 5.531250 13.593750 5.531250q3.906250 0.000000 7.734375 -1.046875q3.828125 -1.046875 7.640625 -3.156250l0.000000 8.312500q-3.765625 1.750000 -7.796875 2.625000q-4.015625 0.890625 -8.562500 0.890625q-12.359375 0.000000 -19.640625 -7.765625q-7.265625 -7.765625 -7.265625 -20.953125q0.000000 -13.375000 7.343750 -21.031250q7.359375 -7.671875 20.156250 -7.671875q4.140625 0.000000 8.093750 0.859375q3.953125 0.843750 7.671875 2.546875"/>
</defs>
<g style="fill: #000000; opacity: 1.000000" transform="translate(143.280000,94.747500)scale(0.144000)">
<use xlink:href="#c_b672e4bee30772019085dff1098f516d"/>
<use xlink:href="#c_d650c37394b681142a10dfc54356d478" x="63.476562"/>
<use xlink:href="#c_6a63bda47b2f3da1cec6aadd80692cfe" x="118.457031"/>
<use xlink:href="#c_518d586bee075aa0153eaebfcb5ab11f" x="146.240234"/>
<use xlink:href="#c_3fe22c4af425ac970aec982ae9662abe" x="206.542969"/>
<use xlink:href="#c_d41d8cd98f00b204e9800998ecf8427e" x="265.722656"/>
<use xlink:href="#c_7efa9804c2b4c09a4b614b91fdebee3d" x="297.509766"/>
<use xlink:href="#c_ff9441f72805bc441fcb0bfe0d774f13" x="336.523438"/>
<use xlink:href="#c_0bce5afba2dc6b9024b26277c38ad8e8" x="413.525391"/>
<use xlink:href="#c_5cc9741494d2ad8f9764e03ae145569f" x="475.048828"/>
<use xlink:href="#c_6a63bda47b2f3da1cec6aadd80692cfe" x="538.525391"/>
<use xlink:href="#c_01d93a582460e35a7945ca50d148ffeb" x="566.308594"/>
<use xlink:href="#c_fe791a90f5471e2ab20a5ed41a7fa451" x="627.587891"/>
<use xlink:href="#c_e96974be642f6eac0427d72f9cec6c19" x="690.966797"/>
</g>
</g>
<g id="line2d44">
<path style="fill: none; stroke: #0000ff; stroke-width: 3.000000; stroke-linejoin: round; stroke-linecap: square;  opacity: 1.000000"  d="M107.280000 110.454375L127.440000 110.454375"/>
</g>
<g id="line2d45">
</g>
<g id="text19">
<defs>
<path id="c_f0b2f1db24a99c7a6a1fa56820ca5a8a" d="M8.687500 -72.906250l9.921875 0.000000l0.000000 44.296875q0.000000 11.718750 4.234375 16.875000q4.250000 5.140625 13.781250 5.140625q9.468750 0.000000 13.718750 -5.140625q4.250000 -5.156250 4.250000 -16.875000l0.000000 -44.296875l9.906250 0.000000l0.000000 45.515625q0.000000 14.250000 -7.062500 21.531250q-7.046875 7.281250 -20.812500 7.281250q-13.828125 0.000000 -20.890625 -7.281250q-7.046875 -7.281250 -7.046875 -21.531250z"/>
</defs>
<g style="fill: #000000; opacity: 1.000000" transform="translate(143.280000,115.494375)scale(0.144000)">
<use xlink:href="#c_fabc000b0fb83f456ee9f092ad635e20"/>
<use xlink:href="#c_c438d87e693443c2861ebd6359e6491e" x="74.804688"/>
<use xlink:href="#c_4653c6dfde66c7610eae0911760d3490" x="138.183594"/>
<use xlink:href="#c_518d586bee075aa0153eaebfcb5ab11f" x="235.595703"/>
<use xlink:href="#c_3fe22c4af425ac970aec982ae9662abe" x="295.898438"/>
<use xlink:href="#c_d41d8cd98f00b204e9800998ecf8427e" x="355.078125"/>
<use xlink:href="#c_7efa9804c2b4c09a4b614b91fdebee3d" x="386.865234"/>
<use xlink:href="#c_f0b2f1db24a99c7a6a1fa56820ca5a8a" x="425.878906"/>
<use xlink:href="#c_5cc9741494d2ad8f9764e03ae145569f" x="499.072266"/>
<use xlink:href="#c_c438d87e693443c2861ebd6359e6491e" x="562.548828"/>
<use xlink:href="#c_fe791a90f5471e2ab20a5ed41a7fa451" x="625.927734"/>
<use xlink:href="#c_0f8c41144cfbf448378cb6fd1cc8e549" x="689.306641"/>
<use xlink:href="#c_c438d87e693443c2861ebd6359e6491e" x="728.515625"/>
<use xlink:href="#c_e96974be642f6eac0427d72f9cec6c19" x="791.894531"/>
</g>
</g>
<g id="line2d46">
<path style="fill: none; stroke: #0000ff; stroke-width: 2.000000; stroke-linejoin: round; stroke-linecap: butt; stroke-dasharray: 6.000000,6.000000; stroke-dashoffset: 0.000000; opacity: 1.000000"  d="M107.280000 131.201250L127.440000 131.201250"/>
</g>
<g id="line2d47">
</g>
<g id="text20">
<g style="fill: #000000; opacity: 1.000000" transform="translate(143.280000,136.241250)scale(0.144000)">
<use xlink:href="#c_b672e4bee30772019085dff1098f516d"/>
<use xlink:href="#c_d650c37394b681142a10dfc54356d478" x="63.476562"/>
<use xlink:href="#c_6a63bda47b2f3da1cec6aadd80692cfe" x="118.457031"/>
<use xlink:href="#c_518d586bee075aa0153eaebfcb5ab11f" x="146.240234"/>
<use xlink:href="#c_3fe22c4af425ac970aec982ae9662abe" x="206.542969"/>
<use xlink:href="#c_d41d8cd98f00b204e9800998ecf8427e" x="265.722656"/>
<use xlink:href="#c_7efa9804c2b4c09a4b614b91fdebee3d" x="297.509766"/>
<use xlink:href="#c_f0b2f1db24a99c7a6a1fa56820ca5a8a" x="336.523438"/>
<use xlink:href="#c_5cc9741494d2ad8f9764e03ae145569f" x="409.716797"/>
<use xlink:href="#c_c438d87e693443c2861ebd6359e6491e" x="473.193359"/>
<use xlink:href="#c_fe791a90f5471e2ab20a5ed41a7fa451" x="536.572266"/>
<use xlink:href="#c_0f8c41144cfbf448378cb6fd1cc8e549" x="599.951172"/>
<use xlink:href="#c_c438d87e693443c2861ebd6359e6491e" x="639.160156"/>
<use xlink:href="#c_e96974be642f6eac0427d72f9cec6c19" x="702.539063"/>
</g>
</g>
</g>
</g>
<g id="axes2">
<g id="matplotlib.axis3">
<g id="ytick11">
<g id="line2d48">
<defs><path id="m20b58b2501143cb5e0a5e8f1ef6f1643" d="M0.000000 0.000000L-4.000000 0.000000"/></defs>
<g ><use style="fill: none; stroke: #000000; stroke-width: 0.500000; stroke-linejoin: round; stroke-linecap: butt;  opacity: 1.000000" xlink:href="#m20b58b2501143cb5e0a5e8f1ef6f1643" x="648.000000" y="453.600000"/>
</g></g>
<g id="text21">
<g style="fill: #000000; opacity: 1.000000" transform="translate(652.000000,457.967188)scale(0.120000)">
<use xlink:href="#c_7a2040fe3b94fcd41d0a72c84e93b115"/>
</g>
</g>
</g>
<g id="ytick12">
<g id="line2d49">
<g ><use style="fill: none; stroke: #000000; stroke-width: 0.500000; stroke-linejoin: round; stroke-linecap: butt;  opacity: 1.000000" xlink:href="#m20b58b2501143cb5e0a5e8f1ef6f1643" x="648.000000" y="408.800000"/>
</g></g>
<g id="text22">
<g style="fill: #000000; opacity: 1.000000" transform="translate(652.000000,413.167188)scale(0.120000)">
<use xlink:href="#c_1260a2df50f305f3db244e29828f968e"/>
<use xlink:href="#c_7a2040fe3b94fcd41d0a72c84e93b115" x="63.623047"/>
<use xlink:href="#c_7a2040fe3b94fcd41d0a72c84e93b115" x="127.246094"/>
<use xlink:href="#c_7a2040fe3b94fcd41d0a72c84e93b115" x="190.869141"/>
<use xlink:href="#c_7a2040fe3b94fcd41d0a72c84e93b115" x="254.492188"/>
</g>
</g>
</g>
<g id="ytick13">
<g id="line2d50">
<g ><use style="fill: none; stroke: #000000; stroke-width: 0.500000; stroke-linejoin: round; stroke-linecap: butt;  opacity: 1.000000" xlink:href="#m20b58b2501143cb5e0a5e8f1ef6f1643" x="648.000000" y="364.000000"/>
</g></g>
<g id="text23">
<g style="fill: #000000; opacity: 1.000000" transform="translate(652.000000,368.367188)scale(0.120000)">
<use xlink:href="#c_42baa63129a918535c52adb20d687ea7"/>
<use xlink:href="#c_7a2040fe3b94fcd41d0a72c84e93b115" x="63.623047"/>
<use xlink:href="#c_7a2040fe3b94fcd41d0a72c84e93b115" x="127.246094"/>
<use xlink:href="#c_7a2040fe3b94fcd41d0a72c84e93b115" x="190.869141"/>
<use xlink:href="#c_7a2040fe3b94fcd41d0a72c84e93b115" x="254.492188"/>
<use xlink:href="#c_7a2040fe3b94fcd41d0a72c84e93b115" x="318.115234"/>
</g>
</g>
</g>
<g id="ytick14">
<g id="line2d51">
<g ><use style="fill: none; stroke: #000000; stroke-width: 0.500000; stroke-linejoin: round; stroke-linecap: butt;  opacity: 1.000000" xlink:href="#m20b58b2501143cb5e0a5e8f1ef6f1643" x="648.000000" y="319.200000"/>
</g></g>
<g id="text24">
<g style="fill: #000000; opacity: 1.000000" transform="translate(652.000000,323.567187)scale(0.120000)">
<use xlink:href="#c_42baa63129a918535c52adb20d687ea7"/>
<use xlink:href="#c_1260a2df50f305f3db244e29828f968e" x="63.623047"/>
<use xlink:href="#c_7a2040fe3b94fcd41d0a72c84e93b115" x="127.246094"/>
<use xlink:href="#c_7a2040fe3b94fcd41d0a72c84e93b115" x="190.869141"/>
<use xlink:href="#c_7a2040fe3b94fcd41d0a72c84e93b115" x="254.492188"/>
<use xlink:href="#c_7a2040fe3b94fcd41d0a72c84e93b115" x="318.115234"/>
</g>
</g>
</g>
<g id="ytick15">
<g id="line2d52">
<g ><use style="fill: none; stroke: #000000; stroke-width: 0.500000; stroke-linejoin: round; stroke-linecap: butt;  opacity: 1.000000" xlink:href="#m20b58b2501143cb5e0a5e8f1ef6f1643" x="648.000000" y="274.400000"/>
</g></g>
<g id="text25">
<g style="fill: #000000; opacity: 1.000000" transform="translate(652.000000,278.767187)scale(0.120000)">
<use xlink:href="#c_ed3f3ed3ebfbd18bcb9c012009a68ad1"/>
<use xlink:href="#c_7a2040fe3b94fcd41d0a72c84e93b115" x="63.623047"/>
<use xlink:href="#c_7a2040fe3b94fcd41d0a72c84e93b115" x="127.246094"/>
<use xlink:href="#c_7a2040fe3b94fcd41d0a72c84e93b115" x="190.869141"/>
<use xlink:href="#c_7a2040fe3b94fcd41d0a72c84e93b115" x="254.492188"/>
<use xlink:href="#c_7a2040fe3b94fcd41d0a72c84e93b115" x="318.115234"/>
</g>
</g>
</g>
<g id="ytick16">
<g id="line2d53">
<g ><use style="fill: none; stroke: #000000; stroke-width: 0.500000; stroke-linejoin: round; stroke-linecap: butt;  opacity: 1.000000" xlink:href="#m20b58b2501143cb5e0a5e8f1ef6f1643" x="648.000000" y="229.600000"/>
</g></g>
<g id="text26">
<g style="fill: #000000; opacity: 1.000000" transform="translate(652.000000,233.967187)scale(0.120000)">
<use xlink:href="#c_ed3f3ed3ebfbd18bcb9c012009a68ad1"/>
<use xlink:href="#c_1260a2df50f305f3db244e29828f968e" x="63.623047"/>
<use xlink:href="#c_7a2040fe3b94fcd41d0a72c84e93b115" x="127.246094"/>
<use xlink:href="#c_7a2040fe3b94fcd41d0a72c84e93b115" x="190.869141"/>
<use xlink:href="#c_7a2040fe3b94fcd41d0a72c84e93b115" x="254.492188"/>
<use xlink:href="#c_7a2040fe3b94fcd41d0a72c84e93b115" x="318.115234"/>
</g>
</g>
</g>
<g id="ytick17">
<g id="line2d54">
<g ><use style="fill: none; stroke: #000000; stroke-width: 0.500000; stroke-linejoin: round; stroke-linecap: butt;  opacity: 1.000000" xlink:href="#m20b58b2501143cb5e0a5e8f1ef6f1643" x="648.000000" y="184.800000"/>
</g></g>
<g id="text27">
<g style="fill: #000000; opacity: 1.000000" transform="translate(652.000000,189.167188)scale(0.120000)">
<use xlink:href="#c_3dcfa38a02242cb63ec6726c6e70be7a"/>
<use xlink:href="#c_7a2040fe3b94fcd41d0a72c84e93b115" x="63.623047"/>
<use xlink:href="#c_7a2040fe3b94fcd41d0a72c84e93b115" x="127.246094"/>
<use xlink:href="#c_7a2040fe3b94fcd41d0a72c84e93b115" x="190.869141"/>
<use xlink:href="#c_7a2040fe3b94fcd41d0a72c84e93b115" x="254.492188"/>
<use xlink:href="#c_7a2040fe3b94fcd41d0a72c84e93b115" x="318.115234"/>
</g>
</g>
</g>
<g id="ytick18">
<g id="line2d55">
<g ><use style="fill: none; stroke: #000000; stroke-width: 0.500000; stroke-linejoin: round; stroke-linecap: butt;  opacity: 1.000000" xlink:href="#m20b58b2501143cb5e0a5e8f1ef6f1643" x="648.000000" y="140.000000"/>
</g></g>
<g id="text28">
<g style="fill: #000000; opacity: 1.000000" transform="translate(652.000000,144.367188)scale(0.120000)">
<use xlink:href="#c_3dcfa38a02242cb63ec6726c6e70be7a"/>
<use xlink:href="#c_1260a2df50f305f3db244e29828f968e" x="63.623047"/>
<use xlink:href="#c_7a2040fe3b94fcd41d0a72c84e93b115" x="127.246094"/>
<use xlink:href="#c_7a2040fe3b94fcd41d0a72c84e93b115" x="190.869141"/>
<use xlink:href="#c_7a2040fe3b94fcd41d0a72c84e93b115" x="254.492188"/>
<use xlink:href="#c_7a2040fe3b94fcd41d0a72c84e93b115" x="318.115234"/>
</g>
</g>
</g>
<g id="ytick19">
<g id="line2d56">
<g ><use style="fill: none; stroke: #000000; stroke-width: 0.500000; stroke-linejoin: round; stroke-linecap: butt;  opacity: 1.000000" xlink:href="#m20b58b2501143cb5e0a5e8f1ef6f1643" x="648.000000" y="95.200000"/>
</g></g>
<g id="text29">
<g style="fill: #000000; opacity: 1.000000" transform="translate(652.000000,99.567187)scale(0.120000)">
<use xlink:href="#c_a0416418d96557a09b8c1332d34883ba"/>
<use xlink:href="#c_7a2040fe3b94fcd41d0a72c84e93b115" x="63.623047"/>
<use xlink:href="#c_7a2040fe3b94fcd41d0a72c84e93b115" x="127.246094"/>
<use xlink:href="#c_7a2040fe3b94fcd41d0a72c84e93b115" x="190.869141"/>
<use xlink:href="#c_7a2040fe3b94fcd41d0a72c84e93b115" x="254.492188"/>
<use xlink:href="#c_7a2040fe3b94fcd41d0a72c84e93b115" x="318.115234"/>
</g>
</g>
</g>
<g id="ytick20">
<g id="line2d57">
<g ><use style="fill: none; stroke: #000000; stroke-width: 0.500000; stroke-linejoin: round; stroke-linecap: butt;  opacity: 1.000000" xlink:href="#m20b58b2501143cb5e0a5e8f1ef6f1643" x="648.000000" y="50.400000"/>
</g></g>
<g id="text30">
<g style="fill: #000000; opacity: 1.000000" transform="translate(652.000000,54.767187)scale(0.120000)">
<use xlink:href="#c_a0416418d96557a09b8c1332d34883ba"/>
<use xlink:href="#c_1260a2df50f305f3db244e29828f968e" x="63.623047"/>
<use xlink:href="#c_7a2040fe3b94fcd41d0a72c84e93b115" x="127.246094"/>
<use xlink:href="#c_7a2040fe3b94fcd41d0a72c84e93b115" x="190.869141"/>
<use xlink:href="#c_7a2040fe3b94fcd41d0a72c84e93b115" x="254.492188"/>
<use xlink:href="#c_7a2040fe3b94fcd41d0a72c84e93b115" x="318.115234"/>
</g>
</g>
</g>
<g id="text31">
<g style="fill: #000000; opacity: 1.000000" transform="translate(710.750000,326.289062)rotate(-90.0)scale(0.120000)">
<use xlink:href="#c_52f6883aecfed366d5cb1d7f9841bb8c"/>
<use xlink:href="#c_d41d8cd98f00b204e9800998ecf8427e" x="83.789062"/>
<use xlink:href="#c_f05dd90d41f04bb96ef1ca503cc2044b" x="115.576172"/>
<use xlink:href="#c_73b12fe3945075d29fe0cc9a468fa31e" x="176.757812"/>
<use xlink:href="#c_d41d8cd98f00b204e9800998ecf8427e" x="211.962891"/>
<use xlink:href="#c_f0b2f1db24a99c7a6a1fa56820ca5a8a" x="243.750000"/>
<use xlink:href="#c_5cc9741494d2ad8f9764e03ae145569f" x="316.943359"/>
<use xlink:href="#c_c438d87e693443c2861ebd6359e6491e" x="380.419922"/>
<use xlink:href="#c_fe791a90f5471e2ab20a5ed41a7fa451" x="443.798828"/>
<use xlink:href="#c_0f8c41144cfbf448378cb6fd1cc8e549" x="507.177734"/>
<use xlink:href="#c_c438d87e693443c2861ebd6359e6491e" x="546.386719"/>
<use xlink:href="#c_d41d8cd98f00b204e9800998ecf8427e" x="609.765625"/>
<use xlink:href="#c_6a63bda47b2f3da1cec6aadd80692cfe" x="641.552734"/>
<use xlink:href="#c_fe791a90f5471e2ab20a5ed41a7fa451" x="669.335938"/>
<use xlink:href="#c_8e0810ad13fe20a2a87a2619799b154d" x="732.714844"/>
<use xlink:href="#c_0f8c41144cfbf448378cb6fd1cc8e549" x="784.814453"/>
<use xlink:href="#c_01d93a582460e35a7945ca50d148ffeb" x="824.023438"/>
<use xlink:href="#c_5099edb83619131346ae654950954dea" x="885.302734"/>
<use xlink:href="#c_5099edb83619131346ae654950954dea" x="913.085938"/>
<use xlink:href="#c_01d93a582460e35a7945ca50d148ffeb" x="940.869141"/>
<use xlink:href="#c_0f8c41144cfbf448378cb6fd1cc8e549" x="1002.148438"/>
<use xlink:href="#c_6a63bda47b2f3da1cec6aadd80692cfe" x="1041.357422"/>
<use xlink:href="#c_f05dd90d41f04bb96ef1ca503cc2044b" x="1069.140625"/>
<use xlink:href="#c_fe791a90f5471e2ab20a5ed41a7fa451" x="1130.322266"/>
<use xlink:href="#c_8e0810ad13fe20a2a87a2619799b154d" x="1193.701172"/>
</g>
</g>
</g>
</g>
</g>
</svg>
