<?xml version="1.0" standalone="no"?>
<!DOCTYPE svg PUBLIC "-//W3C//DTD SVG 1.1//EN"
  "http://www.w3.org/Graphics/SVG/1.1/DTD/svg11.dtd">
<!-- Created with matplotlib (http://matplotlib.sourceforge.net/) -->
<svg width="720pt" height="504pt" viewBox="0 0 720 504"
   xmlns="http://www.w3.org/2000/svg"
   xmlns:xlink="http://www.w3.org/1999/xlink"
   version="1.1"
   id="svg1">
<filter id="colorAdd"><feComposite in="SourceGraphic" in2="BackgroundImage" operator="arithmetic" k2="1" k3="1"/></filter>
<g id="figure1">
<g id="patch1">
<path style="fill: #ffffff; stroke: #ffffff; stroke-width: 1.000000; stroke-linejoin: round; stroke-linecap: square;  opacity: 1.000000"  d="M0.000000 504.000000L720.000000 504.000000L720.000000 0.000000
L0.000000 0.000000z"/>
</g>
<g id="axes1">
<g id="patch2">
<path style="fill: #ffffff; opacity: 1.000000"  d="M90.000000 453.600000L648.000000 453.600000L648.000000 50.400000
L90.000000 50.400000z"/>
</g>
<g id="line2d1">
<defs>
  <clipPath id="p6d54bdcfc682fd2a5eb67e424bad820e">
<rect x="90.000000" y="50.400000" width="558.000000" height="403.200000"/>
  </clipPath>
</defs><path style="fill: none; stroke: #ff0000; stroke-width: 3.000000; stroke-linejoin: round; stroke-linecap: square;  opacity: 1.000000" clip-path="url(#p6d54bdcfc682fd2a5eb67e424bad820e)" d="M90.000000 453.521671L115.788725 453.466805L116.355510 453.400623
L120.323007 453.337820L120.606399 453.272227L120.889792 453.075985
L121.173184 451.907223L121.456577 451.841860L121.739970 451.646086
L122.023362 451.646654L122.590147 451.386690L122.873540 451.258367
L123.156932 450.872055L123.723718 450.881710L124.007110 450.621535
L124.290503 450.618303L124.857288 450.365109L125.140681 449.671305
L125.707466 449.369049L126.841036 449.138166L127.691214 448.432829
L128.257999 448.012556L128.541392 447.517559L128.824784 447.479269
L129.108177 446.901862L129.674962 446.741439L130.241747 446.141039
L130.525140 446.223997L131.091925 446.254257L132.792280 445.953027
L133.075673 445.669248L133.359066 445.750552L133.925851 445.654372
L134.776028 445.488539L135.059421 445.049409L135.626206 445.084927
L136.192991 444.993270L137.326562 444.719975L138.460132 444.251200
L139.026917 444.333666L139.877095 444.128886L140.727273 444.123962
L141.010665 443.803848L141.860843 443.666400L142.144236 443.349017
L142.711021 443.326236L142.994413 442.953412L144.694769 442.525373
L144.978162 442.179075L145.828339 442.254329L146.111732 442.164103
L146.678517 442.187617L147.245302 441.994436L148.378873 442.216332
L148.662265 442.076851L148.945658 440.807084L149.229050 440.921689
L149.512443 440.860898L150.079228 440.889728L150.646013 440.836608
L150.929406 440.450030L151.496191 440.291386L152.062976 440.207311
L153.479939 439.743836L154.046724 439.985747L154.330117 439.993027
L155.180295 440.250182L155.463687 440.040707L156.030472 440.103608
L156.313865 439.930293L156.597257 440.008727L156.880650 441.066284
L157.730828 441.062518L158.581006 440.979645L158.864398 440.659425
L159.431183 440.721425L159.714576 440.646859L159.997969 440.753482
L161.131539 440.774095L161.414931 440.781056L161.698324 440.929293
L162.548502 440.534529L163.115287 440.620174L164.532250 440.489668
L164.815642 440.710632L166.799391 440.868277L167.082783 440.847401
L167.366176 441.033492L167.932961 441.042186L168.216353 441.061996
L168.499746 441.244318L168.783139 440.936100L169.633316 440.824044
L170.200102 441.041550L170.483494 441.018481L170.766887 440.587318
L171.050279 440.657736L171.900457 440.409984L173.034027 440.448164
L173.317420 440.411016L173.600813 440.505023L173.884205 440.346498
L175.867953 440.273041L176.434738 440.303427L177.001524 440.445188
L178.135094 440.298966L178.985272 440.181392L179.268664 440.056077
L180.402235 439.981417L181.819198 439.411459L182.385983 439.529510
L182.669375 439.311482L182.952768 439.290802L183.236160 439.387198
L183.802946 439.196056L184.086338 439.282346L184.369731 439.238056
L184.653123 438.836189L184.936516 438.654830L185.503301 438.626965
L186.070086 438.686142L186.353479 438.595728L186.920264 438.684423
L187.487049 438.652518L187.770442 438.584424L188.053834 438.371052
L188.337227 438.393616L188.620620 438.053407L188.904012 437.988469
L189.470797 438.132160L190.037583 438.057113L190.604368 438.007197
L191.171153 437.968377L191.737938 437.958528L192.021331 437.857014
L192.304723 438.082122L192.588116 438.162998L192.871508 438.045723
L193.721686 438.083388L194.005079 438.177831L194.571864 438.068702
L196.555612 438.129063L197.405790 439.079842L198.822753 440.347022
L199.389538 440.651646L200.806501 441.121169L201.089893 441.069221
L201.940071 441.231990L202.506856 441.279372L202.790249 441.242022
L203.357034 440.883618L204.207212 440.684012L204.773997 440.631336
L205.340782 440.506400L205.624175 440.609966L205.907567 440.580428
L206.190960 440.673402L206.474352 441.049861L208.174708 441.169963
L208.458101 441.440708L209.024886 441.477803L209.308278 441.627472
L209.875063 441.503297L210.441849 441.511756L211.008634 441.454590
L216.109700 441.106906L216.393093 441.175573L217.526663 441.042799
L218.093448 441.002518L218.376841 440.894496L218.660234 441.003063
L218.943626 440.853556L220.360589 440.811073L220.643982 440.669240
L220.927374 440.130435L221.210767 439.849282L221.777552 439.844063
L222.627730 439.644805L223.194515 439.285226L223.761300 438.900999
L224.328085 438.750669L225.461656 438.226787L225.745048 438.137432
L226.595226 438.105741L229.145759 437.516490L229.429152 437.327939
L229.712544 437.292555L229.995937 437.084232L230.279330 436.389916
L231.979685 435.225699L232.263078 434.744664L232.546470 434.666501
L233.963433 434.941319L234.530218 435.400215L234.813611 435.553906
L235.097004 435.569017L235.663789 435.798274L235.947181 435.737173
L236.230574 435.972491L236.513966 435.909395L237.080752 436.132144
L237.364144 436.075196L238.214322 436.417798L238.781107 436.543149
L239.064500 436.391813L239.914678 436.337535L240.198070 436.482636
L241.898426 436.487018L242.181818 436.844704L242.465211 436.870468
L243.031996 436.690114L244.165566 436.737736L244.732351 436.601587
L245.582529 436.617729L246.149314 436.591214L246.716100 436.599364
L249.833418 436.394426L250.116811 435.896129L251.817166 435.565270
L252.667344 435.511028L253.234129 435.437301L253.800914 435.510886
L254.084307 435.316168L256.068055 435.229725L257.201625 434.988841
L258.335196 434.921616L259.752158 434.873333L260.318944 435.004067
L263.152869 434.411690L263.719655 434.340873L264.286440 434.169138
L266.270188 433.939162L267.120366 434.332285L269.670899 434.468055
L270.237684 434.490844L271.087862 434.402742L271.938040 434.258095
L272.504825 434.215943L273.921788 434.003230L274.205180 434.166623
L276.755714 434.076721L278.739462 434.325795L280.439817 434.258039
L281.006602 434.045500L281.573388 434.037313L282.990350 434.208240
L283.840528 434.022146L284.123921 433.671683L284.407313 433.550599
L284.690706 433.679128L285.540884 433.636558L285.824276 433.315801
L286.674454 433.263788L287.524632 433.195747L288.374810 433.021558
L288.941595 433.055168L289.508380 433.028030L289.791772 432.815128
L290.358558 432.711064L290.925343 432.653536L291.492128 432.656134
L291.775521 432.596702L295.176232 432.400953L295.459624 432.550467
L297.443372 432.341199L298.010157 432.050633L300.844083 431.561515
L302.261046 431.421782L303.111224 431.258046L303.394617 431.263057
L303.678009 431.002613L305.661757 430.655000L307.078720 430.417037
L309.062468 430.410585L309.345861 430.257746L309.629253 430.445225
L309.912646 430.321073L310.196039 430.378668L311.046216 430.181921
L312.463179 429.973317L313.029964 429.944583L313.313357 429.883321
L313.596750 429.989404L313.880142 429.805856L315.013713 429.777588
L315.580498 429.528494L316.147283 429.400736L316.714068 429.403853
L317.280853 429.284418L317.564246 429.160503L318.414424 429.103826
L319.264601 428.887178L319.547994 428.514051L319.831386 428.474377
L320.114779 428.604805L320.681564 428.481868L322.098527 428.512239
L323.232098 428.421217L323.515490 428.493763L323.798883 428.415763
L324.365668 428.019753L324.932453 427.878906L325.215846 427.964909
L325.499238 428.194646L326.916201 427.687541L327.199594 427.688623
L327.482986 427.309519L328.049771 427.281672L328.616557 427.179793
L328.899949 426.925245L329.183342 426.895724L329.466734 427.135815
L329.750127 427.178263L330.316912 426.897934L330.600305 426.732071
L330.883697 426.806600L331.450482 426.527945L332.584053 425.684012
L333.434231 425.279917L334.284408 424.649577L334.567801 424.592893
L335.417979 423.794621L335.984764 423.609432L336.268156 423.520294
L336.834942 423.116580L337.118334 423.063190L337.401727 422.826306
L337.968512 422.654718L338.251905 422.454774L338.535297 422.421490
L338.818690 422.196117L339.385475 422.079060L339.668867 421.917791
L339.952260 421.917123L340.519045 421.541537L340.802438 421.313753
L341.085830 421.253645L341.369223 420.655153L343.069578 420.284771
L343.352971 420.684422L343.919756 420.693733L344.203149 420.492292
L344.486541 420.540110L345.053327 420.501944L345.336719 420.042776
L345.620112 420.126225L346.753682 419.854742L347.320467 419.862079
L347.887252 419.609245L348.170645 419.654738L348.737430 419.437169
L349.587608 419.184106L349.871001 419.016149L350.437786 418.977569
L351.004571 418.766055L351.287963 418.818369L351.571356 418.690909
L352.138141 418.727382L355.822245 417.943739L356.672423 418.124746
L356.955815 418.014313L358.939563 417.755950L359.222956 417.406952
L359.506348 417.321101L360.356526 417.394350L361.490096 417.179699
L361.773489 417.243700L362.907059 416.913439L363.473845 416.896061
L364.040630 416.510749L364.890808 416.506070L365.174200 416.762207
L366.024378 416.357148L366.874556 416.284468L367.157948 415.629707
L367.441341 415.635805L368.291519 415.177639L368.858304 414.989785
L370.842052 414.139939L371.125444 414.193454L371.408837 413.994799
L371.692230 414.035426L371.975622 413.820159L372.542407 413.597583
L373.109192 413.225298L374.242763 413.185923L374.526155 413.415195
L375.376333 413.280454L375.659726 413.409156L376.793296 413.338712
L377.360081 413.061971L377.643474 412.984504L377.926866 413.149941
L378.210259 413.179816L378.493652 412.960866L379.343829 412.723585
L380.477400 412.294673L380.760792 412.275955L381.327577 412.003421
L381.610970 411.936574L382.177755 411.693741L382.744540 411.614850
L383.311326 411.541651L383.594718 411.447230L383.878111 411.145523
L384.444896 411.205186L384.728288 410.932804L385.011681 410.502474
L388.695785 408.622327L388.979177 409.173059L389.545962 409.241944
L390.396140 409.071607L390.679533 409.029123L391.813103 407.570157
L392.663281 407.190807L392.946673 406.604906L393.230066 406.442675
L393.513459 406.431304L394.080244 406.193049L394.647029 406.035166
L395.213814 405.204383L395.497207 404.758981L396.063992 403.027085
L396.630777 400.844890L396.914170 400.078609L398.047740 395.216993
L398.614525 393.187991L399.181310 391.169553L401.448451 385.716219
L404.282377 381.728342L404.849162 378.620743L405.415947 374.309561
L406.549518 362.885535L407.399695 357.958251L407.683088 356.186303
L407.966480 355.212019L410.800406 340.974390L412.500762 335.893528
L413.350940 334.023576L413.634332 333.963607L414.201117 332.970709
L414.484510 332.795603L414.767902 332.015070L415.051295 331.751308
L415.618080 330.864014L415.901473 330.618991L417.318436 328.450669
L418.168614 327.906117L418.452006 327.462194L418.735399 326.790886
L420.435754 325.273818L421.002539 324.329988L421.569325 324.193357
L422.419502 323.373507L422.986287 322.698663L423.269680 322.609741
L423.553073 322.667747L423.836465 322.489376L424.119858 322.994644
L424.686643 322.494024L424.970036 322.071443L425.536821 321.723542
L425.820213 321.504265L426.103606 320.883085L426.386998 320.542391
L426.953784 320.322085L427.520569 319.681675L428.370747 319.125705
L428.654139 318.626186L428.937532 318.606675L429.220924 318.853734
L429.504317 318.614816L429.787709 318.687142L430.071102 318.519188
L430.354495 318.578750L430.921280 317.508673L431.771458 317.184702
L432.054850 317.300244L432.338243 317.694730L432.621635 317.392877
L432.905028 317.437221L433.471813 317.022963L434.321991 316.871898
L434.888776 316.823127L435.172169 316.536205L435.738954 316.752433
L436.022346 316.523016L436.589132 315.668886L436.872524 315.678802
L437.155917 315.330247L437.439309 315.390707L437.722702 315.266193
L439.139665 313.541075L439.989843 313.314193L440.273235 312.936208
L440.556628 312.828201L440.840020 313.042776L441.123413 313.030146
L441.690198 312.622626L442.256983 312.949024L442.823768 312.190010
L443.390554 312.268785L443.673946 312.121210L444.240731 311.625516
L445.090909 310.923001L445.657694 310.440865L446.224479 310.113210
L446.507872 309.402684L446.791265 309.104024L447.074657 309.006987
L447.358050 308.770021L447.641442 308.885913L447.924835 308.782966
L448.208228 308.376178L448.775013 307.848899L449.058405 307.508502
L449.625190 307.447808L449.908583 307.550317L450.191976 307.492300
L450.475368 307.053188L450.758761 307.051490L451.892331 306.287807
L452.175724 306.468369L452.459116 306.414691L452.742509 306.188615
L453.025901 306.228796L453.309294 306.056913L453.876079 306.086295
L454.159472 306.412083L454.442864 306.232462L454.726257 306.365060
L455.009650 306.200435L455.576435 306.125388L456.143220 305.738007
L456.426612 305.373908L457.276790 305.836714L457.560183 305.633008
L457.843575 305.860472L458.410361 305.324113L458.977146 304.623063
L459.827324 304.044800L460.110716 303.643982L460.394109 303.476345
L460.960894 302.979266L461.527679 302.789637L462.094464 302.307010
L463.511427 301.706396L463.794820 301.714653L464.078212 302.169511
L464.361605 301.936657L464.644997 301.924845L464.928390 301.699423
L466.061960 302.108015L466.345353 301.740382L467.195531 301.244987
L467.762316 301.426648L468.045708 301.402740L468.329101 300.986660
L468.612494 300.796059L469.179279 300.878551L469.462671 300.512000
L470.029457 300.290335L470.312849 299.671950L470.879634 299.443628
L471.446420 298.988481L471.729812 299.206446L472.013205 299.044287
L472.296597 299.121049L472.863382 298.681582L473.146775 298.757204
L473.430168 298.546368L473.996953 298.479250L474.563738 297.542251
L475.130523 297.440914L475.980701 297.456515L476.264093 297.077841
L476.830879 296.821035L477.114271 296.610259L477.397664 296.540254
L477.681056 296.264129L477.964449 296.652557L478.247842 296.240775
L478.531234 296.166490L479.098019 295.577575L479.381412 295.067172
L479.664804 294.888901L480.514982 293.925866L481.081767 293.864232
L481.365160 293.395710L481.648553 293.544912L482.215338 293.225341
L482.782123 293.349414L483.348908 292.693206L483.632301 291.958946
L483.915693 291.620287L485.049264 290.967039L485.332656 291.144809
L485.899441 291.150056L486.749619 290.561189L487.033012 290.740753
L489.583545 290.293754L489.866938 290.359731L490.433723 289.854315
L490.717115 289.559945L491.000508 289.776012L491.283900 289.691670
L491.567293 289.420183L492.417471 289.810605L492.700863 289.864509
L492.984256 289.564046L493.834434 289.276112L494.117826 289.171589
L494.401219 289.356776L494.968004 289.104868L495.251397 288.898160
L495.534789 288.932063L495.818182 289.250016L496.384967 289.348369
L496.668360 289.560661L496.951752 289.428006L497.235145 289.762017
L497.518537 289.888572L498.085322 289.471103L498.368715 289.097131
L499.502285 289.211307L500.069071 289.526294L500.635856 289.387885
L500.919248 289.662537L501.202641 289.367483L501.486034 289.656132
L501.769426 289.681483L502.052819 289.511672L502.902996 289.770057
L503.186389 289.717009L503.469782 289.984661L504.319959 289.232582
L504.886745 289.018942L505.170137 289.198675L505.736922 289.273097
L506.303707 288.741118L506.587100 288.484455L507.153885 288.833878
L507.720670 288.951185L508.004063 289.131443L508.854241 288.844332
L509.137633 288.610290L509.421026 288.181000L509.704418 288.269521
L509.987811 287.966197L510.271204 288.082156L510.837989 287.741495
L511.121381 287.940679L511.404774 288.001057L511.688167 287.448344
L511.971559 287.270848L512.254952 287.284605L513.388522 286.605506
L514.238700 285.260606L514.522092 285.093337L515.088878 284.588310
L515.372270 284.515910L515.655663 284.575639L516.505841 283.449307
L517.072626 282.977691L517.639411 282.838125L518.206196 282.336960
L518.772981 282.283258L519.339766 281.566987L519.623159 281.671500
L519.906552 281.931659L520.189944 281.623445L520.473337 281.630939
L521.040122 281.048901L521.323514 280.968173L523.023870 279.512301
L523.307263 278.986115L524.157440 278.266979L524.440833 278.128979
L525.007618 278.292891L525.574403 278.066836L526.141188 277.594763
L527.274759 276.676517L527.558151 276.650819L527.841544 276.488952
L528.124937 276.664168L528.408329 277.065303L528.691722 277.215491
L529.258507 277.033245L529.541899 276.894094L531.525648 277.240505
L532.375825 277.133556L532.659218 277.242814L532.942610 277.505229
L533.226003 277.535317L533.509396 277.747032L533.792788 277.539154
L534.359573 276.844794L534.642966 276.607308L535.493144 277.084285
L535.776536 276.609749L536.059929 276.987747L536.343321 277.008881
L536.626714 276.731864L537.193499 276.956406L537.476892 277.009591
L537.760284 276.591439L538.043677 276.608611L538.327070 276.364908
L538.610462 276.440423L538.893855 276.028779L539.177247 275.968760
L539.744033 276.230429L540.027425 275.821901L540.877603 276.074615
L541.444388 275.999837L542.294566 275.031135L542.577958 275.002265
L543.428136 274.056898L544.278314 273.693336L545.411884 273.722205
L545.695277 273.348956L545.978669 273.217062L546.262062 272.704704
L546.545455 272.515759L546.828847 271.868507L547.395632 271.319427
L547.679025 270.999951L548.245810 270.880619L548.812595 270.221245
L549.662773 268.809173L549.946166 268.848445L550.229558 268.701863
L550.512951 268.722384L551.363128 267.931104L551.929914 267.384314
L552.780091 267.143703L553.063484 267.156140L553.346877 266.872295
L553.913662 266.752554L554.197054 266.164076L554.480447 266.009670
L555.047232 266.034599L555.330625 265.788199L555.897410 265.046489
L556.464195 265.172685L556.747588 264.871727L557.314373 264.864158
L557.881158 264.653859L558.164551 264.424706L558.447943 263.951892
L559.298121 263.603868L559.864906 262.998779L560.148299 263.015747
L560.715084 262.712041L560.998476 261.999799L562.132047 261.356774
L562.415439 261.052933L563.265617 260.678866L563.832402 260.034458
L564.115795 260.096665L564.399187 259.825349L564.682580 259.788396
L565.249365 259.108053L565.816150 258.802041L566.666328 257.413631
L567.516506 257.000757L567.799898 256.415293L568.083291 256.354856
L569.500254 255.277881L569.783647 255.213375L570.633824 254.321314
L570.917217 254.396226L571.767395 254.013292L572.050787 253.749438
L572.334180 253.707570L572.900965 252.857967L575.168106 249.684125
L575.451498 248.921479L576.018283 248.127378L576.585069 247.748170
L577.151854 247.021726L577.718639 246.172298L578.002031 245.822068
L578.285424 245.698794L578.568817 245.450354L579.135602 244.828503
L580.269172 243.689600L580.552565 243.396235L581.402743 243.683388
L582.536313 242.726511L583.103098 242.678337L583.669883 242.046821
L583.953276 241.921345L584.236668 242.062183L584.520061 241.702112
L584.803454 241.747298L585.653631 240.527004L585.937024 240.326090
L586.220416 239.940510L587.070594 237.411952L587.353987 236.884400
L587.920772 236.564739L589.054342 234.763735L589.337735 234.582943
L589.904520 231.795852L590.187913 231.175889L590.471305 231.017940
L592.455053 227.890216L593.021838 227.358466L593.305231 226.696792
L593.872016 222.134924L595.855764 202.096529L596.989335 192.101118
L597.556120 186.595859L598.406298 180.314754L599.256475 173.907173
L599.823261 175.811749L600.106653 174.550307L600.390046 174.044907
L601.240223 170.566129L601.807009 167.849214L603.507364 161.226537
L604.074149 158.855519L606.624683 158.855519L606.908075 150.088688
L608.608431 146.024283L609.175216 145.548117L609.458608 144.977017
L610.308786 142.795973L611.158964 140.922147L611.442357 140.586453
L611.725749 139.993191L612.292534 138.443109L612.575927 137.792134
L613.426105 135.265212L613.992890 133.879119L614.559675 132.705764
L615.126460 131.394056L615.693245 129.939944L616.826816 128.237106
L617.393601 126.915775L617.676993 126.365654L618.527171 123.578618
L618.810564 123.445590L619.093956 122.560713L619.944134 121.190928
L620.510919 119.971346L620.794312 119.142745L621.361097 118.148023
L621.927882 116.952839L622.211275 116.393664L622.494667 116.126883
L622.778060 116.015017L623.061453 115.686663L623.344845 115.146127
L623.628238 114.973895L623.911630 114.283143L624.195023 114.276752
L624.761808 113.786747L626.178771 111.481851L626.462164 111.357698
L627.028949 110.702352L627.879126 109.625576L628.162519 109.479977
L628.445912 109.034820L629.012697 108.711435L631.279837 104.968284
L631.563230 104.947518L631.846623 104.553083L632.413408 104.205727
L633.263586 103.227689L633.546978 103.123810L634.397156 101.576237
L634.680549 101.080996L634.963941 101.290072L635.247334 101.055772
L635.530726 100.575756L635.814119 100.350838L636.097511 99.820882
L636.947689 99.398665L637.514474 98.422963L638.081260 98.358964
L638.364652 98.195621L638.931437 97.360512L639.214830 97.659271
L639.781615 97.544024L640.631793 97.803827L640.915185 96.745616
L641.481971 98.340967L642.048756 98.085028L642.332148 97.524402
L642.615541 97.480709L642.898933 96.675788L643.465719 95.841461
L643.749111 95.653462L644.315896 94.629446L644.599289 94.950967
L644.882682 94.785777L645.166074 94.909000L645.732859 94.004021
L646.016252 94.009851L646.299644 93.577353L646.866430 93.259629
L647.149822 91.745312L647.433215 90.835896L648.000000 90.509895
L648.000000 90.509895"/>
</g>
<g id="line2d2">
<path style="fill: none; stroke: #ff0000; stroke-width: 2.000000; stroke-linejoin: round; stroke-linecap: butt; stroke-dasharray: 6.000000,6.000000; stroke-dashoffset: 0.000000; opacity: 1.000000" clip-path="url(#p6d54bdcfc682fd2a5eb67e424bad820e)" d="M90.000000 427.281616L90.283393 427.394308L90.566785 427.433144
L90.850178 427.309012L91.133570 427.366116L91.416963 427.736082
L92.550533 427.624530L94.817674 427.750956L95.101067 427.953000
L95.384459 428.295954L97.084815 428.144621L97.368207 428.486010
L98.785170 428.632711L99.068563 428.612815L99.351955 428.806654
L99.918740 428.897530L100.485526 428.645755L100.768918 428.794272
L101.052311 428.683347L101.335703 428.861187L102.185881 428.892552
L103.602844 428.883244L104.453022 429.054945L105.303200 429.149112
L105.586592 429.211012L107.003555 429.042552L107.286948 429.181873
L107.570340 429.105136L108.137125 429.294205L108.420518 429.344563
L108.987303 429.179988L109.270696 429.470126L110.971051 429.290186
L111.254444 429.630143L111.537836 429.742610L112.104622 429.810004
L112.671407 430.013979L112.954799 429.973361L113.238192 430.170788
L114.938547 430.194776L115.221940 430.064916L115.505333 430.071918
L116.072118 429.912491L116.355510 430.073520L116.922296 430.031535
L118.339259 430.157948L119.189436 430.588659L119.472829 429.404992
L120.889792 429.888325L121.173184 430.096439L121.739970 429.827375
L122.590147 429.969660L122.873540 429.858439L123.156932 430.217615
L123.440325 430.097935L123.723718 429.782606L124.290503 430.200159
L124.857288 430.373485L125.140681 429.963427L125.424073 430.489016
L125.707466 430.778508L125.990858 430.871199L126.274251 431.088399
L126.841036 431.035868L127.974606 431.893659L128.257999 431.940807
L128.541392 431.778459L128.824784 431.990074L129.108177 431.769032
L129.391569 431.688975L130.808532 431.963114L131.091925 432.225092
L131.375317 432.295244L131.658710 432.690338L132.508888 432.929930
L132.792280 432.911677L133.359066 433.133290L133.925851 433.184957
L134.492636 433.354345L134.776028 433.465169L135.626206 433.355554
L135.909599 433.210762L136.476384 433.321898L136.759777 433.191765
L137.043169 433.450903L137.893347 433.096442L138.460132 433.032640
L138.743525 433.188977L139.026917 433.595620L140.727273 433.889841
L141.010665 433.472386L141.294058 433.407548L141.577450 433.649771
L141.860843 433.572582L142.144236 433.311596L142.994413 433.413647
L146.111732 433.241026L146.678517 433.282888L146.961910 433.856087
L147.528695 433.877205L148.095480 434.052919L148.378873 434.192601
L148.945658 434.013946L149.795835 434.192773L150.362621 434.195801
L150.929406 434.362081L152.629761 434.136475L152.913154 434.340995
L153.763332 434.295643L154.613509 434.522946L154.896902 434.749804
L155.180295 434.711428L155.463687 434.513050L156.597257 434.656000
L156.880650 436.016069L158.581006 436.049111L158.864398 435.626980
L159.714576 435.510269L160.564754 435.417713L160.848146 435.301627
L161.698324 435.631436L162.265109 435.481134L162.548502 435.458417
L162.831894 435.704502L163.115287 435.785407L163.682072 435.734374
L164.532250 435.864987L164.815642 436.134277L165.949213 436.446386
L166.515998 436.622054L166.799391 436.530656L167.082783 436.569884
L167.649568 436.857503L168.216353 437.129269L168.499746 437.254865
L168.783139 437.102075L169.916709 437.246859L171.050279 437.524739
L171.333672 437.332051L171.900457 437.425651L172.467242 437.597390
L172.750635 437.929144L173.884205 437.920791L175.584561 437.898628
L176.151346 437.775851L176.718131 437.930737L177.284916 438.016521
L178.135094 437.949778L180.969020 438.320567L181.535805 438.186792
L183.519553 438.536197L183.802946 438.449415L184.369731 438.589452
L185.219909 438.278734L186.353479 438.381381L186.920264 438.440904
L187.770442 438.342237L188.337227 438.333273L188.620620 438.143445
L190.320975 438.202678L190.887760 438.235827L192.304723 438.425691
L192.588116 438.646292L193.438294 438.572392L195.138649 438.764186
L195.705434 438.852277L196.555612 438.758853L198.539360 441.002460
L199.956323 441.865431L200.523108 442.297132L202.223464 442.647520
L202.790249 442.789099L203.357034 442.566669L205.340782 442.292728
L205.907567 442.471846L207.041138 442.817244L208.174708 442.976342
L208.458101 443.423009L210.158456 443.609781L210.725241 443.783611
L211.858812 443.733824L213.842560 443.791201L214.692737 443.836801
L215.542915 443.852495L216.109700 443.975814L216.676486 444.048538
L218.376841 444.005380L220.360589 444.056747L220.643982 443.914037
L220.927374 443.385043L221.210767 443.114072L221.494159 443.158420
L222.060945 443.100376L222.627730 443.181395L223.477908 442.751770
L223.761300 443.134950L224.328085 443.152834L224.611478 443.257118
L225.178263 443.279481L226.311833 443.497424L226.595226 443.757335
L227.162011 443.846044L227.445404 443.795059L228.295582 443.912829
L230.562722 444.275600L231.129507 444.303003L231.696293 444.378624
L232.546470 444.411684L233.680041 444.404421L235.097004 444.386867
L235.663789 444.456524L236.230574 444.410872L237.930929 444.556487
L238.497715 444.748317L239.064500 444.669719L239.914678 444.607326
L240.481463 444.704603L241.331640 444.703445L241.898426 444.752858
L242.181818 444.884430L246.999492 444.491118L249.266633 444.569091
L257.768410 444.272543L258.335196 444.326208L259.752158 444.347437
L260.318944 444.386266L262.302692 444.111834L266.553580 443.770767
L267.403758 444.122855L269.387506 444.096718L270.521077 444.185521
L271.654647 444.124464L271.938040 443.999451L274.205180 444.063967
L274.771965 444.116006L275.338751 444.021074L275.905536 444.055729
L276.755714 444.119047L279.589639 444.329689L279.873032 444.452439
L281.006602 444.300426L282.706958 444.331034L283.273743 444.332233
L283.840528 444.163021L284.123921 443.891944L284.407313 443.795426
L285.257491 443.866411L286.391061 443.800666L287.524632 443.906796
L288.658202 443.796885L289.508380 443.749962L290.075165 443.571467
L291.775521 443.631936L295.459624 443.813005L296.026409 444.011634
L298.576943 443.655507L301.694261 443.422451L302.261046 443.474418
L303.111224 443.436289L303.678009 443.469746L304.244794 443.459814
L304.528187 443.544571L306.511935 443.386493L309.345861 443.323964
L309.629253 443.437816L309.912646 443.347269L310.479431 443.323363
L318.131031 443.522232L318.697816 443.626124L319.264601 443.568062
L319.547994 443.429698L323.232098 443.199807L324.082275 443.042300
L326.066023 442.831510L326.916201 442.687620L328.333164 442.744588
L329.183342 442.703702L330.033520 442.759509L330.600305 442.640084
L331.450482 442.692153L332.017268 442.527620L333.434231 442.279154
L335.134586 442.066895L335.417979 442.035900L335.701371 442.117939
L336.268156 442.088611L337.118334 442.153224L337.401727 442.041749
L337.968512 442.052892L340.802438 441.649199L342.219401 441.771072
L342.786186 441.680788L348.737430 441.834857L349.304215 441.745764
L350.437786 441.681377L351.004571 441.677598L351.854749 441.601502
L352.704926 441.710403L358.939563 441.573230L359.789741 441.469864
L361.206704 441.466105L363.473845 441.544780L364.324022 441.418392
L364.607415 441.489613L365.174200 441.268228L365.740985 441.023851
L367.441341 441.170241L369.708481 440.687225L370.275267 440.571572
L371.125444 440.588511L371.408837 440.563664L371.975622 440.656035
L372.825800 440.610240L373.109192 440.480480L374.242763 440.634006
L374.809548 440.722010L380.194007 440.755670L383.878111 440.543940
L384.444896 440.649423L385.011681 440.599690L385.295074 440.659292
L385.861859 440.513167L389.262570 440.194552L390.112748 440.323998
L390.962925 440.137803L391.813103 439.845975L392.663281 439.875330
L392.946673 439.707686L394.647029 439.676221L394.930422 439.485736
L396.630777 439.384161L397.480955 439.464555L398.331133 439.511181
L398.897918 439.460844L400.031488 439.312358L400.881666 439.184303
L401.448451 439.260003L402.865414 439.140864L403.432199 439.126871
L405.415947 438.847797L405.982732 438.963636L407.116303 438.871838
L407.966480 438.993646L410.800406 438.658797L411.083799 438.602426
L411.367191 438.676469L412.784154 438.458617L415.051295 438.207481
L415.618080 438.058482L415.901473 438.186771L416.468258 438.110374
L416.751651 437.974835L417.885221 438.174144L419.018791 438.119130
L419.302184 437.985594L419.868969 438.014921L420.435754 437.985368
L420.719147 437.897734L421.285932 438.032799L423.836465 437.884035
L424.119858 438.031150L426.386998 437.681191L426.953784 437.470691
L427.520569 437.470225L428.937532 437.324736L430.354495 437.464452
L430.921280 437.418862L432.338243 437.648078L433.188421 437.660245
L434.888776 437.619050L435.455561 437.545529L436.305739 437.544571
L436.872524 437.422535L438.006094 437.355623L438.856272 437.560011
L439.706450 437.547761L440.273235 437.473691L440.556628 437.571262
L442.256983 437.412192L444.524124 437.412931L445.090909 437.273883
L445.657694 437.247771L446.224479 437.412019L446.791265 437.229578
L447.924835 437.244243L448.775013 437.166968L449.058405 437.230649
L449.908583 437.088229L450.758761 437.129908L451.608939 437.090648
L453.309294 436.977025L454.726257 437.005496L455.293042 436.890775
L456.143220 436.881314L456.426612 436.821437L458.410361 436.770131
L459.827324 436.478720L460.677501 436.422416L460.960894 436.544928
L462.094464 436.325106L462.661249 436.344607L464.078212 436.552808
L464.644997 436.522246L464.928390 436.578316L465.211783 436.505044
L466.061960 436.576050L466.628746 436.426793L470.029457 436.349148
L470.596242 436.160858L473.430168 436.073765L473.713560 436.158053
L474.847131 435.824247L475.697308 435.909280L476.264093 435.718047
L476.830879 435.810616L477.397664 435.826079L480.231590 435.764570
L480.798375 435.726555L481.081767 435.771659L481.365160 435.688642
L481.648553 435.758974L482.215338 435.513713L485.332656 435.476868
L486.182834 435.588242L486.749619 435.588796L487.316404 435.661274
L488.166582 435.547242L488.733367 435.654562L489.583545 435.619967
L489.866938 435.533688L490.150330 435.667517L490.717115 435.615969
L493.551041 435.487959L494.401219 435.393376L494.684611 435.459406
L494.968004 435.348930L495.818182 435.427109L497.235145 435.184407
L498.085322 435.196957L498.652108 435.055050L499.785678 435.063687
L501.202641 434.924796L502.336211 434.856459L504.036567 434.780313
L505.736922 434.664890L506.587100 434.523611L508.854241 434.677294
L509.137633 434.649011L509.704418 434.783090L510.554596 434.782394
L512.254952 434.689418L513.671915 434.784818L514.238700 434.681525
L518.206196 434.862931L519.339766 434.727714L519.906552 434.692763
L520.756729 434.666434L522.173692 434.510617L523.307263 434.552987
L523.874048 434.548435L524.157440 434.636365L525.007618 434.594798
L525.857796 434.479599L526.991366 434.494355L527.841544 434.500172
L528.124937 434.637348L528.975114 434.561409L529.258507 434.439314
L530.958862 434.515449L531.525648 434.443336L533.509396 434.566106
L534.359573 434.304232L534.926359 434.430388L536.343321 434.284249
L536.626714 434.117591L537.193499 434.054569L538.893855 434.123275
L539.744033 433.910248L540.027425 433.950256L540.310818 434.110300
L540.594210 434.046051L541.160995 434.194541L542.577958 433.996084
L544.561706 434.137986L545.128492 434.185574L545.411884 434.153752
L545.978669 434.284052L546.545455 434.264909L547.962417 434.107404
L548.529203 434.225516L549.095988 434.157196L549.946166 434.276470
L550.512951 434.207726L551.363128 434.250282L552.213306 434.157742
L552.496699 434.068718L553.063484 434.028869L559.864906 434.180762
L560.431691 434.195113L561.281869 434.210216L561.565262 434.140105
L561.848654 434.212501L562.415439 434.054848L566.382936 434.141626
L566.666328 433.946114L567.233113 433.939185L567.799898 433.978590
L568.083291 433.801312L568.650076 433.798107L569.500254 433.732616
L570.067039 433.717809L570.633824 433.728095L571.200609 433.769738
L575.451498 433.868429L577.151854 433.778115L578.568817 433.858185
L579.418994 433.707908L579.985780 433.781563L580.552565 433.813357
L582.252920 434.127479L585.937024 434.357814L586.787202 434.195166
L587.637379 434.028804L588.204165 433.954740L588.770950 433.025786
L589.337735 432.970990L589.621127 430.954824L589.904520 429.866309
L590.187913 429.225640L591.321483 429.291313L591.888268 429.269183
L593.872016 429.266352L594.438801 429.470363L594.722194 429.952671
L595.288979 430.129469L595.572372 432.121219L596.139157 433.697762
L596.422550 434.184618L596.989335 434.138555L597.272727 432.429889
L599.256475 432.342965L601.523616 432.009639L601.807009 432.011529
L602.373794 432.118848L603.223972 432.103163L604.074149 431.921113
L606.624683 431.921113L606.908075 431.739252L609.458608 431.482775
L610.308786 431.566723L612.009142 431.310512L612.859319 431.329250
L613.426105 431.266494L614.843068 431.411093L619.093956 431.135608
L620.227527 430.954466L620.794312 430.868289L621.077704 430.961548
L622.211275 430.925412L622.494667 430.917704L623.061453 430.607112
L623.911630 430.604215L624.761808 430.581369L625.328593 430.670512
L625.895378 430.676561L627.595734 430.654535L628.162519 430.550929
L628.729304 430.546995L630.713052 430.724304L630.996445 430.650672
L631.563230 430.766439L631.846623 430.668132L632.696800 430.852125
L639.214830 429.922364L639.781615 429.848749L640.348400 429.768425
L640.915185 429.811884L641.481971 428.554704L642.048756 428.584876
L642.332148 428.186650L642.898933 428.166206L644.032504 428.041721
L644.882682 427.946248L645.166074 428.137469L645.732859 428.084127
L647.149822 428.404776L647.433215 429.512306L648.000000 429.600877
L648.000000 429.600877"/>
</g>
<g id="line2d3">
<path style="fill: none; stroke: #0000ff; stroke-width: 3.000000; stroke-linejoin: round; stroke-linecap: square;  opacity: 1.000000" clip-path="url(#p6d54bdcfc682fd2a5eb67e424bad820e)" d="M472.579990 356.388165L476.264093 354.080526L489.300152 347.431028
L496.384967 344.237270L510.554596 337.915502L512.821737 336.831238
L513.955307 336.232210L514.522092 335.626132L516.789233 332.470296
L517.922803 331.297691L519.906552 329.610940L520.756729 329.194481
L521.040122 329.194481L521.323514 328.601953L523.307263 327.311478
L525.291011 326.196160L529.541899 323.990267L536.910107 320.947961
L538.893855 320.154263L541.444388 319.111050L543.711529 318.230903
L546.262062 317.156137L549.662773 315.577280L554.197054 313.638088
L554.763840 313.527571L555.330625 313.158117L558.164551 312.044983
L558.731336 311.819560L559.298121 311.446069L559.581513 311.446069
L560.998476 310.817026L561.565262 310.357182L561.848654 310.357182
L565.249365 308.503020L570.917217 305.774972L579.702387 302.532007
L584.520061 302.532007L584.803454 300.784912L585.370239 300.599108
L592.171661 298.384010L592.738446 298.296993L596.422550 297.039246
L596.989335 296.934347L600.673438 295.768533L601.240223 295.673340
L601.807009 295.571508L602.940579 295.571508L603.223972 294.919696
L604.357542 294.602922L606.624683 294.034055L607.474860 294.034055
L607.758253 293.654770L608.608431 293.456696L608.891823 293.456696
L609.742001 293.124628L610.308786 293.040695L611.442357 292.730411
L612.009142 292.625507L613.142712 292.353561L613.709497 292.250746
L614.559675 292.019394L614.843068 292.019394L615.976638 291.671426
L617.110208 291.671426L617.393601 290.876794L617.676993 290.876794
L617.960386 290.710656L618.243779 290.710656L618.527171 290.469449
L618.810564 290.469449L619.093956 290.269829L619.377349 290.269829
L619.944134 289.848062L620.227527 289.848062L620.510919 289.677148
L620.794312 289.677148L621.077704 289.488655L621.361097 289.488655
L621.927882 289.154765L622.211275 289.154765L622.778060 288.885335
L623.061453 288.885335L623.628238 288.596102L623.911630 288.596102
L625.895378 287.888324L626.462164 287.888324L626.745556 287.084551
L627.028949 286.962108L627.595734 286.875399L629.862875 286.252576
L630.429660 286.158815L631.563230 285.823296L632.130015 285.743506
L633.546978 285.395821L635.530726 284.927313L637.514474 284.417097
L637.797867 284.257069L639.781615 284.257069L640.065008 283.737520
L640.915185 283.654790L642.332148 283.375595L642.898933 283.310209
L643.749111 283.254168L644.032504 283.254168L644.315896 282.892021
L644.882682 282.813881L647.149822 282.426470L647.716607 282.357625
L648.000000 282.290082L648.000000 282.290082"/>
</g>
<g id="line2d4">
<path style="fill: none; stroke: #0000ff; stroke-width: 2.000000; stroke-linejoin: round; stroke-linecap: butt; stroke-dasharray: 6.000000,6.000000; stroke-dashoffset: 0.000000; opacity: 1.000000" clip-path="url(#p6d54bdcfc682fd2a5eb67e424bad820e)" d="M472.579990 445.863156L492.134078 445.293848L497.801930 445.115734
L502.336211 444.913158L504.603352 444.833226L541.160995 443.798392
L548.529203 443.580904L553.346877 443.440637L555.897410 443.350471
L559.298121 443.224755L564.965973 443.113922L600.390046 442.313077
L612.859319 442.042527L642.898933 441.523944L648.000000 441.460869
L648.000000 441.460869"/>
</g>
<g id="matplotlib.axis1">
<g id="xtick1">
<g id="line2d5">
<path style="fill: none; stroke: #000000; stroke-width: 0.500000; stroke-linejoin: round; stroke-linecap: butt; stroke-dasharray: 1.000000,3.000000; stroke-dashoffset: 0.000000; opacity: 1.000000" clip-path="url(#p6d54bdcfc682fd2a5eb67e424bad820e)" d="M169.066531 453.600000L169.066531 50.400000"/>
</g>
<g id="line2d6">
<defs><path id="m30e32995789d870ad79a2e54c91cf9c6" d="M0.000000 0.000000L0.000000 -4.000000"/></defs>
<g ><use style="fill: none; stroke: #000000; stroke-width: 0.500000; stroke-linejoin: round; stroke-linecap: butt;  opacity: 1.000000" xlink:href="#m30e32995789d870ad79a2e54c91cf9c6" x="169.066531" y="453.600000"/>
</g></g>
<g id="line2d7">
<defs><path id="m9281cae24120827b11d5ea8a7ad3e96b" d="M0.000000 0.000000L0.000000 4.000000"/></defs>
<g ><use style="fill: none; stroke: #000000; stroke-width: 0.500000; stroke-linejoin: round; stroke-linecap: butt;  opacity: 1.000000" xlink:href="#m9281cae24120827b11d5ea8a7ad3e96b" x="169.066531" y="50.400000"/>
</g></g>
<g id="text1">
<defs>
<path id="c_ed3f3ed3ebfbd18bcb9c012009a68ad1" d="M19.187500 -8.296875l34.421875 0.000000l0.000000 8.296875l-46.281250 0.000000l0.000000 -8.296875q5.609375 -5.812500 15.296875 -15.593750q9.703125 -9.796875 12.187500 -12.640625q4.734375 -5.312500 6.609375 -9.000000q1.890625 -3.687500 1.890625 -7.250000q0.000000 -5.812500 -4.078125 -9.468750q-4.078125 -3.671875 -10.625000 -3.671875q-4.640625 0.000000 -9.796875 1.609375q-5.140625 1.609375 -11.000000 4.890625l0.000000 -9.968750q5.953125 -2.390625 11.125000 -3.609375q5.187500 -1.218750 9.484375 -1.218750q11.328125 0.000000 18.062500 5.671875q6.734375 5.656250 6.734375 15.125000q0.000000 4.500000 -1.687500 8.531250q-1.671875 4.015625 -6.125000 9.484375q-1.218750 1.421875 -7.765625 8.187500q-6.531250 6.765625 -18.453125 18.921875"/>
<path id="c_7a2040fe3b94fcd41d0a72c84e93b115" d="M31.781250 -66.406250q-7.609375 0.000000 -11.453125 7.500000q-3.828125 7.484375 -3.828125 22.531250q0.000000 14.984375 3.828125 22.484375q3.843750 7.500000 11.453125 7.500000q7.671875 0.000000 11.500000 -7.500000q3.843750 -7.500000 3.843750 -22.484375q0.000000 -15.046875 -3.843750 -22.531250q-3.828125 -7.500000 -11.500000 -7.500000M31.781250 -74.218750q12.265625 0.000000 18.734375 9.703125q6.468750 9.687500 6.468750 28.140625q0.000000 18.406250 -6.468750 28.109375q-6.468750 9.687500 -18.734375 9.687500q-12.250000 0.000000 -18.718750 -9.687500q-6.468750 -9.703125 -6.468750 -28.109375q0.000000 -18.453125 6.468750 -28.140625q6.468750 -9.703125 18.718750 -9.703125"/>
<path id="c_956f18cfdaf972f35a6c2b4aaac2532b" d="M8.203125 -72.906250l46.875000 0.000000l0.000000 4.203125l-26.468750 68.703125l-10.296875 0.000000l24.906250 -64.593750l-35.015625 0.000000z"/>
</defs>
<g style="fill: #000000; opacity: 1.000000" transform="translate(154.738406,466.506250)scale(0.120000)">
<use xlink:href="#c_ed3f3ed3ebfbd18bcb9c012009a68ad1"/>
<use xlink:href="#c_7a2040fe3b94fcd41d0a72c84e93b115" x="63.623047"/>
<use xlink:href="#c_7a2040fe3b94fcd41d0a72c84e93b115" x="127.246094"/>
<use xlink:href="#c_956f18cfdaf972f35a6c2b4aaac2532b" x="190.869141"/>
</g>
</g>
</g>
<g id="xtick2">
<g id="line2d8">
<path style="fill: none; stroke: #000000; stroke-width: 0.500000; stroke-linejoin: round; stroke-linecap: butt; stroke-dasharray: 1.000000,3.000000; stroke-dashoffset: 0.000000; opacity: 1.000000" clip-path="url(#p6d54bdcfc682fd2a5eb67e424bad820e)" d="M272.504825 453.600000L272.504825 50.400000"/>
</g>
<g id="line2d9">
<g ><use style="fill: none; stroke: #000000; stroke-width: 0.500000; stroke-linejoin: round; stroke-linecap: butt;  opacity: 1.000000" xlink:href="#m30e32995789d870ad79a2e54c91cf9c6" x="272.504825" y="453.600000"/>
</g></g>
<g id="line2d10">
<g ><use style="fill: none; stroke: #000000; stroke-width: 0.500000; stroke-linejoin: round; stroke-linecap: butt;  opacity: 1.000000" xlink:href="#m9281cae24120827b11d5ea8a7ad3e96b" x="272.504825" y="50.400000"/>
</g></g>
<g id="text2">
<defs>
<path id="c_bef35738d52871942e50b9de9b122bab" d="M31.781250 -34.625000q-7.031250 0.000000 -11.062500 3.765625q-4.015625 3.765625 -4.015625 10.343750q0.000000 6.593750 4.015625 10.359375q4.031250 3.765625 11.062500 3.765625q7.031250 0.000000 11.078125 -3.781250q4.062500 -3.796875 4.062500 -10.343750q0.000000 -6.578125 -4.031250 -10.343750q-4.015625 -3.765625 -11.109375 -3.765625M21.921875 -38.812500q-6.343750 -1.562500 -9.890625 -5.906250q-3.531250 -4.359375 -3.531250 -10.609375q0.000000 -8.734375 6.218750 -13.812500q6.234375 -5.078125 17.062500 -5.078125q10.890625 0.000000 17.093750 5.078125q6.203125 5.078125 6.203125 13.812500q0.000000 6.250000 -3.546875 10.609375q-3.531250 4.343750 -9.828125 5.906250q7.125000 1.656250 11.093750 6.500000q3.984375 4.828125 3.984375 11.796875q0.000000 10.609375 -6.468750 16.281250q-6.468750 5.656250 -18.531250 5.656250q-12.046875 0.000000 -18.531250 -5.656250q-6.468750 -5.671875 -6.468750 -16.281250q0.000000 -6.968750 4.000000 -11.796875q4.015625 -4.843750 11.140625 -6.500000M18.312500 -54.390625q0.000000 5.656250 3.531250 8.828125q3.546875 3.171875 9.937500 3.171875q6.359375 0.000000 9.937500 -3.171875q3.593750 -3.171875 3.593750 -8.828125q0.000000 -5.671875 -3.593750 -8.843750q-3.578125 -3.171875 -9.937500 -3.171875q-6.390625 0.000000 -9.937500 3.171875q-3.531250 3.171875 -3.531250 8.843750"/>
</defs>
<g style="fill: #000000; opacity: 1.000000" transform="translate(258.075137,466.506250)scale(0.120000)">
<use xlink:href="#c_ed3f3ed3ebfbd18bcb9c012009a68ad1"/>
<use xlink:href="#c_7a2040fe3b94fcd41d0a72c84e93b115" x="63.623047"/>
<use xlink:href="#c_7a2040fe3b94fcd41d0a72c84e93b115" x="127.246094"/>
<use xlink:href="#c_bef35738d52871942e50b9de9b122bab" x="190.869141"/>
</g>
</g>
</g>
<g id="xtick3">
<g id="line2d11">
<path style="fill: none; stroke: #000000; stroke-width: 0.500000; stroke-linejoin: round; stroke-linecap: butt; stroke-dasharray: 1.000000,3.000000; stroke-dashoffset: 0.000000; opacity: 1.000000" clip-path="url(#p6d54bdcfc682fd2a5eb67e424bad820e)" d="M376.226511 453.600000L376.226511 50.400000"/>
</g>
<g id="line2d12">
<g ><use style="fill: none; stroke: #000000; stroke-width: 0.500000; stroke-linejoin: round; stroke-linecap: butt;  opacity: 1.000000" xlink:href="#m30e32995789d870ad79a2e54c91cf9c6" x="376.226511" y="453.600000"/>
</g></g>
<g id="line2d13">
<g ><use style="fill: none; stroke: #000000; stroke-width: 0.500000; stroke-linejoin: round; stroke-linecap: butt;  opacity: 1.000000" xlink:href="#m9281cae24120827b11d5ea8a7ad3e96b" x="376.226511" y="50.400000"/>
</g></g>
<g id="text3">
<defs>
<path id="c_cd96f817f3cab988d24a2b49a5577fe6" d="M10.984375 -1.515625l0.000000 -8.984375q3.718750 1.765625 7.515625 2.687500q3.812500 0.921875 7.484375 0.921875q9.765625 0.000000 14.906250 -6.562500q5.156250 -6.562500 5.890625 -19.953125q-2.828125 4.203125 -7.187500 6.453125q-4.343750 2.250000 -9.609375 2.250000q-10.937500 0.000000 -17.312500 -6.609375q-6.375000 -6.625000 -6.375000 -18.109375q0.000000 -11.218750 6.640625 -18.000000q6.640625 -6.796875 17.671875 -6.796875q12.656250 0.000000 19.312500 9.703125q6.671875 9.687500 6.671875 28.140625q0.000000 17.234375 -8.187500 27.515625q-8.171875 10.281250 -21.984375 10.281250q-3.718750 0.000000 -7.531250 -0.734375q-3.796875 -0.734375 -7.906250 -2.203125M30.609375 -32.421875q6.640625 0.000000 10.515625 -4.531250q3.890625 -4.546875 3.890625 -12.468750q0.000000 -7.859375 -3.890625 -12.421875q-3.875000 -4.562500 -10.515625 -4.562500q-6.640625 0.000000 -10.515625 4.562500q-3.875000 4.562500 -3.875000 12.421875q0.000000 7.921875 3.875000 12.468750q3.875000 4.531250 10.515625 4.531250"/>
</defs>
<g style="fill: #000000; opacity: 1.000000" transform="translate(361.804636,466.506250)scale(0.120000)">
<use xlink:href="#c_ed3f3ed3ebfbd18bcb9c012009a68ad1"/>
<use xlink:href="#c_7a2040fe3b94fcd41d0a72c84e93b115" x="63.623047"/>
<use xlink:href="#c_7a2040fe3b94fcd41d0a72c84e93b115" x="127.246094"/>
<use xlink:href="#c_cd96f817f3cab988d24a2b49a5577fe6" x="190.869141"/>
</g>
</g>
</g>
<g id="xtick4">
<g id="line2d14">
<path style="fill: none; stroke: #000000; stroke-width: 0.500000; stroke-linejoin: round; stroke-linecap: butt; stroke-dasharray: 1.000000,3.000000; stroke-dashoffset: 0.000000; opacity: 1.000000" clip-path="url(#p6d54bdcfc682fd2a5eb67e424bad820e)" d="M479.664804 453.600000L479.664804 50.400000"/>
</g>
<g id="line2d15">
<g ><use style="fill: none; stroke: #000000; stroke-width: 0.500000; stroke-linejoin: round; stroke-linecap: butt;  opacity: 1.000000" xlink:href="#m30e32995789d870ad79a2e54c91cf9c6" x="479.664804" y="453.600000"/>
</g></g>
<g id="line2d16">
<g ><use style="fill: none; stroke: #000000; stroke-width: 0.500000; stroke-linejoin: round; stroke-linecap: butt;  opacity: 1.000000" xlink:href="#m9281cae24120827b11d5ea8a7ad3e96b" x="479.664804" y="50.400000"/>
</g></g>
<g id="text4">
<defs>
<path id="c_42baa63129a918535c52adb20d687ea7" d="M12.406250 -8.296875l16.109375 0.000000l0.000000 -55.625000l-17.531250 3.515625l0.000000 -8.984375l17.437500 -3.515625l9.859375 0.000000l0.000000 64.609375l16.109375 0.000000l0.000000 8.296875l-41.984375 0.000000z"/>
</defs>
<g style="fill: #000000; opacity: 1.000000" transform="translate(465.219492,466.506250)scale(0.120000)">
<use xlink:href="#c_ed3f3ed3ebfbd18bcb9c012009a68ad1"/>
<use xlink:href="#c_7a2040fe3b94fcd41d0a72c84e93b115" x="63.623047"/>
<use xlink:href="#c_42baa63129a918535c52adb20d687ea7" x="127.246094"/>
<use xlink:href="#c_7a2040fe3b94fcd41d0a72c84e93b115" x="190.869141"/>
</g>
</g>
</g>
<g id="xtick5">
<g id="line2d17">
<path style="fill: none; stroke: #000000; stroke-width: 0.500000; stroke-linejoin: round; stroke-linecap: butt; stroke-dasharray: 1.000000,3.000000; stroke-dashoffset: 0.000000; opacity: 1.000000" clip-path="url(#p6d54bdcfc682fd2a5eb67e424bad820e)" d="M583.103098 453.600000L583.103098 50.400000"/>
</g>
<g id="line2d18">
<g ><use style="fill: none; stroke: #000000; stroke-width: 0.500000; stroke-linejoin: round; stroke-linecap: butt;  opacity: 1.000000" xlink:href="#m30e32995789d870ad79a2e54c91cf9c6" x="583.103098" y="453.600000"/>
</g></g>
<g id="line2d19">
<g ><use style="fill: none; stroke: #000000; stroke-width: 0.500000; stroke-linejoin: round; stroke-linecap: butt;  opacity: 1.000000" xlink:href="#m9281cae24120827b11d5ea8a7ad3e96b" x="583.103098" y="50.400000"/>
</g></g>
<g id="text5">
<g style="fill: #000000; opacity: 1.000000" transform="translate(568.814036,466.506250)scale(0.120000)">
<use xlink:href="#c_ed3f3ed3ebfbd18bcb9c012009a68ad1"/>
<use xlink:href="#c_7a2040fe3b94fcd41d0a72c84e93b115" x="63.623047"/>
<use xlink:href="#c_42baa63129a918535c52adb20d687ea7" x="127.246094"/>
<use xlink:href="#c_42baa63129a918535c52adb20d687ea7" x="190.869141"/>
</g>
</g>
</g>
</g>
<g id="matplotlib.axis2">
<g id="ytick1">
<g id="line2d20">
<path style="fill: none; stroke: #000000; stroke-width: 0.500000; stroke-linejoin: round; stroke-linecap: butt; stroke-dasharray: 1.000000,3.000000; stroke-dashoffset: 0.000000; opacity: 1.000000" clip-path="url(#p6d54bdcfc682fd2a5eb67e424bad820e)" d="M90.000000 453.600000L648.000000 453.600000"/>
</g>
<g id="line2d21">
<defs><path id="m3400efa6b1638b3fea9e19e898273957" d="M0.000000 0.000000L4.000000 0.000000"/></defs>
<g ><use style="fill: none; stroke: #000000; stroke-width: 0.500000; stroke-linejoin: round; stroke-linecap: butt;  opacity: 1.000000" xlink:href="#m3400efa6b1638b3fea9e19e898273957" x="90.000000" y="453.600000"/>
</g></g>
<g id="line2d22">
<defs><path id="m20b58b2501143cb5e0a5e8f1ef6f1643" d="M0.000000 0.000000L-4.000000 0.000000"/></defs>
<g ><use style="fill: none; stroke: #000000; stroke-width: 0.500000; stroke-linejoin: round; stroke-linecap: butt;  opacity: 1.000000" xlink:href="#m20b58b2501143cb5e0a5e8f1ef6f1643" x="648.000000" y="453.600000"/>
</g></g>
<g id="text6">
<g style="fill: #000000; opacity: 1.000000" transform="translate(79.953125,457.967188)scale(0.120000)">
<use xlink:href="#c_7a2040fe3b94fcd41d0a72c84e93b115"/>
</g>
</g>
</g>
<g id="ytick2">
<g id="line2d23">
<path style="fill: none; stroke: #000000; stroke-width: 0.500000; stroke-linejoin: round; stroke-linecap: butt; stroke-dasharray: 1.000000,3.000000; stroke-dashoffset: 0.000000; opacity: 1.000000" clip-path="url(#p6d54bdcfc682fd2a5eb67e424bad820e)" d="M90.000000 408.800000L648.000000 408.800000"/>
</g>
<g id="line2d24">
<g ><use style="fill: none; stroke: #000000; stroke-width: 0.500000; stroke-linejoin: round; stroke-linecap: butt;  opacity: 1.000000" xlink:href="#m3400efa6b1638b3fea9e19e898273957" x="90.000000" y="408.800000"/>
</g></g>
<g id="line2d25">
<g ><use style="fill: none; stroke: #000000; stroke-width: 0.500000; stroke-linejoin: round; stroke-linecap: butt;  opacity: 1.000000" xlink:href="#m20b58b2501143cb5e0a5e8f1ef6f1643" x="648.000000" y="408.800000"/>
</g></g>
<g id="text7">
<defs>
<path id="c_1260a2df50f305f3db244e29828f968e" d="M10.796875 -72.906250l38.718750 0.000000l0.000000 8.312500l-29.687500 0.000000l0.000000 17.859375q2.140625 -0.734375 4.281250 -1.093750q2.156250 -0.359375 4.312500 -0.359375q12.203125 0.000000 19.328125 6.687500q7.140625 6.687500 7.140625 18.109375q0.000000 11.765625 -7.328125 18.296875q-7.328125 6.515625 -20.656250 6.515625q-4.593750 0.000000 -9.359375 -0.781250q-4.750000 -0.781250 -9.828125 -2.343750l0.000000 -9.921875q4.390625 2.390625 9.078125 3.562500q4.687500 1.171875 9.906250 1.171875q8.453125 0.000000 13.375000 -4.437500q4.937500 -4.437500 4.937500 -12.062500q0.000000 -7.609375 -4.937500 -12.046875q-4.921875 -4.453125 -13.375000 -4.453125q-3.953125 0.000000 -7.890625 0.875000q-3.921875 0.875000 -8.015625 2.734375z"/>
</defs>
<g style="fill: #000000; opacity: 1.000000" transform="translate(80.328125,413.089063)scale(0.120000)">
<use xlink:href="#c_1260a2df50f305f3db244e29828f968e"/>
</g>
</g>
</g>
<g id="ytick3">
<g id="line2d26">
<path style="fill: none; stroke: #000000; stroke-width: 0.500000; stroke-linejoin: round; stroke-linecap: butt; stroke-dasharray: 1.000000,3.000000; stroke-dashoffset: 0.000000; opacity: 1.000000" clip-path="url(#p6d54bdcfc682fd2a5eb67e424bad820e)" d="M90.000000 364.000000L648.000000 364.000000"/>
</g>
<g id="line2d27">
<g ><use style="fill: none; stroke: #000000; stroke-width: 0.500000; stroke-linejoin: round; stroke-linecap: butt;  opacity: 1.000000" xlink:href="#m3400efa6b1638b3fea9e19e898273957" x="90.000000" y="364.000000"/>
</g></g>
<g id="line2d28">
<g ><use style="fill: none; stroke: #000000; stroke-width: 0.500000; stroke-linejoin: round; stroke-linecap: butt;  opacity: 1.000000" xlink:href="#m20b58b2501143cb5e0a5e8f1ef6f1643" x="648.000000" y="364.000000"/>
</g></g>
<g id="text8">
<g style="fill: #000000; opacity: 1.000000" transform="translate(72.828125,368.367188)scale(0.120000)">
<use xlink:href="#c_42baa63129a918535c52adb20d687ea7"/>
<use xlink:href="#c_7a2040fe3b94fcd41d0a72c84e93b115" x="63.623047"/>
</g>
</g>
</g>
<g id="ytick4">
<g id="line2d29">
<path style="fill: none; stroke: #000000; stroke-width: 0.500000; stroke-linejoin: round; stroke-linecap: butt; stroke-dasharray: 1.000000,3.000000; stroke-dashoffset: 0.000000; opacity: 1.000000" clip-path="url(#p6d54bdcfc682fd2a5eb67e424bad820e)" d="M90.000000 319.200000L648.000000 319.200000"/>
</g>
<g id="line2d30">
<g ><use style="fill: none; stroke: #000000; stroke-width: 0.500000; stroke-linejoin: round; stroke-linecap: butt;  opacity: 1.000000" xlink:href="#m3400efa6b1638b3fea9e19e898273957" x="90.000000" y="319.200000"/>
</g></g>
<g id="line2d31">
<g ><use style="fill: none; stroke: #000000; stroke-width: 0.500000; stroke-linejoin: round; stroke-linecap: butt;  opacity: 1.000000" xlink:href="#m20b58b2501143cb5e0a5e8f1ef6f1643" x="648.000000" y="319.200000"/>
</g></g>
<g id="text9">
<g style="fill: #000000; opacity: 1.000000" transform="translate(73.078125,323.489062)scale(0.120000)">
<use xlink:href="#c_42baa63129a918535c52adb20d687ea7"/>
<use xlink:href="#c_1260a2df50f305f3db244e29828f968e" x="63.623047"/>
</g>
</g>
</g>
<g id="ytick5">
<g id="line2d32">
<path style="fill: none; stroke: #000000; stroke-width: 0.500000; stroke-linejoin: round; stroke-linecap: butt; stroke-dasharray: 1.000000,3.000000; stroke-dashoffset: 0.000000; opacity: 1.000000" clip-path="url(#p6d54bdcfc682fd2a5eb67e424bad820e)" d="M90.000000 274.400000L648.000000 274.400000"/>
</g>
<g id="line2d33">
<g ><use style="fill: none; stroke: #000000; stroke-width: 0.500000; stroke-linejoin: round; stroke-linecap: butt;  opacity: 1.000000" xlink:href="#m3400efa6b1638b3fea9e19e898273957" x="90.000000" y="274.400000"/>
</g></g>
<g id="line2d34">
<g ><use style="fill: none; stroke: #000000; stroke-width: 0.500000; stroke-linejoin: round; stroke-linecap: butt;  opacity: 1.000000" xlink:href="#m20b58b2501143cb5e0a5e8f1ef6f1643" x="648.000000" y="274.400000"/>
</g></g>
<g id="text10">
<g style="fill: #000000; opacity: 1.000000" transform="translate(72.390625,278.767187)scale(0.120000)">
<use xlink:href="#c_ed3f3ed3ebfbd18bcb9c012009a68ad1"/>
<use xlink:href="#c_7a2040fe3b94fcd41d0a72c84e93b115" x="63.623047"/>
</g>
</g>
</g>
<g id="ytick6">
<g id="line2d35">
<path style="fill: none; stroke: #000000; stroke-width: 0.500000; stroke-linejoin: round; stroke-linecap: butt; stroke-dasharray: 1.000000,3.000000; stroke-dashoffset: 0.000000; opacity: 1.000000" clip-path="url(#p6d54bdcfc682fd2a5eb67e424bad820e)" d="M90.000000 229.600000L648.000000 229.600000"/>
</g>
<g id="line2d36">
<g ><use style="fill: none; stroke: #000000; stroke-width: 0.500000; stroke-linejoin: round; stroke-linecap: butt;  opacity: 1.000000" xlink:href="#m3400efa6b1638b3fea9e19e898273957" x="90.000000" y="229.600000"/>
</g></g>
<g id="line2d37">
<g ><use style="fill: none; stroke: #000000; stroke-width: 0.500000; stroke-linejoin: round; stroke-linecap: butt;  opacity: 1.000000" xlink:href="#m20b58b2501143cb5e0a5e8f1ef6f1643" x="648.000000" y="229.600000"/>
</g></g>
<g id="text11">
<g style="fill: #000000; opacity: 1.000000" transform="translate(72.640625,233.967187)scale(0.120000)">
<use xlink:href="#c_ed3f3ed3ebfbd18bcb9c012009a68ad1"/>
<use xlink:href="#c_1260a2df50f305f3db244e29828f968e" x="63.623047"/>
</g>
</g>
</g>
<g id="ytick7">
<g id="line2d38">
<path style="fill: none; stroke: #000000; stroke-width: 0.500000; stroke-linejoin: round; stroke-linecap: butt; stroke-dasharray: 1.000000,3.000000; stroke-dashoffset: 0.000000; opacity: 1.000000" clip-path="url(#p6d54bdcfc682fd2a5eb67e424bad820e)" d="M90.000000 184.800000L648.000000 184.800000"/>
</g>
<g id="line2d39">
<g ><use style="fill: none; stroke: #000000; stroke-width: 0.500000; stroke-linejoin: round; stroke-linecap: butt;  opacity: 1.000000" xlink:href="#m3400efa6b1638b3fea9e19e898273957" x="90.000000" y="184.800000"/>
</g></g>
<g id="line2d40">
<g ><use style="fill: none; stroke: #000000; stroke-width: 0.500000; stroke-linejoin: round; stroke-linecap: butt;  opacity: 1.000000" xlink:href="#m20b58b2501143cb5e0a5e8f1ef6f1643" x="648.000000" y="184.800000"/>
</g></g>
<g id="text12">
<defs>
<path id="c_3dcfa38a02242cb63ec6726c6e70be7a" d="M40.578125 -39.312500q7.078125 1.515625 11.046875 6.312500q3.984375 4.781250 3.984375 11.812500q0.000000 10.781250 -7.421875 16.703125q-7.421875 5.906250 -21.093750 5.906250q-4.578125 0.000000 -9.437500 -0.906250q-4.859375 -0.906250 -10.031250 -2.718750l0.000000 -9.515625q4.093750 2.390625 8.968750 3.609375q4.890625 1.218750 10.218750 1.218750q9.265625 0.000000 14.125000 -3.656250q4.859375 -3.656250 4.859375 -10.640625q0.000000 -6.453125 -4.515625 -10.078125q-4.515625 -3.640625 -12.562500 -3.640625l-8.500000 0.000000l0.000000 -8.109375l8.890625 0.000000q7.265625 0.000000 11.125000 -2.906250q3.859375 -2.906250 3.859375 -8.375000q0.000000 -5.609375 -3.984375 -8.609375q-3.968750 -3.015625 -11.390625 -3.015625q-4.062500 0.000000 -8.703125 0.890625q-4.640625 0.875000 -10.203125 2.718750l0.000000 -8.781250q5.625000 -1.562500 10.531250 -2.343750q4.906250 -0.781250 9.250000 -0.781250q11.234375 0.000000 17.765625 5.109375q6.546875 5.093750 6.546875 13.781250q0.000000 6.062500 -3.468750 10.234375q-3.468750 4.171875 -9.859375 5.781250"/>
</defs>
<g style="fill: #000000; opacity: 1.000000" transform="translate(72.437500,189.167188)scale(0.120000)">
<use xlink:href="#c_3dcfa38a02242cb63ec6726c6e70be7a"/>
<use xlink:href="#c_7a2040fe3b94fcd41d0a72c84e93b115" x="63.623047"/>
</g>
</g>
</g>
<g id="ytick8">
<g id="line2d41">
<path style="fill: none; stroke: #000000; stroke-width: 0.500000; stroke-linejoin: round; stroke-linecap: butt; stroke-dasharray: 1.000000,3.000000; stroke-dashoffset: 0.000000; opacity: 1.000000" clip-path="url(#p6d54bdcfc682fd2a5eb67e424bad820e)" d="M90.000000 140.000000L648.000000 140.000000"/>
</g>
<g id="line2d42">
<g ><use style="fill: none; stroke: #000000; stroke-width: 0.500000; stroke-linejoin: round; stroke-linecap: butt;  opacity: 1.000000" xlink:href="#m3400efa6b1638b3fea9e19e898273957" x="90.000000" y="140.000000"/>
</g></g>
<g id="line2d43">
<g ><use style="fill: none; stroke: #000000; stroke-width: 0.500000; stroke-linejoin: round; stroke-linecap: butt;  opacity: 1.000000" xlink:href="#m20b58b2501143cb5e0a5e8f1ef6f1643" x="648.000000" y="140.000000"/>
</g></g>
<g id="text13">
<g style="fill: #000000; opacity: 1.000000" transform="translate(72.687500,144.367188)scale(0.120000)">
<use xlink:href="#c_3dcfa38a02242cb63ec6726c6e70be7a"/>
<use xlink:href="#c_1260a2df50f305f3db244e29828f968e" x="63.623047"/>
</g>
</g>
</g>
<g id="ytick9">
<g id="line2d44">
<path style="fill: none; stroke: #000000; stroke-width: 0.500000; stroke-linejoin: round; stroke-linecap: butt; stroke-dasharray: 1.000000,3.000000; stroke-dashoffset: 0.000000; opacity: 1.000000" clip-path="url(#p6d54bdcfc682fd2a5eb67e424bad820e)" d="M90.000000 95.200000L648.000000 95.200000"/>
</g>
<g id="line2d45">
<g ><use style="fill: none; stroke: #000000; stroke-width: 0.500000; stroke-linejoin: round; stroke-linecap: butt;  opacity: 1.000000" xlink:href="#m3400efa6b1638b3fea9e19e898273957" x="90.000000" y="95.200000"/>
</g></g>
<g id="line2d46">
<g ><use style="fill: none; stroke: #000000; stroke-width: 0.500000; stroke-linejoin: round; stroke-linecap: butt;  opacity: 1.000000" xlink:href="#m20b58b2501143cb5e0a5e8f1ef6f1643" x="648.000000" y="95.200000"/>
</g></g>
<g id="text14">
<defs>
<path id="c_a0416418d96557a09b8c1332d34883ba" d="M37.796875 -64.312500l-24.906250 38.921875l24.906250 0.000000zM35.203125 -72.906250l12.406250 0.000000l0.000000 47.515625l10.406250 0.000000l0.000000 8.203125l-10.406250 0.000000l0.000000 17.187500l-9.812500 0.000000l0.000000 -17.187500l-32.906250 0.000000l0.000000 -9.515625z"/>
</defs>
<g style="fill: #000000; opacity: 1.000000" transform="translate(72.109375,99.567187)scale(0.120000)">
<use xlink:href="#c_a0416418d96557a09b8c1332d34883ba"/>
<use xlink:href="#c_7a2040fe3b94fcd41d0a72c84e93b115" x="63.623047"/>
</g>
</g>
</g>
<g id="ytick10">
<g id="line2d47">
<path style="fill: none; stroke: #000000; stroke-width: 0.500000; stroke-linejoin: round; stroke-linecap: butt; stroke-dasharray: 1.000000,3.000000; stroke-dashoffset: 0.000000; opacity: 1.000000" clip-path="url(#p6d54bdcfc682fd2a5eb67e424bad820e)" d="M90.000000 50.400000L648.000000 50.400000"/>
</g>
<g id="line2d48">
<g ><use style="fill: none; stroke: #000000; stroke-width: 0.500000; stroke-linejoin: round; stroke-linecap: butt;  opacity: 1.000000" xlink:href="#m3400efa6b1638b3fea9e19e898273957" x="90.000000" y="50.400000"/>
</g></g>
<g id="line2d49">
<g ><use style="fill: none; stroke: #000000; stroke-width: 0.500000; stroke-linejoin: round; stroke-linecap: butt;  opacity: 1.000000" xlink:href="#m20b58b2501143cb5e0a5e8f1ef6f1643" x="648.000000" y="50.400000"/>
</g></g>
<g id="text15">
<g style="fill: #000000; opacity: 1.000000" transform="translate(72.359375,54.689062)scale(0.120000)">
<use xlink:href="#c_a0416418d96557a09b8c1332d34883ba"/>
<use xlink:href="#c_1260a2df50f305f3db244e29828f968e" x="63.623047"/>
</g>
</g>
</g>
<g id="text16">
<defs>
<path id="c_a56f7596f19f36c336140607221b43ce" d="M72.703125 -32.078125q-4.250000 0.000000 -6.671875 3.609375q-2.406250 3.609375 -2.406250 10.062500q0.000000 6.343750 2.406250 9.984375q2.421875 3.640625 6.671875 3.640625q4.156250 0.000000 6.562500 -3.640625q2.421875 -3.640625 2.421875 -9.984375q0.000000 -6.406250 -2.421875 -10.031250q-2.406250 -3.640625 -6.562500 -3.640625M72.703125 -38.281250q7.718750 0.000000 12.250000 5.375000q4.546875 5.359375 4.546875 14.500000q0.000000 9.125000 -4.562500 14.484375q-4.562500 5.343750 -12.234375 5.343750q-7.812500 0.000000 -12.359375 -5.343750q-4.531250 -5.359375 -4.531250 -14.484375q0.000000 -9.187500 4.562500 -14.531250q4.562500 -5.343750 12.328125 -5.343750M22.312500 -68.015625q-4.203125 0.000000 -6.625000 3.640625q-2.406250 3.625000 -2.406250 9.984375q0.000000 6.437500 2.390625 10.062500q2.390625 3.609375 6.640625 3.609375q4.250000 0.000000 6.656250 -3.609375q2.421875 -3.625000 2.421875 -10.062500q0.000000 -6.296875 -2.437500 -9.953125q-2.437500 -3.671875 -6.640625 -3.671875M66.406250 -74.218750l7.812500 0.000000l-45.609375 75.640625l-7.812500 0.000000zM22.312500 -74.218750q7.718750 0.000000 12.296875 5.343750q4.593750 5.343750 4.593750 14.484375q0.000000 9.218750 -4.562500 14.546875q-4.562500 5.328125 -12.328125 5.328125q-7.765625 0.000000 -12.281250 -5.343750q-4.515625 -5.359375 -4.515625 -14.531250q0.000000 -9.093750 4.531250 -14.453125q4.546875 -5.375000 12.265625 -5.375000"/>
<path id="c_d41d8cd98f00b204e9800998ecf8427e" d=""/>
<path id="c_f05dd90d41f04bb96ef1ca503cc2044b" d="M30.609375 -48.390625q-7.218750 0.000000 -11.421875 5.640625q-4.203125 5.640625 -4.203125 15.453125q0.000000 9.812500 4.171875 15.453125q4.187500 5.640625 11.453125 5.640625q7.187500 0.000000 11.375000 -5.656250q4.203125 -5.671875 4.203125 -15.437500q0.000000 -9.718750 -4.203125 -15.406250q-4.187500 -5.687500 -11.375000 -5.687500M30.609375 -56.000000q11.718750 0.000000 18.406250 7.625000q6.703125 7.609375 6.703125 21.078125q0.000000 13.421875 -6.703125 21.078125q-6.687500 7.640625 -18.406250 7.640625q-11.765625 0.000000 -18.437500 -7.640625q-6.656250 -7.656250 -6.656250 -21.078125q0.000000 -13.468750 6.656250 -21.078125q6.671875 -7.625000 18.437500 -7.625000"/>
<path id="c_73b12fe3945075d29fe0cc9a468fa31e" d="M37.109375 -75.984375l0.000000 7.484375l-8.593750 0.000000q-4.828125 0.000000 -6.718750 1.953125q-1.875000 1.953125 -1.875000 7.031250l0.000000 4.828125l14.796875 0.000000l0.000000 6.984375l-14.796875 0.000000l0.000000 47.703125l-9.031250 0.000000l0.000000 -47.703125l-8.593750 0.000000l0.000000 -6.984375l8.593750 0.000000l0.000000 -3.812500q0.000000 -9.125000 4.250000 -13.296875q4.250000 -4.187500 13.468750 -4.187500z"/>
<path id="c_01d93a582460e35a7945ca50d148ffeb" d="M34.281250 -27.484375q-10.890625 0.000000 -15.093750 2.484375q-4.203125 2.484375 -4.203125 8.500000q0.000000 4.781250 3.156250 7.593750q3.156250 2.796875 8.562500 2.796875q7.484375 0.000000 12.000000 -5.296875q4.515625 -5.296875 4.515625 -14.078125l0.000000 -2.000000zM52.203125 -31.203125l0.000000 31.203125l-8.984375 0.000000l0.000000 -8.296875q-3.078125 4.968750 -7.671875 7.343750q-4.593750 2.375000 -11.234375 2.375000q-8.390625 0.000000 -13.359375 -4.718750q-4.953125 -4.718750 -4.953125 -12.625000q0.000000 -9.218750 6.171875 -13.906250q6.187500 -4.687500 18.437500 -4.687500l12.609375 0.000000l0.000000 -0.890625q0.000000 -6.203125 -4.078125 -9.593750q-4.078125 -3.390625 -11.453125 -3.390625q-4.687500 0.000000 -9.140625 1.125000q-4.437500 1.125000 -8.531250 3.375000l0.000000 -8.312500q4.921875 -1.906250 9.562500 -2.843750q4.640625 -0.953125 9.031250 -0.953125q11.875000 0.000000 17.734375 6.156250q5.859375 6.140625 5.859375 18.640625"/>
<path id="c_5099edb83619131346ae654950954dea" d="M9.421875 -75.984375l8.984375 0.000000l0.000000 75.984375l-8.984375 0.000000z"/>
<path id="c_6a63bda47b2f3da1cec6aadd80692cfe" d="M9.421875 -54.687500l8.984375 0.000000l0.000000 54.687500l-8.984375 0.000000zM9.421875 -75.984375l8.984375 0.000000l0.000000 11.390625l-8.984375 0.000000z"/>
<path id="c_fe791a90f5471e2ab20a5ed41a7fa451" d="M54.890625 -33.015625l0.000000 33.015625l-8.984375 0.000000l0.000000 -32.718750q0.000000 -7.765625 -3.031250 -11.609375q-3.031250 -3.859375 -9.078125 -3.859375q-7.281250 0.000000 -11.484375 4.640625q-4.203125 4.625000 -4.203125 12.640625l0.000000 30.906250l-9.031250 0.000000l0.000000 -54.687500l9.031250 0.000000l0.000000 8.500000q3.234375 -4.937500 7.593750 -7.375000q4.375000 -2.437500 10.093750 -2.437500q9.421875 0.000000 14.250000 5.828125q4.843750 5.828125 4.843750 17.156250"/>
<path id="c_8e0810ad13fe20a2a87a2619799b154d" d="M44.281250 -53.078125l0.000000 8.500000q-3.796875 -1.953125 -7.906250 -2.921875q-4.093750 -0.984375 -8.500000 -0.984375q-6.687500 0.000000 -10.031250 2.046875q-3.343750 2.046875 -3.343750 6.156250q0.000000 3.125000 2.390625 4.906250q2.390625 1.781250 9.625000 3.390625l3.078125 0.687500q9.562500 2.046875 13.593750 5.781250q4.031250 3.734375 4.031250 10.421875q0.000000 7.625000 -6.031250 12.078125q-6.031250 4.437500 -16.578125 4.437500q-4.390625 0.000000 -9.156250 -0.859375q-4.765625 -0.859375 -10.031250 -2.562500l0.000000 -9.281250q4.984375 2.593750 9.812500 3.890625q4.828125 1.281250 9.578125 1.281250q6.343750 0.000000 9.750000 -2.171875q3.421875 -2.171875 3.421875 -6.125000q0.000000 -3.656250 -2.468750 -5.609375q-2.453125 -1.953125 -10.812500 -3.765625l-3.125000 -0.734375q-8.343750 -1.750000 -12.062500 -5.390625q-3.703125 -3.640625 -3.703125 -9.984375q0.000000 -7.718750 5.468750 -11.906250q5.468750 -4.203125 15.531250 -4.203125q4.968750 0.000000 9.359375 0.734375q4.406250 0.718750 8.109375 2.187500"/>
<path id="c_0f8c41144cfbf448378cb6fd1cc8e549" d="M18.312500 -70.218750l0.000000 15.531250l18.500000 0.000000l0.000000 6.984375l-18.500000 0.000000l0.000000 29.687500q0.000000 6.687500 1.828125 8.593750q1.828125 1.906250 7.453125 1.906250l9.218750 0.000000l0.000000 7.515625l-9.218750 0.000000q-10.406250 0.000000 -14.359375 -3.875000q-3.953125 -3.890625 -3.953125 -14.140625l0.000000 -29.687500l-6.593750 0.000000l0.000000 -6.984375l6.593750 0.000000l0.000000 -15.531250z"/>
</defs>
<g style="fill: #000000; opacity: 1.000000" transform="translate(67.109375,312.000000)rotate(-90.0)scale(0.120000)">
<use xlink:href="#c_a56f7596f19f36c336140607221b43ce"/>
<use xlink:href="#c_d41d8cd98f00b204e9800998ecf8427e" x="95.019531"/>
<use xlink:href="#c_f05dd90d41f04bb96ef1ca503cc2044b" x="126.806641"/>
<use xlink:href="#c_73b12fe3945075d29fe0cc9a468fa31e" x="187.988281"/>
<use xlink:href="#c_d41d8cd98f00b204e9800998ecf8427e" x="223.193359"/>
<use xlink:href="#c_01d93a582460e35a7945ca50d148ffeb" x="254.980469"/>
<use xlink:href="#c_5099edb83619131346ae654950954dea" x="316.259766"/>
<use xlink:href="#c_5099edb83619131346ae654950954dea" x="344.042969"/>
<use xlink:href="#c_d41d8cd98f00b204e9800998ecf8427e" x="371.826172"/>
<use xlink:href="#c_6a63bda47b2f3da1cec6aadd80692cfe" x="403.613281"/>
<use xlink:href="#c_fe791a90f5471e2ab20a5ed41a7fa451" x="431.396484"/>
<use xlink:href="#c_8e0810ad13fe20a2a87a2619799b154d" x="494.775391"/>
<use xlink:href="#c_0f8c41144cfbf448378cb6fd1cc8e549" x="546.875000"/>
<use xlink:href="#c_01d93a582460e35a7945ca50d148ffeb" x="586.083984"/>
<use xlink:href="#c_5099edb83619131346ae654950954dea" x="647.363281"/>
<use xlink:href="#c_5099edb83619131346ae654950954dea" x="675.146484"/>
<use xlink:href="#c_01d93a582460e35a7945ca50d148ffeb" x="702.929688"/>
<use xlink:href="#c_0f8c41144cfbf448378cb6fd1cc8e549" x="764.208984"/>
<use xlink:href="#c_6a63bda47b2f3da1cec6aadd80692cfe" x="803.417969"/>
<use xlink:href="#c_f05dd90d41f04bb96ef1ca503cc2044b" x="831.201172"/>
<use xlink:href="#c_fe791a90f5471e2ab20a5ed41a7fa451" x="892.382813"/>
<use xlink:href="#c_8e0810ad13fe20a2a87a2619799b154d" x="955.761719"/>
</g>
</g>
</g>
<g id="patch3">
<path style="fill: none; stroke: #000000; stroke-width: 1.000000; stroke-linejoin: round; stroke-linecap: square;  opacity: 1.000000"  d="M90.000000 50.400000L648.000000 50.400000"/>
</g>
<g id="patch4">
<path style="fill: none; stroke: #000000; stroke-width: 1.000000; stroke-linejoin: round; stroke-linecap: square;  opacity: 1.000000"  d="M648.000000 453.600000L648.000000 50.400000"/>
</g>
<g id="patch5">
<path style="fill: none; stroke: #000000; stroke-width: 1.000000; stroke-linejoin: round; stroke-linecap: square;  opacity: 1.000000"  d="M90.000000 453.600000L648.000000 453.600000"/>
</g>
<g id="patch6">
<path style="fill: none; stroke: #000000; stroke-width: 1.000000; stroke-linejoin: round; stroke-linecap: square;  opacity: 1.000000"  d="M90.000000 453.600000L90.000000 50.400000"/>
</g>
<g id="legend1">
<g id="patch7">
<path style="fill: #ffffff; stroke: #000000; stroke-width: 1.000000; stroke-linejoin: round; stroke-linecap: square;  opacity: 1.000000"  d="M97.200000 144.907500L267.258750 144.907500L267.258750 57.600000
L97.200000 57.600000L97.200000 144.907500z"/>
</g>
<g id="line2d50">
<path style="fill: none; stroke: #ff0000; stroke-width: 3.000000; stroke-linejoin: round; stroke-linecap: square;  opacity: 1.000000"  d="M107.280000 68.960625L127.440000 68.960625"/>
</g>
<g id="line2d51">
</g>
<g id="text17">
<defs>
<path id="c_fabc000b0fb83f456ee9f092ad635e20" d="M9.812500 -72.906250l13.281250 0.000000l32.328125 60.984375l0.000000 -60.984375l9.562500 0.000000l0.000000 72.906250l-13.281250 0.000000l-32.312500 -60.984375l0.000000 60.984375l-9.578125 0.000000z"/>
<path id="c_c438d87e693443c2861ebd6359e6491e" d="M8.500000 -21.578125l0.000000 -33.109375l8.984375 0.000000l0.000000 32.765625q0.000000 7.765625 3.015625 11.656250q3.031250 3.875000 9.093750 3.875000q7.265625 0.000000 11.484375 -4.640625q4.234375 -4.640625 4.234375 -12.656250l0.000000 -31.000000l8.984375 0.000000l0.000000 54.687500l-8.984375 0.000000l0.000000 -8.406250q-3.265625 4.984375 -7.593750 7.406250q-4.312500 2.421875 -10.031250 2.421875q-9.421875 0.000000 -14.312500 -5.859375q-4.875000 -5.859375 -4.875000 -17.140625"/>
<path id="c_4653c6dfde66c7610eae0911760d3490" d="M52.000000 -44.187500q3.375000 -6.062500 8.062500 -8.937500q4.687500 -2.875000 11.031250 -2.875000q8.546875 0.000000 13.187500 5.984375q4.640625 5.968750 4.640625 17.000000l0.000000 33.015625l-9.031250 0.000000l0.000000 -32.718750q0.000000 -7.859375 -2.796875 -11.656250q-2.781250 -3.812500 -8.484375 -3.812500q-6.984375 0.000000 -11.046875 4.640625q-4.046875 4.625000 -4.046875 12.640625l0.000000 30.906250l-9.031250 0.000000l0.000000 -32.718750q0.000000 -7.906250 -2.781250 -11.687500q-2.781250 -3.781250 -8.593750 -3.781250q-6.890625 0.000000 -10.953125 4.656250q-4.046875 4.656250 -4.046875 12.625000l0.000000 30.906250l-9.031250 0.000000l0.000000 -54.687500l9.031250 0.000000l0.000000 8.500000q3.078125 -5.031250 7.375000 -7.421875q4.296875 -2.390625 10.203125 -2.390625q5.968750 0.000000 10.140625 3.031250q4.171875 3.015625 6.171875 8.781250"/>
<path id="c_518d586bee075aa0153eaebfcb5ab11f" d="M19.671875 -64.796875l0.000000 27.390625l12.406250 0.000000q6.890625 0.000000 10.640625 -3.562500q3.765625 -3.562500 3.765625 -10.156250q0.000000 -6.546875 -3.765625 -10.109375q-3.750000 -3.562500 -10.640625 -3.562500zM9.812500 -72.906250l22.265625 0.000000q12.265625 0.000000 18.531250 5.546875q6.281250 5.546875 6.281250 16.234375q0.000000 10.796875 -6.281250 16.312500q-6.265625 5.515625 -18.531250 5.515625l-12.406250 0.000000l0.000000 29.296875l-9.859375 0.000000z"/>
<path id="c_3fe22c4af425ac970aec982ae9662abe" d="M32.171875 5.078125q-3.796875 9.765625 -7.421875 12.734375q-3.609375 2.984375 -9.656250 2.984375l-7.187500 0.000000l0.000000 -7.515625l5.281250 0.000000q3.703125 0.000000 5.750000 -1.765625q2.062500 -1.750000 4.546875 -8.296875l1.609375 -4.093750l-22.109375 -53.812500l9.515625 0.000000l17.093750 42.765625l17.093750 -42.765625l9.515625 0.000000z"/>
<path id="c_7efa9804c2b4c09a4b614b91fdebee3d" d="M31.000000 -75.875000q-6.531250 11.218750 -9.718750 22.218750q-3.171875 10.984375 -3.171875 22.265625q0.000000 11.265625 3.203125 22.328125q3.203125 11.062500 9.687500 22.250000l-7.812500 0.000000q-7.312500 -11.484375 -10.953125 -22.562500q-3.640625 -11.078125 -3.640625 -22.015625q0.000000 -10.890625 3.609375 -21.921875q3.625000 -11.046875 10.984375 -22.562500z"/>
<path id="c_ff9441f72805bc441fcb0bfe0d774f13" d="M19.671875 -64.796875l0.000000 56.687500l11.921875 0.000000q15.093750 0.000000 22.093750 -6.828125q7.000000 -6.843750 7.000000 -21.593750q0.000000 -14.640625 -7.000000 -21.453125q-7.000000 -6.812500 -22.093750 -6.812500zM9.812500 -72.906250l20.265625 0.000000q21.187500 0.000000 31.093750 8.812500q9.921875 8.812500 9.921875 27.562500q0.000000 18.859375 -9.968750 27.703125q-9.953125 8.828125 -31.046875 8.828125l-20.265625 0.000000z"/>
<path id="c_0bce5afba2dc6b9024b26277c38ad8e8" d="M56.203125 -29.593750l0.000000 4.390625l-41.312500 0.000000q0.593750 9.281250 5.593750 14.140625q5.000000 4.859375 13.937500 4.859375q5.171875 0.000000 10.031250 -1.265625q4.859375 -1.265625 9.656250 -3.812500l0.000000 8.500000q-4.843750 2.046875 -9.921875 3.125000q-5.078125 1.078125 -10.296875 1.078125q-13.093750 0.000000 -20.734375 -7.609375q-7.640625 -7.625000 -7.640625 -20.625000q0.000000 -13.421875 7.250000 -21.296875q7.250000 -7.890625 19.562500 -7.890625q11.031250 0.000000 17.453125 7.109375q6.421875 7.093750 6.421875 19.296875M47.218750 -32.234375q-0.093750 -7.359375 -4.125000 -11.750000q-4.031250 -4.406250 -10.671875 -4.406250q-7.515625 0.000000 -12.031250 4.250000q-4.515625 4.250000 -5.203125 11.968750z"/>
<path id="c_5cc9741494d2ad8f9764e03ae145569f" d="M48.687500 -27.296875q0.000000 -9.906250 -4.078125 -15.546875q-4.078125 -5.640625 -11.203125 -5.640625q-7.140625 0.000000 -11.218750 5.640625q-4.078125 5.640625 -4.078125 15.546875q0.000000 9.906250 4.078125 15.546875q4.078125 5.640625 11.218750 5.640625q7.125000 0.000000 11.203125 -5.640625q4.078125 -5.640625 4.078125 -15.546875M18.109375 -46.390625q2.843750 -4.875000 7.156250 -7.234375q4.328125 -2.375000 10.328125 -2.375000q9.968750 0.000000 16.187500 7.906250q6.234375 7.906250 6.234375 20.796875q0.000000 12.890625 -6.234375 20.812500q-6.218750 7.906250 -16.187500 7.906250q-6.000000 0.000000 -10.328125 -2.375000q-4.312500 -2.375000 -7.156250 -7.250000l0.000000 8.203125l-9.031250 0.000000l0.000000 -75.984375l9.031250 0.000000z"/>
<path id="c_e96974be642f6eac0427d72f9cec6c19" d="M8.015625 -75.875000l7.812500 0.000000q7.312500 11.515625 10.953125 22.562500q3.640625 11.031250 3.640625 21.921875q0.000000 10.937500 -3.640625 22.015625q-3.640625 11.078125 -10.953125 22.562500l-7.812500 0.000000q6.484375 -11.187500 9.687500 -22.250000q3.203125 -11.062500 3.203125 -22.328125q0.000000 -11.281250 -3.203125 -22.265625q-3.203125 -11.000000 -9.687500 -22.218750"/>
</defs>
<g style="fill: #000000; opacity: 1.000000" transform="translate(143.280000,74.000625)scale(0.144000)">
<use xlink:href="#c_fabc000b0fb83f456ee9f092ad635e20"/>
<use xlink:href="#c_c438d87e693443c2861ebd6359e6491e" x="74.804688"/>
<use xlink:href="#c_4653c6dfde66c7610eae0911760d3490" x="138.183594"/>
<use xlink:href="#c_518d586bee075aa0153eaebfcb5ab11f" x="235.595703"/>
<use xlink:href="#c_3fe22c4af425ac970aec982ae9662abe" x="295.898438"/>
<use xlink:href="#c_d41d8cd98f00b204e9800998ecf8427e" x="355.078125"/>
<use xlink:href="#c_7efa9804c2b4c09a4b614b91fdebee3d" x="386.865234"/>
<use xlink:href="#c_ff9441f72805bc441fcb0bfe0d774f13" x="425.878906"/>
<use xlink:href="#c_0bce5afba2dc6b9024b26277c38ad8e8" x="502.880859"/>
<use xlink:href="#c_5cc9741494d2ad8f9764e03ae145569f" x="564.404297"/>
<use xlink:href="#c_6a63bda47b2f3da1cec6aadd80692cfe" x="627.880859"/>
<use xlink:href="#c_01d93a582460e35a7945ca50d148ffeb" x="655.664062"/>
<use xlink:href="#c_fe791a90f5471e2ab20a5ed41a7fa451" x="716.943359"/>
<use xlink:href="#c_e96974be642f6eac0427d72f9cec6c19" x="780.322266"/>
</g>
</g>
<g id="line2d52">
<path style="fill: none; stroke: #ff0000; stroke-width: 2.000000; stroke-linejoin: round; stroke-linecap: butt; stroke-dasharray: 6.000000,6.000000; stroke-dashoffset: 0.000000; opacity: 1.000000"  d="M107.280000 89.707500L127.440000 89.707500"/>
</g>
<g id="line2d53">
</g>
<g id="text18">
<defs>
<path id="c_b672e4bee30772019085dff1098f516d" d="M53.515625 -70.515625l0.000000 9.625000q-5.609375 -2.687500 -10.593750 -4.000000q-4.984375 -1.328125 -9.625000 -1.328125q-8.046875 0.000000 -12.421875 3.125000q-4.375000 3.125000 -4.375000 8.890625q0.000000 4.843750 2.906250 7.312500q2.906250 2.453125 11.015625 3.968750l5.953125 1.218750q11.031250 2.109375 16.281250 7.406250q5.250000 5.296875 5.250000 14.171875q0.000000 10.609375 -7.109375 16.078125q-7.093750 5.468750 -20.812500 5.468750q-5.171875 0.000000 -11.015625 -1.171875q-5.828125 -1.171875 -12.078125 -3.468750l0.000000 -10.156250q6.000000 3.359375 11.765625 5.078125q5.765625 1.703125 11.328125 1.703125q8.437500 0.000000 13.031250 -3.312500q4.593750 -3.328125 4.593750 -9.484375q0.000000 -5.359375 -3.296875 -8.390625q-3.296875 -3.031250 -10.812500 -4.546875l-6.015625 -1.171875q-11.031250 -2.187500 -15.968750 -6.875000q-4.921875 -4.687500 -4.921875 -13.046875q0.000000 -9.671875 6.812500 -15.234375q6.812500 -5.562500 18.765625 -5.562500q5.140625 0.000000 10.453125 0.937500q5.328125 0.921875 10.890625 2.765625"/>
<path id="c_d650c37394b681142a10dfc54356d478" d="M48.781250 -52.593750l0.000000 8.406250q-3.812500 -2.109375 -7.640625 -3.156250q-3.828125 -1.046875 -7.734375 -1.046875q-8.750000 0.000000 -13.593750 5.546875q-4.828125 5.531250 -4.828125 15.546875q0.000000 10.015625 4.828125 15.562500q4.843750 5.531250 13.593750 5.531250q3.906250 0.000000 7.734375 -1.046875q3.828125 -1.046875 7.640625 -3.156250l0.000000 8.312500q-3.765625 1.750000 -7.796875 2.625000q-4.015625 0.890625 -8.562500 0.890625q-12.359375 0.000000 -19.640625 -7.765625q-7.265625 -7.765625 -7.265625 -20.953125q0.000000 -13.375000 7.343750 -21.031250q7.359375 -7.671875 20.156250 -7.671875q4.140625 0.000000 8.093750 0.859375q3.953125 0.843750 7.671875 2.546875"/>
</defs>
<g style="fill: #000000; opacity: 1.000000" transform="translate(143.280000,94.747500)scale(0.144000)">
<use xlink:href="#c_b672e4bee30772019085dff1098f516d"/>
<use xlink:href="#c_d650c37394b681142a10dfc54356d478" x="63.476562"/>
<use xlink:href="#c_6a63bda47b2f3da1cec6aadd80692cfe" x="118.457031"/>
<use xlink:href="#c_518d586bee075aa0153eaebfcb5ab11f" x="146.240234"/>
<use xlink:href="#c_3fe22c4af425ac970aec982ae9662abe" x="206.542969"/>
<use xlink:href="#c_d41d8cd98f00b204e9800998ecf8427e" x="265.722656"/>
<use xlink:href="#c_7efa9804c2b4c09a4b614b91fdebee3d" x="297.509766"/>
<use xlink:href="#c_ff9441f72805bc441fcb0bfe0d774f13" x="336.523438"/>
<use xlink:href="#c_0bce5afba2dc6b9024b26277c38ad8e8" x="413.525391"/>
<use xlink:href="#c_5cc9741494d2ad8f9764e03ae145569f" x="475.048828"/>
<use xlink:href="#c_6a63bda47b2f3da1cec6aadd80692cfe" x="538.525391"/>
<use xlink:href="#c_01d93a582460e35a7945ca50d148ffeb" x="566.308594"/>
<use xlink:href="#c_fe791a90f5471e2ab20a5ed41a7fa451" x="627.587891"/>
<use xlink:href="#c_e96974be642f6eac0427d72f9cec6c19" x="690.966797"/>
</g>
</g>
<g id="line2d54">
<path style="fill: none; stroke: #0000ff; stroke-width: 3.000000; stroke-linejoin: round; stroke-linecap: square;  opacity: 1.000000"  d="M107.280000 110.454375L127.440000 110.454375"/>
</g>
<g id="line2d55">
</g>
<g id="text19">
<defs>
<path id="c_f0b2f1db24a99c7a6a1fa56820ca5a8a" d="M8.687500 -72.906250l9.921875 0.000000l0.000000 44.296875q0.000000 11.718750 4.234375 16.875000q4.250000 5.140625 13.781250 5.140625q9.468750 0.000000 13.718750 -5.140625q4.250000 -5.156250 4.250000 -16.875000l0.000000 -44.296875l9.906250 0.000000l0.000000 45.515625q0.000000 14.250000 -7.062500 21.531250q-7.046875 7.281250 -20.812500 7.281250q-13.828125 0.000000 -20.890625 -7.281250q-7.046875 -7.281250 -7.046875 -21.531250z"/>
</defs>
<g style="fill: #000000; opacity: 1.000000" transform="translate(143.280000,115.494375)scale(0.144000)">
<use xlink:href="#c_fabc000b0fb83f456ee9f092ad635e20"/>
<use xlink:href="#c_c438d87e693443c2861ebd6359e6491e" x="74.804688"/>
<use xlink:href="#c_4653c6dfde66c7610eae0911760d3490" x="138.183594"/>
<use xlink:href="#c_518d586bee075aa0153eaebfcb5ab11f" x="235.595703"/>
<use xlink:href="#c_3fe22c4af425ac970aec982ae9662abe" x="295.898438"/>
<use xlink:href="#c_d41d8cd98f00b204e9800998ecf8427e" x="355.078125"/>
<use xlink:href="#c_7efa9804c2b4c09a4b614b91fdebee3d" x="386.865234"/>
<use xlink:href="#c_f0b2f1db24a99c7a6a1fa56820ca5a8a" x="425.878906"/>
<use xlink:href="#c_5cc9741494d2ad8f9764e03ae145569f" x="499.072266"/>
<use xlink:href="#c_c438d87e693443c2861ebd6359e6491e" x="562.548828"/>
<use xlink:href="#c_fe791a90f5471e2ab20a5ed41a7fa451" x="625.927734"/>
<use xlink:href="#c_0f8c41144cfbf448378cb6fd1cc8e549" x="689.306641"/>
<use xlink:href="#c_c438d87e693443c2861ebd6359e6491e" x="728.515625"/>
<use xlink:href="#c_e96974be642f6eac0427d72f9cec6c19" x="791.894531"/>
</g>
</g>
<g id="line2d56">
<path style="fill: none; stroke: #0000ff; stroke-width: 2.000000; stroke-linejoin: round; stroke-linecap: butt; stroke-dasharray: 6.000000,6.000000; stroke-dashoffset: 0.000000; opacity: 1.000000"  d="M107.280000 131.201250L127.440000 131.201250"/>
</g>
<g id="line2d57">
</g>
<g id="text20">
<g style="fill: #000000; opacity: 1.000000" transform="translate(143.280000,136.241250)scale(0.144000)">
<use xlink:href="#c_b672e4bee30772019085dff1098f516d"/>
<use xlink:href="#c_d650c37394b681142a10dfc54356d478" x="63.476562"/>
<use xlink:href="#c_6a63bda47b2f3da1cec6aadd80692cfe" x="118.457031"/>
<use xlink:href="#c_518d586bee075aa0153eaebfcb5ab11f" x="146.240234"/>
<use xlink:href="#c_3fe22c4af425ac970aec982ae9662abe" x="206.542969"/>
<use xlink:href="#c_d41d8cd98f00b204e9800998ecf8427e" x="265.722656"/>
<use xlink:href="#c_7efa9804c2b4c09a4b614b91fdebee3d" x="297.509766"/>
<use xlink:href="#c_f0b2f1db24a99c7a6a1fa56820ca5a8a" x="336.523438"/>
<use xlink:href="#c_5cc9741494d2ad8f9764e03ae145569f" x="409.716797"/>
<use xlink:href="#c_c438d87e693443c2861ebd6359e6491e" x="473.193359"/>
<use xlink:href="#c_fe791a90f5471e2ab20a5ed41a7fa451" x="536.572266"/>
<use xlink:href="#c_0f8c41144cfbf448378cb6fd1cc8e549" x="599.951172"/>
<use xlink:href="#c_c438d87e693443c2861ebd6359e6491e" x="639.160156"/>
<use xlink:href="#c_e96974be642f6eac0427d72f9cec6c19" x="702.539063"/>
</g>
</g>
</g>
</g>
</g>
</svg>
