<?xml version="1.0" standalone="no"?>
<!DOCTYPE svg PUBLIC "-//W3C//DTD SVG 1.1//EN"
  "http://www.w3.org/Graphics/SVG/1.1/DTD/svg11.dtd">
<!-- Created with matplotlib (http://matplotlib.sourceforge.net/) -->
<svg width="720pt" height="504pt" viewBox="0 0 720 504"
   xmlns="http://www.w3.org/2000/svg"
   xmlns:xlink="http://www.w3.org/1999/xlink"
   version="1.1"
   id="svg1">
<filter id="colorAdd"><feComposite in="SourceGraphic" in2="BackgroundImage" operator="arithmetic" k2="1" k3="1"/></filter>
<g id="figure1">
<g id="patch1">
<path style="fill: #ffffff; stroke: #ffffff; stroke-width: 1.000000; stroke-linejoin: round; stroke-linecap: square;  opacity: 1.000000"  d="M0.000000 504.000000L720.000000 504.000000L720.000000 0.000000
L0.000000 0.000000z"/>
</g>
<g id="axes1">
<g id="patch2">
<path style="fill: #ffffff; opacity: 1.000000"  d="M90.000000 453.600000L648.000000 453.600000L648.000000 50.400000
L90.000000 50.400000z"/>
</g>
<g id="line2d1">
<defs>
  <clipPath id="p6d54bdcfc682fd2a5eb67e424bad820e">
<rect x="90.000000" y="50.400000" width="558.000000" height="403.200000"/>
  </clipPath>
</defs><path style="fill: none; stroke: #ff0000; stroke-width: 3.000000; stroke-linejoin: round; stroke-linecap: square;  opacity: 1.000000" clip-path="url(#p6d54bdcfc682fd2a5eb67e424bad820e)" d="M89.716607 -1512.989634"/>
</g>
<g id="line2d2">
<path style="fill: none; stroke: #ff0000; stroke-width: 2.000000; stroke-linejoin: round; stroke-linecap: butt; stroke-dasharray: 6.000000,6.000000; stroke-dashoffset: 0.000000; opacity: 1.000000" clip-path="url(#p6d54bdcfc682fd2a5eb67e424bad820e)" d="M89.716607 219.859492L90.425089 218.908683L91.133570 218.474417
L91.842052 216.602332L92.550533 216.264375L93.259015 215.057558
L93.967496 214.817872L95.384459 211.660366L96.092941 212.154336
L96.801422 211.653381L98.218385 210.350725L98.926866 210.495522
L99.635348 209.250854L100.343829 209.471047L102.469274 211.596946
L103.177755 211.816162L103.886237 211.566776L104.594718 210.760268
L105.303200 210.882933L106.011681 211.851040L106.720163 213.301418
L107.428644 212.688925L108.137125 213.765160L108.845607 214.321166
L109.554088 213.931855L110.262570 214.735732L110.971051 214.503675
L111.679533 214.606193L112.388014 214.536955L113.804977 214.671632
L115.221940 213.885755L115.930422 212.513717L116.638903 212.782942
L117.347384 213.284671L118.055866 212.719640L118.764347 212.768558
L119.472829 211.043692L120.181310 210.938024L121.598273 210.334089
L122.306755 210.568125L123.015236 209.934345L123.723718 211.055810
L124.432199 212.950808L125.140681 213.000165L125.849162 212.383241
L126.557643 213.413520L128.683088 211.705361L129.391569 213.168935
L130.808532 212.107924L131.517014 211.196156L132.225495 211.644678
L132.933977 211.128256L133.642458 210.782877L135.059421 211.026820
L136.476384 212.404073L137.184865 212.681832L137.893347 211.466962
L138.601828 211.253108L139.310310 210.793960L140.018791 209.315468
L140.727273 208.708240L141.435754 208.637084L142.144236 208.316569
L142.852717 210.221000L143.561199 210.780279L144.269680 208.481530
L144.978162 208.043670L145.686643 208.268558L146.395124 207.563529
L147.103606 208.026500L147.812087 208.263652L149.229050 206.347633
L149.937532 207.104526L150.646013 208.059730L152.062976 205.835056
L152.771458 205.923429L153.479939 205.610001L154.188421 206.239948
L154.896902 206.548621L156.313865 206.933179L157.022346 205.959727
L157.730828 205.579121L158.439309 205.675864L159.147791 204.932172
L159.856272 204.986659L160.564754 204.266866L161.273235 204.255381
L162.690198 204.854434L163.398680 206.051996L164.107161 205.166873
L164.815642 204.682445L165.524124 203.138313L166.232605 202.961619
L166.941087 203.445623L167.649568 203.432028L168.358050 202.819715
L169.066531 201.921551L170.483494 202.059545L171.191976 201.790560
L171.900457 200.852702L172.608939 201.184589L173.317420 201.057791
L174.025901 201.151959L174.734383 200.611765L175.442864 199.153847
L176.151346 199.453860L176.859827 197.862160L177.568309 196.780800
L178.276790 195.962255L178.985272 196.275887L179.693753 195.936237
L180.402235 197.773927L181.819198 195.554208L182.527679 194.799795
L183.236160 194.476592L183.944642 193.940149L186.070086 196.451518
L187.487049 197.031439L188.195531 197.892122L188.904012 197.400285
L189.612494 197.433691L190.320975 198.274741L191.029457 197.175657
L191.737938 198.000906L192.446420 198.367011L193.154901 198.240756
L193.863382 196.564882L194.571864 196.001890L195.280345 195.867684
L195.988827 194.929501L196.697308 195.312643L197.405790 195.884629
L198.114271 195.544756L198.822753 195.808555L199.531234 196.446562
L200.239716 195.616895L200.948197 196.300836L201.656679 194.738824
L202.365160 194.408606L203.073641 194.837224L203.782123 192.545668
L204.490604 192.012869L205.199086 191.799435L205.907567 191.335510
L206.616049 190.410100L207.324530 189.943778L208.033012 189.940827
L208.741493 190.129629L209.449975 191.640146L210.158456 190.840314
L210.866938 190.869260L211.575419 190.706471L212.283900 191.970800
L213.700863 189.570532L214.409345 187.739016L215.117826 186.963700
L215.826308 187.835593L217.243271 188.239196L218.660234 185.370701
L219.368715 186.491586L220.077197 186.759236L220.785678 186.259857
L221.494159 186.991182L222.202641 186.993635L222.911122 188.353698
L223.619604 186.714319L224.328085 186.314366L225.036567 186.115448
L225.745048 186.806265L226.453530 187.096916L227.162011 186.061341
L227.870493 186.941833L229.287456 185.255187L229.995937 185.498326
L230.704418 186.174889L231.412900 184.929628L232.121381 185.984603
L232.829863 183.419832L233.538344 182.305694L234.246826 182.156348
L234.955307 181.496656L235.663789 181.621549L236.372270 183.025743
L237.080752 181.895520L237.789233 182.772594L238.497715 181.377515
L239.206196 181.566480L239.914678 181.207379L240.623159 180.986121
L241.331640 181.753023L242.040122 182.878948L242.748603 183.266812
L243.457085 183.423630L244.165566 182.618970L244.874048 183.431947
L245.582529 184.593647L246.291011 184.519116L246.999492 183.838592
L247.707974 184.155124L248.416455 182.808624L249.124937 184.167445
L249.833418 184.418436L250.541899 184.406930L251.250381 183.055898
L251.958862 183.899512L252.667344 182.605314L253.375825 184.612749
L254.084307 183.609608L254.792788 183.839534L255.501270 183.799533
L256.209751 184.477645L256.918233 184.087802L257.626714 184.380591
L258.335196 182.970182L259.043677 183.047541L259.752158 182.513120
L261.877603 181.919389L262.586084 181.202464L263.294566 181.357102
L264.003047 180.500640L264.711529 181.491085L265.420010 179.833943
L266.128492 180.471166L266.836973 180.608738L267.545455 181.006629
L268.253936 180.139851L268.962417 178.833989L269.670899 178.205848
L270.379380 177.233019L271.087862 177.366102L271.796343 177.955916
L272.504825 177.854203L273.213306 177.554353L273.921788 176.376035
L274.630269 175.425748L275.338751 175.840685L276.047232 175.558341
L276.755714 175.741369L278.172676 175.413594L279.589639 175.435014
L280.298121 174.167803L281.715084 172.892251L282.423565 173.517601
L283.132047 172.238594L283.840528 172.446881L284.549010 172.521702
L285.257491 173.477783L285.965973 172.422926L287.382936 172.813483
L288.091417 171.304691L288.799898 171.250156L289.508380 170.045741
L290.216861 169.615842L290.925343 169.785085L292.342306 169.573343
L293.050787 168.421421L293.759269 168.057212L294.467750 167.454161
L295.176232 167.890608L295.884713 167.695913L296.593195 168.680157
L297.301676 169.352539L298.010157 169.802219L298.718639 170.719563
L299.427120 170.123671L300.844083 169.335167L301.552565 170.901514
L302.969528 171.860870L303.678009 171.974816L304.386491 171.335915
L305.094972 170.856611L305.803454 171.543337L306.511935 170.831902
L307.220416 169.799980L307.928898 169.977690L308.637379 169.941267
L309.345861 170.242393L310.054342 171.172007L310.762824 171.629673
L311.471305 171.034435L312.179787 171.372271L312.888268 169.756129
L313.596750 169.822874L314.305231 170.111747L315.013713 170.542164
L315.722194 171.881463L316.430675 172.294964L317.139157 171.925098
L317.847638 172.230205L318.556120 172.233969L319.264601 172.849900
L319.973083 171.927280L320.681564 171.962573L322.098527 173.785015
L322.807009 173.302095L323.515490 172.543970L324.223972 172.452297
L324.932453 172.145502L325.640934 170.769504L326.349416 170.515716
L327.057897 169.520498L327.766379 169.991446L329.183342 170.580195
L329.891823 169.596513L330.600305 168.961005L331.308786 168.695964
L332.017268 168.122735L332.725749 167.817262L333.434231 167.259249
L334.142712 167.692364L334.851193 168.421254L336.976638 167.605165
L337.685119 167.826521L338.393601 169.145475L339.102082 168.505983
L339.810564 168.048007L340.519045 168.521971L341.227527 168.462469
L341.936008 167.446053L342.644490 166.793978L343.352971 166.481926
L344.061453 166.637957L344.769934 167.346140L345.478415 167.015324
L346.186897 167.081271L346.895378 167.411834L347.603860 167.102587
L348.312341 169.160215L349.020823 169.248810L349.729304 168.818123
L350.437786 168.021139L351.146267 166.189705L351.854749 166.612341
L352.563230 166.708287L353.271712 166.921270L353.980193 167.755470
L354.688674 167.890480L355.397156 167.331733L356.105637 165.917514
L357.522600 166.584897L358.231082 167.601629L358.939563 166.665503
L359.648045 167.194902L360.356526 167.339756L361.065008 167.235098
L361.773489 168.091590L363.190452 165.335831L363.898933 164.163474
L364.607415 165.346229L365.315896 166.055826L366.732859 165.698435
L367.441341 165.861873L368.149822 165.109267L368.858304 163.863733
L369.566785 161.363867L370.275267 161.675214L370.983748 160.418534
L371.692230 160.625035L373.109192 159.824548L373.817674 159.771633
L374.526155 160.402716L375.234637 161.449122L375.943118 159.987553
L376.651600 159.410640L377.360081 158.253725L378.068563 158.853843
L378.777044 161.254499L379.485526 160.290765L380.194007 161.858585
L380.902489 162.518122L382.319451 160.772676L383.027933 160.647748
L384.444896 159.541264L385.153377 159.693739L385.861859 160.251350
L386.570340 160.248046L387.278822 160.639053L387.987303 160.121769
L388.695785 160.738077L390.112748 162.430551L390.821229 162.383603
L391.529711 161.906279L392.238192 163.554182L392.946673 163.860787
L393.655155 162.913169L394.363636 163.573629L395.780599 162.746898
L396.489081 162.167405L397.197562 160.773520L397.906044 161.211062
L398.614525 162.905523L399.323007 162.982733L400.031488 162.173717
L400.739970 161.957937L401.448451 162.854042L402.156932 162.208615
L402.865414 163.747054L403.573895 162.520974L404.282377 162.715889
L404.990858 162.408864L405.699340 162.712631L406.407821 163.354226
L407.116303 163.337352L408.533266 161.966126L409.241747 160.630773
L409.950229 161.087878L410.658710 160.033037L411.367191 160.177725
L412.075673 158.904956L412.784154 160.151498L413.492636 160.162337
L414.201117 159.763303L414.909599 159.729043L415.618080 159.945835
L416.326562 161.299506L417.035043 160.932539L417.743525 159.848580
L418.452006 160.743969L419.160488 160.201568L421.285932 161.813673
L421.994413 161.722090L422.702895 161.331632L423.411376 162.509099
L424.119858 163.021050L424.828339 163.094467L425.536821 161.592643
L426.245302 162.612765L426.953784 162.730337L427.662265 162.311424
L428.370747 161.633160L429.079228 162.526689L429.787709 163.130858
L430.496191 162.556251L431.204672 162.753240L431.913154 161.701575
L432.621635 162.787510L433.330117 161.091409L434.038598 160.422719
L434.747080 160.560234L435.455561 160.354754L436.872524 160.635845
L437.581006 161.716211L438.289487 161.566404L438.997969 161.734455
L439.706450 162.753584L440.414931 161.485261L441.123413 160.787670
L441.831894 160.370408L442.540376 161.030908L443.248857 161.239522
L443.957339 161.724388L444.665820 158.791707L445.374302 158.103953
L446.082783 158.687771L447.499746 159.278845L448.208228 156.619677
L448.916709 157.157720L451.042153 155.341841L451.750635 155.589242
L452.459116 156.048577L453.167598 155.367138L453.876079 154.980801
L454.584561 155.521428L455.293042 156.358023L456.001524 156.146077
L456.710005 156.329060L457.418487 157.430219L458.126968 157.246353
L458.835449 156.898723L459.543931 157.024028L460.252412 157.718398
L460.960894 157.657791L461.669375 156.946944L462.377857 156.855235
L463.794820 158.207600L464.503301 157.527314L465.211783 158.416079
L466.628746 157.626430L467.337227 157.140841L468.045708 156.126117
L468.754190 156.025523L469.462671 156.244871L470.171153 155.755579
L471.588116 156.771359L472.296597 156.441545L473.005079 157.002835
L474.422042 157.472776L475.130523 156.437714L475.839005 155.657157
L476.547486 155.218626L477.255967 156.267967L477.964449 156.323442
L478.672930 155.853087L480.089893 157.799202L481.506856 158.660666
L482.923819 162.707430L483.632301 161.512185L484.340782 161.863049
L485.049264 160.828153L485.757745 161.274633L486.466227 162.274637
L487.174708 162.746458L487.883189 162.714400L488.591671 163.371717
L489.300152 163.607348L490.008634 164.931463L490.717115 165.562108
L491.425597 165.105561L492.134078 164.359991L492.842560 164.967212
L493.551041 164.503300L494.259523 164.270721L494.968004 162.527489
L495.676486 161.164660L496.384967 160.106449L497.093448 160.032054
L497.801930 159.293431L498.510411 158.921093L499.218893 150.954811
L499.927374 144.986797L500.635856 145.172113L501.344337 144.164847
L502.052819 113.922360L502.761300 97.594634L503.469782 87.984599
L504.178263 88.532222L504.886745 89.285529L505.595226 89.782300
L507.012189 88.214817L507.720670 88.637746L508.429152 88.538160
L509.137633 87.807134L509.846115 88.210903L510.554596 89.276306
L511.263078 89.566541L512.680041 88.595283L513.388522 89.538021
L514.097004 91.655452L514.805485 98.890062L515.513966 99.470504
L516.222448 101.542037L516.930929 131.418283L517.639411 146.085421
L518.347892 155.066429L519.056374 162.369263L519.764855 161.935056
L520.473337 161.678327L521.181818 136.048333L521.890300 136.028943
L522.598781 137.028083L524.015744 135.219524L524.724225 135.293776
L525.432707 135.652251L526.849670 133.939442L527.558151 131.886988
L529.683596 129.288533L530.392077 130.074962L532.517522 129.772942
L533.226003 131.472638L533.934485 131.382723L534.642966 131.493142
L535.351447 131.801776L536.059929 131.147441L537.476892 128.451301
L538.185373 128.416699L544.561706 128.416699L545.270188 125.688776
L545.978669 125.178947L546.687151 124.816572L547.395632 123.477663
L548.812595 124.005579L549.521077 123.395864L550.229558 123.731352
L550.938040 122.920904L551.646521 121.841630L552.355003 122.420881
L553.063484 122.160970L553.771965 123.100852L554.480447 122.377009
L555.188928 121.155962L555.897410 121.217852L556.605891 121.148745
L557.314373 119.234167L558.022854 119.257685L558.731336 119.889483
L559.439817 120.130906L560.148299 119.538748L560.856780 118.595377
L561.565262 118.597408L562.982224 119.848590L563.690706 120.896128
L564.399187 120.396663L565.107669 120.766393L566.524632 120.427869
L567.233113 119.678351L567.941595 118.677347L568.650076 119.029734
L569.358558 118.849492L570.067039 119.386832L570.775521 118.238873
L571.484002 118.244672L572.192483 119.054138L572.900965 119.040013
L573.609446 118.383217L574.317928 118.163233L575.026409 117.184170
L575.734891 116.634114L577.151854 116.033843L577.860335 114.652905
L578.568817 113.916990L579.277298 112.871806L579.985780 112.624336
L580.694261 114.023224L581.402743 113.516145L582.111224 113.248245
L583.528187 113.481181L584.236668 113.365561L584.945150 110.775539
L585.653631 108.706679L586.362113 109.031963L587.070594 108.331756
L587.779076 108.663225L589.196039 107.392335L589.904520 108.320538
L590.613002 109.714693L591.321483 109.657680L592.029964 109.154400
L592.738446 109.748416L593.446927 109.970945L594.155409 109.323897
L594.863890 109.798588L595.572372 109.697721L596.280853 110.602233
L596.989335 109.418023L597.697816 109.242004L598.406298 107.863930
L599.114779 107.036040L599.823261 107.804920L600.531742 108.262415
L601.240223 108.124826L601.948705 107.617380L602.657186 108.843603
L603.365668 109.156929L604.074149 109.967799L604.782631 110.464565
L605.491112 109.360085L606.199594 111.108997L606.908075 111.096578
L607.616557 109.621976L608.325038 110.949883L609.033520 111.864819
L609.742001 112.381871L612.575927 109.734472L613.284408 109.565423
L613.992890 108.903472L614.701371 108.067114L615.409853 107.580593
L616.118334 107.680797L616.826816 107.230290L617.535297 106.235882
L618.952260 104.856267L619.660741 102.971134L620.369223 102.083858
L621.077704 100.208215L621.786186 99.562394L622.494667 100.468481
L623.203149 99.376147L623.911630 99.498065L624.620112 98.736017
L625.328593 99.148690L626.037075 98.435453L626.745556 98.389049
L627.454038 97.331229L628.162519 95.934178L628.871001 96.126374
L629.579482 95.983771L630.287963 96.778258L631.704926 77.920559
L632.413408 78.706845L633.121889 78.373144L633.830371 72.399746
L634.538852 72.600995L635.247334 72.093093L635.955815 71.237459
L637.372778 70.713043L638.081260 70.225816L638.789741 70.084099
L640.206704 68.793716L640.915185 71.662040L641.623667 70.861503
L642.332148 70.861910L643.040630 71.512739L643.749111 73.137294
L644.457593 73.969793L645.166074 75.029402L645.874556 75.671647
L646.583037 92.284595L647.291519 92.131507L648.000000 93.613159
L648.000000 93.613159"/>
</g>
<g id="line2d3">
<path style="fill: none; stroke: #0000ff; stroke-width: 3.000000; stroke-linejoin: round; stroke-linecap: square;  opacity: 1.000000" clip-path="url(#p6d54bdcfc682fd2a5eb67e424bad820e)" d="M209.449975 -1004.577530"/>
</g>
<g id="line2d4">
<path style="fill: none; stroke: #0000ff; stroke-width: 2.000000; stroke-linejoin: round; stroke-linecap: butt; stroke-dasharray: 6.000000,6.000000; stroke-dashoffset: 0.000000; opacity: 1.000000" clip-path="url(#p6d54bdcfc682fd2a5eb67e424bad820e)" d="M209.449975 337.547340L211.575419 337.144962L215.117826 336.370717
L216.534789 336.053338L217.243271 336.038166L220.077197 335.406578
L221.494159 335.171153L229.995937 334.085534L231.412900 333.816262
L234.246826 333.456085L234.955307 333.273344L236.372270 333.086861
L239.206196 332.690464L240.623159 332.444179L241.331640 332.203351
L247.707974 331.024127L252.667344 330.089334L254.084307 329.935104
L255.501270 329.707693L256.918233 329.357701L259.043677 328.793499
L262.586084 328.091449L264.003047 327.761699L265.420010 327.517890
L266.128492 327.323236L266.836973 327.264809L268.253936 327.014213
L268.962417 326.974416L271.087862 326.568105L275.338751 325.845866
L283.132047 323.622284L285.257491 322.581524L286.674454 322.404647
L289.508380 322.098395L293.759269 321.400305L298.010157 320.883885
L299.427120 320.629724L302.261046 320.001205L306.511935 319.009857
L307.928898 318.759108L312.179787 318.027483L313.596750 317.842073
L314.305231 317.878287L318.556120 317.106462L329.891823 315.124910
L330.600305 315.124910L331.308786 314.806289L334.851193 314.208637
L336.268156 314.096443L337.685119 313.807575L344.769934 312.612647
L346.895378 312.388016L348.312341 312.090127L352.563230 311.476163
L354.688674 310.681355L356.105637 310.379578L357.522600 310.195435
L361.773489 309.497410L368.858304 308.594323L370.983748 308.187106
L372.400711 307.977242L373.817674 307.563317L379.485526 306.752077
L383.027933 306.266692L383.736414 306.115013L384.444896 306.102492
L387.278822 305.633628L388.695785 305.464178L394.363636 304.036320
L397.906044 303.455961L413.492636 300.937449L414.909599 300.841458
L416.326562 300.407938L418.452006 299.571177L421.285932 298.788684
L423.411376 298.578449L424.828339 298.408234L425.536821 298.092727
L426.245302 297.971327L427.662265 297.871974L430.496191 297.519719
L437.581006 296.824903L443.248857 295.769284L443.957339 295.523720
L445.374302 295.435850L446.082783 295.312052L446.791265 295.063823
L448.916709 294.684247L452.459116 294.180808L454.584561 293.886093
L457.418487 293.324028L463.794820 292.465325L465.211783 292.232165
L470.171153 291.550326L471.588116 291.243531L473.713560 291.013299
L474.422042 290.786738L479.381412 290.618614L489.300152 290.618614
L490.008634 289.201926L490.717115 289.195252L492.134078 288.914889
L502.052819 287.695212L503.469782 287.349412L507.012189 287.009489
L507.720670 287.026120L508.429152 286.913300L509.846115 286.851340
L514.805485 286.434043L519.056374 285.679987L520.473337 285.570775
L531.809040 283.914621L535.351447 283.914621L536.059929 283.097854
L536.768410 282.984833L537.476892 282.984833L541.019299 282.494806
L543.144744 282.236768L543.853225 282.008129L545.270188 281.905036
L546.687151 281.905036L547.395632 281.562795L569.358558 279.371759
L570.775521 279.371759L571.484002 278.673167L573.609446 278.580520
L574.317928 278.392969L575.026409 278.392969L575.734891 278.196332
L576.443372 278.196332L579.277298 277.798926L579.985780 277.798926
L580.694261 277.564158L581.402743 277.564158L582.111224 277.308749
L584.945150 277.034655L585.653631 277.034655L587.779076 276.749865
L589.904520 276.601010L591.321483 276.479379L592.738446 276.204516
L594.155409 276.204516L594.863890 275.681805L598.406298 275.320831
L599.823261 275.262324L601.948705 274.951550L605.491112 274.778687
L606.908075 274.611878L609.033520 274.521770L611.867445 274.243532
L614.701371 273.963784L616.118334 273.867909L617.535297 273.737237
L624.620112 273.403103L627.454038 273.403103L628.162519 272.743928
L632.413408 272.671806L633.830371 272.505010L635.247334 272.459164
L636.664297 272.370973L638.081260 272.370973L638.789741 271.984931
L640.915185 271.919453L648.000000 271.513029L648.000000 271.513029"/>
</g>
<g id="matplotlib.axis1">
<g id="xtick1">
<g id="line2d5">
<path style="fill: none; stroke: #000000; stroke-width: 0.500000; stroke-linejoin: round; stroke-linecap: butt; stroke-dasharray: 1.000000,3.000000; stroke-dashoffset: 0.000000; opacity: 1.000000" clip-path="url(#p6d54bdcfc682fd2a5eb67e424bad820e)" d="M227.162011 453.600000L227.162011 50.400000"/>
</g>
<g id="line2d6">
<defs><path id="m30e32995789d870ad79a2e54c91cf9c6" d="M0.000000 0.000000L0.000000 -4.000000"/></defs>
<g ><use style="fill: none; stroke: #000000; stroke-width: 0.500000; stroke-linejoin: round; stroke-linecap: butt;  opacity: 1.000000" xlink:href="#m30e32995789d870ad79a2e54c91cf9c6" x="227.162011" y="453.600000"/>
</g></g>
<g id="line2d7">
<defs><path id="m9281cae24120827b11d5ea8a7ad3e96b" d="M0.000000 0.000000L0.000000 4.000000"/></defs>
<g ><use style="fill: none; stroke: #000000; stroke-width: 0.500000; stroke-linejoin: round; stroke-linecap: butt;  opacity: 1.000000" xlink:href="#m9281cae24120827b11d5ea8a7ad3e96b" x="227.162011" y="50.400000"/>
</g></g>
<g id="text1">
<defs>
<path id="c_ed3f3ed3ebfbd18bcb9c012009a68ad1" d="M19.187500 -8.296875l34.421875 0.000000l0.000000 8.296875l-46.281250 0.000000l0.000000 -8.296875q5.609375 -5.812500 15.296875 -15.593750q9.703125 -9.796875 12.187500 -12.640625q4.734375 -5.312500 6.609375 -9.000000q1.890625 -3.687500 1.890625 -7.250000q0.000000 -5.812500 -4.078125 -9.468750q-4.078125 -3.671875 -10.625000 -3.671875q-4.640625 0.000000 -9.796875 1.609375q-5.140625 1.609375 -11.000000 4.890625l0.000000 -9.968750q5.953125 -2.390625 11.125000 -3.609375q5.187500 -1.218750 9.484375 -1.218750q11.328125 0.000000 18.062500 5.671875q6.734375 5.656250 6.734375 15.125000q0.000000 4.500000 -1.687500 8.531250q-1.671875 4.015625 -6.125000 9.484375q-1.218750 1.421875 -7.765625 8.187500q-6.531250 6.765625 -18.453125 18.921875"/>
<path id="c_7a2040fe3b94fcd41d0a72c84e93b115" d="M31.781250 -66.406250q-7.609375 0.000000 -11.453125 7.500000q-3.828125 7.484375 -3.828125 22.531250q0.000000 14.984375 3.828125 22.484375q3.843750 7.500000 11.453125 7.500000q7.671875 0.000000 11.500000 -7.500000q3.843750 -7.500000 3.843750 -22.484375q0.000000 -15.046875 -3.843750 -22.531250q-3.828125 -7.500000 -11.500000 -7.500000M31.781250 -74.218750q12.265625 0.000000 18.734375 9.703125q6.468750 9.687500 6.468750 28.140625q0.000000 18.406250 -6.468750 28.109375q-6.468750 9.687500 -18.734375 9.687500q-12.250000 0.000000 -18.718750 -9.687500q-6.468750 -9.703125 -6.468750 -28.109375q0.000000 -18.453125 6.468750 -28.140625q6.468750 -9.703125 18.718750 -9.703125"/>
<path id="c_42baa63129a918535c52adb20d687ea7" d="M12.406250 -8.296875l16.109375 0.000000l0.000000 -55.625000l-17.531250 3.515625l0.000000 -8.984375l17.437500 -3.515625l9.859375 0.000000l0.000000 64.609375l16.109375 0.000000l0.000000 8.296875l-41.984375 0.000000z"/>
</defs>
<g style="fill: #000000; opacity: 1.000000" transform="translate(212.716699,466.506250)scale(0.120000)">
<use xlink:href="#c_ed3f3ed3ebfbd18bcb9c012009a68ad1"/>
<use xlink:href="#c_7a2040fe3b94fcd41d0a72c84e93b115" x="63.623047"/>
<use xlink:href="#c_42baa63129a918535c52adb20d687ea7" x="127.246094"/>
<use xlink:href="#c_7a2040fe3b94fcd41d0a72c84e93b115" x="190.869141"/>
</g>
</g>
</g>
<g id="xtick2">
<g id="line2d8">
<path style="fill: none; stroke: #000000; stroke-width: 0.500000; stroke-linejoin: round; stroke-linecap: butt; stroke-dasharray: 1.000000,3.000000; stroke-dashoffset: 0.000000; opacity: 1.000000" clip-path="url(#p6d54bdcfc682fd2a5eb67e424bad820e)" d="M485.757745 453.600000L485.757745 50.400000"/>
</g>
<g id="line2d9">
<g ><use style="fill: none; stroke: #000000; stroke-width: 0.500000; stroke-linejoin: round; stroke-linecap: butt;  opacity: 1.000000" xlink:href="#m30e32995789d870ad79a2e54c91cf9c6" x="485.757745" y="453.600000"/>
</g></g>
<g id="line2d10">
<g ><use style="fill: none; stroke: #000000; stroke-width: 0.500000; stroke-linejoin: round; stroke-linecap: butt;  opacity: 1.000000" xlink:href="#m9281cae24120827b11d5ea8a7ad3e96b" x="485.757745" y="50.400000"/>
</g></g>
<g id="text2">
<g style="fill: #000000; opacity: 1.000000" transform="translate(471.468683,466.506250)scale(0.120000)">
<use xlink:href="#c_ed3f3ed3ebfbd18bcb9c012009a68ad1"/>
<use xlink:href="#c_7a2040fe3b94fcd41d0a72c84e93b115" x="63.623047"/>
<use xlink:href="#c_42baa63129a918535c52adb20d687ea7" x="127.246094"/>
<use xlink:href="#c_42baa63129a918535c52adb20d687ea7" x="190.869141"/>
</g>
</g>
</g>
</g>
<g id="matplotlib.axis2">
<g id="ytick1">
<g id="line2d11">
<path style="fill: none; stroke: #000000; stroke-width: 0.500000; stroke-linejoin: round; stroke-linecap: butt; stroke-dasharray: 1.000000,3.000000; stroke-dashoffset: 0.000000; opacity: 1.000000" clip-path="url(#p6d54bdcfc682fd2a5eb67e424bad820e)" d="M90.000000 453.600000L648.000000 453.600000"/>
</g>
<g id="line2d12">
<defs><path id="m3400efa6b1638b3fea9e19e898273957" d="M0.000000 0.000000L4.000000 0.000000"/></defs>
<g ><use style="fill: none; stroke: #000000; stroke-width: 0.500000; stroke-linejoin: round; stroke-linecap: butt;  opacity: 1.000000" xlink:href="#m3400efa6b1638b3fea9e19e898273957" x="90.000000" y="453.600000"/>
</g></g>
<g id="line2d13">
<defs><path id="m20b58b2501143cb5e0a5e8f1ef6f1643" d="M0.000000 0.000000L-4.000000 0.000000"/></defs>
<g ><use style="fill: none; stroke: #000000; stroke-width: 0.500000; stroke-linejoin: round; stroke-linecap: butt;  opacity: 1.000000" xlink:href="#m20b58b2501143cb5e0a5e8f1ef6f1643" x="648.000000" y="453.600000"/>
</g></g>
<g id="text3">
<defs>
<path id="c_ed3e21196fb739f392806f09ca0594ef" d="M10.687500 -12.406250l10.312500 0.000000l0.000000 12.406250l-10.312500 0.000000z"/>
</defs>
<g style="fill: #000000; opacity: 1.000000" transform="translate(68.500000,457.967188)scale(0.120000)">
<use xlink:href="#c_7a2040fe3b94fcd41d0a72c84e93b115"/>
<use xlink:href="#c_ed3e21196fb739f392806f09ca0594ef" x="63.623047"/>
<use xlink:href="#c_7a2040fe3b94fcd41d0a72c84e93b115" x="95.410156"/>
</g>
</g>
</g>
<g id="ytick2">
<g id="line2d14">
<path style="fill: none; stroke: #000000; stroke-width: 0.500000; stroke-linejoin: round; stroke-linecap: butt; stroke-dasharray: 1.000000,3.000000; stroke-dashoffset: 0.000000; opacity: 1.000000" clip-path="url(#p6d54bdcfc682fd2a5eb67e424bad820e)" d="M90.000000 386.400000L648.000000 386.400000"/>
</g>
<g id="line2d15">
<g ><use style="fill: none; stroke: #000000; stroke-width: 0.500000; stroke-linejoin: round; stroke-linecap: butt;  opacity: 1.000000" xlink:href="#m3400efa6b1638b3fea9e19e898273957" x="90.000000" y="386.400000"/>
</g></g>
<g id="line2d16">
<g ><use style="fill: none; stroke: #000000; stroke-width: 0.500000; stroke-linejoin: round; stroke-linecap: butt;  opacity: 1.000000" xlink:href="#m20b58b2501143cb5e0a5e8f1ef6f1643" x="648.000000" y="386.400000"/>
</g></g>
<g id="text4">
<defs>
<path id="c_1260a2df50f305f3db244e29828f968e" d="M10.796875 -72.906250l38.718750 0.000000l0.000000 8.312500l-29.687500 0.000000l0.000000 17.859375q2.140625 -0.734375 4.281250 -1.093750q2.156250 -0.359375 4.312500 -0.359375q12.203125 0.000000 19.328125 6.687500q7.140625 6.687500 7.140625 18.109375q0.000000 11.765625 -7.328125 18.296875q-7.328125 6.515625 -20.656250 6.515625q-4.593750 0.000000 -9.359375 -0.781250q-4.750000 -0.781250 -9.828125 -2.343750l0.000000 -9.921875q4.390625 2.390625 9.078125 3.562500q4.687500 1.171875 9.906250 1.171875q8.453125 0.000000 13.375000 -4.437500q4.937500 -4.437500 4.937500 -12.062500q0.000000 -7.609375 -4.937500 -12.046875q-4.921875 -4.453125 -13.375000 -4.453125q-3.953125 0.000000 -7.890625 0.875000q-3.921875 0.875000 -8.015625 2.734375z"/>
</defs>
<g style="fill: #000000; opacity: 1.000000" transform="translate(68.750000,390.767187)scale(0.120000)">
<use xlink:href="#c_7a2040fe3b94fcd41d0a72c84e93b115"/>
<use xlink:href="#c_ed3e21196fb739f392806f09ca0594ef" x="63.623047"/>
<use xlink:href="#c_1260a2df50f305f3db244e29828f968e" x="95.410156"/>
</g>
</g>
</g>
<g id="ytick3">
<g id="line2d17">
<path style="fill: none; stroke: #000000; stroke-width: 0.500000; stroke-linejoin: round; stroke-linecap: butt; stroke-dasharray: 1.000000,3.000000; stroke-dashoffset: 0.000000; opacity: 1.000000" clip-path="url(#p6d54bdcfc682fd2a5eb67e424bad820e)" d="M90.000000 319.200000L648.000000 319.200000"/>
</g>
<g id="line2d18">
<g ><use style="fill: none; stroke: #000000; stroke-width: 0.500000; stroke-linejoin: round; stroke-linecap: butt;  opacity: 1.000000" xlink:href="#m3400efa6b1638b3fea9e19e898273957" x="90.000000" y="319.200000"/>
</g></g>
<g id="line2d19">
<g ><use style="fill: none; stroke: #000000; stroke-width: 0.500000; stroke-linejoin: round; stroke-linecap: butt;  opacity: 1.000000" xlink:href="#m20b58b2501143cb5e0a5e8f1ef6f1643" x="648.000000" y="319.200000"/>
</g></g>
<g id="text5">
<g style="fill: #000000; opacity: 1.000000" transform="translate(69.015625,323.567187)scale(0.120000)">
<use xlink:href="#c_42baa63129a918535c52adb20d687ea7"/>
<use xlink:href="#c_ed3e21196fb739f392806f09ca0594ef" x="63.623047"/>
<use xlink:href="#c_7a2040fe3b94fcd41d0a72c84e93b115" x="95.410156"/>
</g>
</g>
</g>
<g id="ytick4">
<g id="line2d20">
<path style="fill: none; stroke: #000000; stroke-width: 0.500000; stroke-linejoin: round; stroke-linecap: butt; stroke-dasharray: 1.000000,3.000000; stroke-dashoffset: 0.000000; opacity: 1.000000" clip-path="url(#p6d54bdcfc682fd2a5eb67e424bad820e)" d="M90.000000 252.000000L648.000000 252.000000"/>
</g>
<g id="line2d21">
<g ><use style="fill: none; stroke: #000000; stroke-width: 0.500000; stroke-linejoin: round; stroke-linecap: butt;  opacity: 1.000000" xlink:href="#m3400efa6b1638b3fea9e19e898273957" x="90.000000" y="252.000000"/>
</g></g>
<g id="line2d22">
<g ><use style="fill: none; stroke: #000000; stroke-width: 0.500000; stroke-linejoin: round; stroke-linecap: butt;  opacity: 1.000000" xlink:href="#m20b58b2501143cb5e0a5e8f1ef6f1643" x="648.000000" y="252.000000"/>
</g></g>
<g id="text6">
<g style="fill: #000000; opacity: 1.000000" transform="translate(69.265625,256.289062)scale(0.120000)">
<use xlink:href="#c_42baa63129a918535c52adb20d687ea7"/>
<use xlink:href="#c_ed3e21196fb739f392806f09ca0594ef" x="63.623047"/>
<use xlink:href="#c_1260a2df50f305f3db244e29828f968e" x="95.410156"/>
</g>
</g>
</g>
<g id="ytick5">
<g id="line2d23">
<path style="fill: none; stroke: #000000; stroke-width: 0.500000; stroke-linejoin: round; stroke-linecap: butt; stroke-dasharray: 1.000000,3.000000; stroke-dashoffset: 0.000000; opacity: 1.000000" clip-path="url(#p6d54bdcfc682fd2a5eb67e424bad820e)" d="M90.000000 184.800000L648.000000 184.800000"/>
</g>
<g id="line2d24">
<g ><use style="fill: none; stroke: #000000; stroke-width: 0.500000; stroke-linejoin: round; stroke-linecap: butt;  opacity: 1.000000" xlink:href="#m3400efa6b1638b3fea9e19e898273957" x="90.000000" y="184.800000"/>
</g></g>
<g id="line2d25">
<g ><use style="fill: none; stroke: #000000; stroke-width: 0.500000; stroke-linejoin: round; stroke-linecap: butt;  opacity: 1.000000" xlink:href="#m20b58b2501143cb5e0a5e8f1ef6f1643" x="648.000000" y="184.800000"/>
</g></g>
<g id="text7">
<g style="fill: #000000; opacity: 1.000000" transform="translate(68.578125,189.167188)scale(0.120000)">
<use xlink:href="#c_ed3f3ed3ebfbd18bcb9c012009a68ad1"/>
<use xlink:href="#c_ed3e21196fb739f392806f09ca0594ef" x="63.623047"/>
<use xlink:href="#c_7a2040fe3b94fcd41d0a72c84e93b115" x="95.410156"/>
</g>
</g>
</g>
<g id="ytick6">
<g id="line2d26">
<path style="fill: none; stroke: #000000; stroke-width: 0.500000; stroke-linejoin: round; stroke-linecap: butt; stroke-dasharray: 1.000000,3.000000; stroke-dashoffset: 0.000000; opacity: 1.000000" clip-path="url(#p6d54bdcfc682fd2a5eb67e424bad820e)" d="M90.000000 117.600000L648.000000 117.600000"/>
</g>
<g id="line2d27">
<g ><use style="fill: none; stroke: #000000; stroke-width: 0.500000; stroke-linejoin: round; stroke-linecap: butt;  opacity: 1.000000" xlink:href="#m3400efa6b1638b3fea9e19e898273957" x="90.000000" y="117.600000"/>
</g></g>
<g id="line2d28">
<g ><use style="fill: none; stroke: #000000; stroke-width: 0.500000; stroke-linejoin: round; stroke-linecap: butt;  opacity: 1.000000" xlink:href="#m20b58b2501143cb5e0a5e8f1ef6f1643" x="648.000000" y="117.600000"/>
</g></g>
<g id="text8">
<g style="fill: #000000; opacity: 1.000000" transform="translate(68.828125,121.967188)scale(0.120000)">
<use xlink:href="#c_ed3f3ed3ebfbd18bcb9c012009a68ad1"/>
<use xlink:href="#c_ed3e21196fb739f392806f09ca0594ef" x="63.623047"/>
<use xlink:href="#c_1260a2df50f305f3db244e29828f968e" x="95.410156"/>
</g>
</g>
</g>
<g id="ytick7">
<g id="line2d29">
<path style="fill: none; stroke: #000000; stroke-width: 0.500000; stroke-linejoin: round; stroke-linecap: butt; stroke-dasharray: 1.000000,3.000000; stroke-dashoffset: 0.000000; opacity: 1.000000" clip-path="url(#p6d54bdcfc682fd2a5eb67e424bad820e)" d="M90.000000 50.400000L648.000000 50.400000"/>
</g>
<g id="line2d30">
<g ><use style="fill: none; stroke: #000000; stroke-width: 0.500000; stroke-linejoin: round; stroke-linecap: butt;  opacity: 1.000000" xlink:href="#m3400efa6b1638b3fea9e19e898273957" x="90.000000" y="50.400000"/>
</g></g>
<g id="line2d31">
<g ><use style="fill: none; stroke: #000000; stroke-width: 0.500000; stroke-linejoin: round; stroke-linecap: butt;  opacity: 1.000000" xlink:href="#m20b58b2501143cb5e0a5e8f1ef6f1643" x="648.000000" y="50.400000"/>
</g></g>
<g id="text9">
<defs>
<path id="c_3dcfa38a02242cb63ec6726c6e70be7a" d="M40.578125 -39.312500q7.078125 1.515625 11.046875 6.312500q3.984375 4.781250 3.984375 11.812500q0.000000 10.781250 -7.421875 16.703125q-7.421875 5.906250 -21.093750 5.906250q-4.578125 0.000000 -9.437500 -0.906250q-4.859375 -0.906250 -10.031250 -2.718750l0.000000 -9.515625q4.093750 2.390625 8.968750 3.609375q4.890625 1.218750 10.218750 1.218750q9.265625 0.000000 14.125000 -3.656250q4.859375 -3.656250 4.859375 -10.640625q0.000000 -6.453125 -4.515625 -10.078125q-4.515625 -3.640625 -12.562500 -3.640625l-8.500000 0.000000l0.000000 -8.109375l8.890625 0.000000q7.265625 0.000000 11.125000 -2.906250q3.859375 -2.906250 3.859375 -8.375000q0.000000 -5.609375 -3.984375 -8.609375q-3.968750 -3.015625 -11.390625 -3.015625q-4.062500 0.000000 -8.703125 0.890625q-4.640625 0.875000 -10.203125 2.718750l0.000000 -8.781250q5.625000 -1.562500 10.531250 -2.343750q4.906250 -0.781250 9.250000 -0.781250q11.234375 0.000000 17.765625 5.109375q6.546875 5.093750 6.546875 13.781250q0.000000 6.062500 -3.468750 10.234375q-3.468750 4.171875 -9.859375 5.781250"/>
</defs>
<g style="fill: #000000; opacity: 1.000000" transform="translate(68.625000,54.767187)scale(0.120000)">
<use xlink:href="#c_3dcfa38a02242cb63ec6726c6e70be7a"/>
<use xlink:href="#c_ed3e21196fb739f392806f09ca0594ef" x="63.623047"/>
<use xlink:href="#c_7a2040fe3b94fcd41d0a72c84e93b115" x="95.410156"/>
</g>
</g>
</g>
<g id="text10">
<defs>
<path id="c_a56f7596f19f36c336140607221b43ce" d="M72.703125 -32.078125q-4.250000 0.000000 -6.671875 3.609375q-2.406250 3.609375 -2.406250 10.062500q0.000000 6.343750 2.406250 9.984375q2.421875 3.640625 6.671875 3.640625q4.156250 0.000000 6.562500 -3.640625q2.421875 -3.640625 2.421875 -9.984375q0.000000 -6.406250 -2.421875 -10.031250q-2.406250 -3.640625 -6.562500 -3.640625M72.703125 -38.281250q7.718750 0.000000 12.250000 5.375000q4.546875 5.359375 4.546875 14.500000q0.000000 9.125000 -4.562500 14.484375q-4.562500 5.343750 -12.234375 5.343750q-7.812500 0.000000 -12.359375 -5.343750q-4.531250 -5.359375 -4.531250 -14.484375q0.000000 -9.187500 4.562500 -14.531250q4.562500 -5.343750 12.328125 -5.343750M22.312500 -68.015625q-4.203125 0.000000 -6.625000 3.640625q-2.406250 3.625000 -2.406250 9.984375q0.000000 6.437500 2.390625 10.062500q2.390625 3.609375 6.640625 3.609375q4.250000 0.000000 6.656250 -3.609375q2.421875 -3.625000 2.421875 -10.062500q0.000000 -6.296875 -2.437500 -9.953125q-2.437500 -3.671875 -6.640625 -3.671875M66.406250 -74.218750l7.812500 0.000000l-45.609375 75.640625l-7.812500 0.000000zM22.312500 -74.218750q7.718750 0.000000 12.296875 5.343750q4.593750 5.343750 4.593750 14.484375q0.000000 9.218750 -4.562500 14.546875q-4.562500 5.328125 -12.328125 5.328125q-7.765625 0.000000 -12.281250 -5.343750q-4.515625 -5.359375 -4.515625 -14.531250q0.000000 -9.093750 4.531250 -14.453125q4.546875 -5.375000 12.265625 -5.375000"/>
<path id="c_d41d8cd98f00b204e9800998ecf8427e" d=""/>
<path id="c_f05dd90d41f04bb96ef1ca503cc2044b" d="M30.609375 -48.390625q-7.218750 0.000000 -11.421875 5.640625q-4.203125 5.640625 -4.203125 15.453125q0.000000 9.812500 4.171875 15.453125q4.187500 5.640625 11.453125 5.640625q7.187500 0.000000 11.375000 -5.656250q4.203125 -5.671875 4.203125 -15.437500q0.000000 -9.718750 -4.203125 -15.406250q-4.187500 -5.687500 -11.375000 -5.687500M30.609375 -56.000000q11.718750 0.000000 18.406250 7.625000q6.703125 7.609375 6.703125 21.078125q0.000000 13.421875 -6.703125 21.078125q-6.687500 7.640625 -18.406250 7.640625q-11.765625 0.000000 -18.437500 -7.640625q-6.656250 -7.656250 -6.656250 -21.078125q0.000000 -13.468750 6.656250 -21.078125q6.671875 -7.625000 18.437500 -7.625000"/>
<path id="c_73b12fe3945075d29fe0cc9a468fa31e" d="M37.109375 -75.984375l0.000000 7.484375l-8.593750 0.000000q-4.828125 0.000000 -6.718750 1.953125q-1.875000 1.953125 -1.875000 7.031250l0.000000 4.828125l14.796875 0.000000l0.000000 6.984375l-14.796875 0.000000l0.000000 47.703125l-9.031250 0.000000l0.000000 -47.703125l-8.593750 0.000000l0.000000 -6.984375l8.593750 0.000000l0.000000 -3.812500q0.000000 -9.125000 4.250000 -13.296875q4.250000 -4.187500 13.468750 -4.187500z"/>
<path id="c_01d93a582460e35a7945ca50d148ffeb" d="M34.281250 -27.484375q-10.890625 0.000000 -15.093750 2.484375q-4.203125 2.484375 -4.203125 8.500000q0.000000 4.781250 3.156250 7.593750q3.156250 2.796875 8.562500 2.796875q7.484375 0.000000 12.000000 -5.296875q4.515625 -5.296875 4.515625 -14.078125l0.000000 -2.000000zM52.203125 -31.203125l0.000000 31.203125l-8.984375 0.000000l0.000000 -8.296875q-3.078125 4.968750 -7.671875 7.343750q-4.593750 2.375000 -11.234375 2.375000q-8.390625 0.000000 -13.359375 -4.718750q-4.953125 -4.718750 -4.953125 -12.625000q0.000000 -9.218750 6.171875 -13.906250q6.187500 -4.687500 18.437500 -4.687500l12.609375 0.000000l0.000000 -0.890625q0.000000 -6.203125 -4.078125 -9.593750q-4.078125 -3.390625 -11.453125 -3.390625q-4.687500 0.000000 -9.140625 1.125000q-4.437500 1.125000 -8.531250 3.375000l0.000000 -8.312500q4.921875 -1.906250 9.562500 -2.843750q4.640625 -0.953125 9.031250 -0.953125q11.875000 0.000000 17.734375 6.156250q5.859375 6.140625 5.859375 18.640625"/>
<path id="c_5099edb83619131346ae654950954dea" d="M9.421875 -75.984375l8.984375 0.000000l0.000000 75.984375l-8.984375 0.000000z"/>
<path id="c_6a63bda47b2f3da1cec6aadd80692cfe" d="M9.421875 -54.687500l8.984375 0.000000l0.000000 54.687500l-8.984375 0.000000zM9.421875 -75.984375l8.984375 0.000000l0.000000 11.390625l-8.984375 0.000000z"/>
<path id="c_fe791a90f5471e2ab20a5ed41a7fa451" d="M54.890625 -33.015625l0.000000 33.015625l-8.984375 0.000000l0.000000 -32.718750q0.000000 -7.765625 -3.031250 -11.609375q-3.031250 -3.859375 -9.078125 -3.859375q-7.281250 0.000000 -11.484375 4.640625q-4.203125 4.625000 -4.203125 12.640625l0.000000 30.906250l-9.031250 0.000000l0.000000 -54.687500l9.031250 0.000000l0.000000 8.500000q3.234375 -4.937500 7.593750 -7.375000q4.375000 -2.437500 10.093750 -2.437500q9.421875 0.000000 14.250000 5.828125q4.843750 5.828125 4.843750 17.156250"/>
<path id="c_8e0810ad13fe20a2a87a2619799b154d" d="M44.281250 -53.078125l0.000000 8.500000q-3.796875 -1.953125 -7.906250 -2.921875q-4.093750 -0.984375 -8.500000 -0.984375q-6.687500 0.000000 -10.031250 2.046875q-3.343750 2.046875 -3.343750 6.156250q0.000000 3.125000 2.390625 4.906250q2.390625 1.781250 9.625000 3.390625l3.078125 0.687500q9.562500 2.046875 13.593750 5.781250q4.031250 3.734375 4.031250 10.421875q0.000000 7.625000 -6.031250 12.078125q-6.031250 4.437500 -16.578125 4.437500q-4.390625 0.000000 -9.156250 -0.859375q-4.765625 -0.859375 -10.031250 -2.562500l0.000000 -9.281250q4.984375 2.593750 9.812500 3.890625q4.828125 1.281250 9.578125 1.281250q6.343750 0.000000 9.750000 -2.171875q3.421875 -2.171875 3.421875 -6.125000q0.000000 -3.656250 -2.468750 -5.609375q-2.453125 -1.953125 -10.812500 -3.765625l-3.125000 -0.734375q-8.343750 -1.750000 -12.062500 -5.390625q-3.703125 -3.640625 -3.703125 -9.984375q0.000000 -7.718750 5.468750 -11.906250q5.468750 -4.203125 15.531250 -4.203125q4.968750 0.000000 9.359375 0.734375q4.406250 0.718750 8.109375 2.187500"/>
<path id="c_0f8c41144cfbf448378cb6fd1cc8e549" d="M18.312500 -70.218750l0.000000 15.531250l18.500000 0.000000l0.000000 6.984375l-18.500000 0.000000l0.000000 29.687500q0.000000 6.687500 1.828125 8.593750q1.828125 1.906250 7.453125 1.906250l9.218750 0.000000l0.000000 7.515625l-9.218750 0.000000q-10.406250 0.000000 -14.359375 -3.875000q-3.953125 -3.890625 -3.953125 -14.140625l0.000000 -29.687500l-6.593750 0.000000l0.000000 -6.984375l6.593750 0.000000l0.000000 -15.531250z"/>
</defs>
<g style="fill: #000000; opacity: 1.000000" transform="translate(63.500000,312.000000)rotate(-90.0)scale(0.120000)">
<use xlink:href="#c_a56f7596f19f36c336140607221b43ce"/>
<use xlink:href="#c_d41d8cd98f00b204e9800998ecf8427e" x="95.019531"/>
<use xlink:href="#c_f05dd90d41f04bb96ef1ca503cc2044b" x="126.806641"/>
<use xlink:href="#c_73b12fe3945075d29fe0cc9a468fa31e" x="187.988281"/>
<use xlink:href="#c_d41d8cd98f00b204e9800998ecf8427e" x="223.193359"/>
<use xlink:href="#c_01d93a582460e35a7945ca50d148ffeb" x="254.980469"/>
<use xlink:href="#c_5099edb83619131346ae654950954dea" x="316.259766"/>
<use xlink:href="#c_5099edb83619131346ae654950954dea" x="344.042969"/>
<use xlink:href="#c_d41d8cd98f00b204e9800998ecf8427e" x="371.826172"/>
<use xlink:href="#c_6a63bda47b2f3da1cec6aadd80692cfe" x="403.613281"/>
<use xlink:href="#c_fe791a90f5471e2ab20a5ed41a7fa451" x="431.396484"/>
<use xlink:href="#c_8e0810ad13fe20a2a87a2619799b154d" x="494.775391"/>
<use xlink:href="#c_0f8c41144cfbf448378cb6fd1cc8e549" x="546.875000"/>
<use xlink:href="#c_01d93a582460e35a7945ca50d148ffeb" x="586.083984"/>
<use xlink:href="#c_5099edb83619131346ae654950954dea" x="647.363281"/>
<use xlink:href="#c_5099edb83619131346ae654950954dea" x="675.146484"/>
<use xlink:href="#c_01d93a582460e35a7945ca50d148ffeb" x="702.929688"/>
<use xlink:href="#c_0f8c41144cfbf448378cb6fd1cc8e549" x="764.208984"/>
<use xlink:href="#c_6a63bda47b2f3da1cec6aadd80692cfe" x="803.417969"/>
<use xlink:href="#c_f05dd90d41f04bb96ef1ca503cc2044b" x="831.201172"/>
<use xlink:href="#c_fe791a90f5471e2ab20a5ed41a7fa451" x="892.382813"/>
<use xlink:href="#c_8e0810ad13fe20a2a87a2619799b154d" x="955.761719"/>
</g>
</g>
</g>
<g id="patch3">
<path style="fill: none; stroke: #000000; stroke-width: 1.000000; stroke-linejoin: round; stroke-linecap: square;  opacity: 1.000000"  d="M90.000000 50.400000L648.000000 50.400000"/>
</g>
<g id="patch4">
<path style="fill: none; stroke: #000000; stroke-width: 1.000000; stroke-linejoin: round; stroke-linecap: square;  opacity: 1.000000"  d="M648.000000 453.600000L648.000000 50.400000"/>
</g>
<g id="patch5">
<path style="fill: none; stroke: #000000; stroke-width: 1.000000; stroke-linejoin: round; stroke-linecap: square;  opacity: 1.000000"  d="M90.000000 453.600000L648.000000 453.600000"/>
</g>
<g id="patch6">
<path style="fill: none; stroke: #000000; stroke-width: 1.000000; stroke-linejoin: round; stroke-linecap: square;  opacity: 1.000000"  d="M90.000000 453.600000L90.000000 50.400000"/>
</g>
<g id="legend1">
<g id="patch7">
<path style="fill: #ffffff; stroke: #000000; stroke-width: 1.000000; stroke-linejoin: round; stroke-linecap: square;  opacity: 1.000000"  d="M97.200000 144.907500L267.258750 144.907500L267.258750 57.600000
L97.200000 57.600000L97.200000 144.907500z"/>
</g>
<g id="line2d32">
<path style="fill: none; stroke: #ff0000; stroke-width: 3.000000; stroke-linejoin: round; stroke-linecap: square;  opacity: 1.000000"  d="M107.280000 68.960625L127.440000 68.960625"/>
</g>
<g id="line2d33">
</g>
<g id="text11">
<defs>
<path id="c_fabc000b0fb83f456ee9f092ad635e20" d="M9.812500 -72.906250l13.281250 0.000000l32.328125 60.984375l0.000000 -60.984375l9.562500 0.000000l0.000000 72.906250l-13.281250 0.000000l-32.312500 -60.984375l0.000000 60.984375l-9.578125 0.000000z"/>
<path id="c_c438d87e693443c2861ebd6359e6491e" d="M8.500000 -21.578125l0.000000 -33.109375l8.984375 0.000000l0.000000 32.765625q0.000000 7.765625 3.015625 11.656250q3.031250 3.875000 9.093750 3.875000q7.265625 0.000000 11.484375 -4.640625q4.234375 -4.640625 4.234375 -12.656250l0.000000 -31.000000l8.984375 0.000000l0.000000 54.687500l-8.984375 0.000000l0.000000 -8.406250q-3.265625 4.984375 -7.593750 7.406250q-4.312500 2.421875 -10.031250 2.421875q-9.421875 0.000000 -14.312500 -5.859375q-4.875000 -5.859375 -4.875000 -17.140625"/>
<path id="c_4653c6dfde66c7610eae0911760d3490" d="M52.000000 -44.187500q3.375000 -6.062500 8.062500 -8.937500q4.687500 -2.875000 11.031250 -2.875000q8.546875 0.000000 13.187500 5.984375q4.640625 5.968750 4.640625 17.000000l0.000000 33.015625l-9.031250 0.000000l0.000000 -32.718750q0.000000 -7.859375 -2.796875 -11.656250q-2.781250 -3.812500 -8.484375 -3.812500q-6.984375 0.000000 -11.046875 4.640625q-4.046875 4.625000 -4.046875 12.640625l0.000000 30.906250l-9.031250 0.000000l0.000000 -32.718750q0.000000 -7.906250 -2.781250 -11.687500q-2.781250 -3.781250 -8.593750 -3.781250q-6.890625 0.000000 -10.953125 4.656250q-4.046875 4.656250 -4.046875 12.625000l0.000000 30.906250l-9.031250 0.000000l0.000000 -54.687500l9.031250 0.000000l0.000000 8.500000q3.078125 -5.031250 7.375000 -7.421875q4.296875 -2.390625 10.203125 -2.390625q5.968750 0.000000 10.140625 3.031250q4.171875 3.015625 6.171875 8.781250"/>
<path id="c_518d586bee075aa0153eaebfcb5ab11f" d="M19.671875 -64.796875l0.000000 27.390625l12.406250 0.000000q6.890625 0.000000 10.640625 -3.562500q3.765625 -3.562500 3.765625 -10.156250q0.000000 -6.546875 -3.765625 -10.109375q-3.750000 -3.562500 -10.640625 -3.562500zM9.812500 -72.906250l22.265625 0.000000q12.265625 0.000000 18.531250 5.546875q6.281250 5.546875 6.281250 16.234375q0.000000 10.796875 -6.281250 16.312500q-6.265625 5.515625 -18.531250 5.515625l-12.406250 0.000000l0.000000 29.296875l-9.859375 0.000000z"/>
<path id="c_3fe22c4af425ac970aec982ae9662abe" d="M32.171875 5.078125q-3.796875 9.765625 -7.421875 12.734375q-3.609375 2.984375 -9.656250 2.984375l-7.187500 0.000000l0.000000 -7.515625l5.281250 0.000000q3.703125 0.000000 5.750000 -1.765625q2.062500 -1.750000 4.546875 -8.296875l1.609375 -4.093750l-22.109375 -53.812500l9.515625 0.000000l17.093750 42.765625l17.093750 -42.765625l9.515625 0.000000z"/>
<path id="c_7efa9804c2b4c09a4b614b91fdebee3d" d="M31.000000 -75.875000q-6.531250 11.218750 -9.718750 22.218750q-3.171875 10.984375 -3.171875 22.265625q0.000000 11.265625 3.203125 22.328125q3.203125 11.062500 9.687500 22.250000l-7.812500 0.000000q-7.312500 -11.484375 -10.953125 -22.562500q-3.640625 -11.078125 -3.640625 -22.015625q0.000000 -10.890625 3.609375 -21.921875q3.625000 -11.046875 10.984375 -22.562500z"/>
<path id="c_ff9441f72805bc441fcb0bfe0d774f13" d="M19.671875 -64.796875l0.000000 56.687500l11.921875 0.000000q15.093750 0.000000 22.093750 -6.828125q7.000000 -6.843750 7.000000 -21.593750q0.000000 -14.640625 -7.000000 -21.453125q-7.000000 -6.812500 -22.093750 -6.812500zM9.812500 -72.906250l20.265625 0.000000q21.187500 0.000000 31.093750 8.812500q9.921875 8.812500 9.921875 27.562500q0.000000 18.859375 -9.968750 27.703125q-9.953125 8.828125 -31.046875 8.828125l-20.265625 0.000000z"/>
<path id="c_0bce5afba2dc6b9024b26277c38ad8e8" d="M56.203125 -29.593750l0.000000 4.390625l-41.312500 0.000000q0.593750 9.281250 5.593750 14.140625q5.000000 4.859375 13.937500 4.859375q5.171875 0.000000 10.031250 -1.265625q4.859375 -1.265625 9.656250 -3.812500l0.000000 8.500000q-4.843750 2.046875 -9.921875 3.125000q-5.078125 1.078125 -10.296875 1.078125q-13.093750 0.000000 -20.734375 -7.609375q-7.640625 -7.625000 -7.640625 -20.625000q0.000000 -13.421875 7.250000 -21.296875q7.250000 -7.890625 19.562500 -7.890625q11.031250 0.000000 17.453125 7.109375q6.421875 7.093750 6.421875 19.296875M47.218750 -32.234375q-0.093750 -7.359375 -4.125000 -11.750000q-4.031250 -4.406250 -10.671875 -4.406250q-7.515625 0.000000 -12.031250 4.250000q-4.515625 4.250000 -5.203125 11.968750z"/>
<path id="c_5cc9741494d2ad8f9764e03ae145569f" d="M48.687500 -27.296875q0.000000 -9.906250 -4.078125 -15.546875q-4.078125 -5.640625 -11.203125 -5.640625q-7.140625 0.000000 -11.218750 5.640625q-4.078125 5.640625 -4.078125 15.546875q0.000000 9.906250 4.078125 15.546875q4.078125 5.640625 11.218750 5.640625q7.125000 0.000000 11.203125 -5.640625q4.078125 -5.640625 4.078125 -15.546875M18.109375 -46.390625q2.843750 -4.875000 7.156250 -7.234375q4.328125 -2.375000 10.328125 -2.375000q9.968750 0.000000 16.187500 7.906250q6.234375 7.906250 6.234375 20.796875q0.000000 12.890625 -6.234375 20.812500q-6.218750 7.906250 -16.187500 7.906250q-6.000000 0.000000 -10.328125 -2.375000q-4.312500 -2.375000 -7.156250 -7.250000l0.000000 8.203125l-9.031250 0.000000l0.000000 -75.984375l9.031250 0.000000z"/>
<path id="c_e96974be642f6eac0427d72f9cec6c19" d="M8.015625 -75.875000l7.812500 0.000000q7.312500 11.515625 10.953125 22.562500q3.640625 11.031250 3.640625 21.921875q0.000000 10.937500 -3.640625 22.015625q-3.640625 11.078125 -10.953125 22.562500l-7.812500 0.000000q6.484375 -11.187500 9.687500 -22.250000q3.203125 -11.062500 3.203125 -22.328125q0.000000 -11.281250 -3.203125 -22.265625q-3.203125 -11.000000 -9.687500 -22.218750"/>
</defs>
<g style="fill: #000000; opacity: 1.000000" transform="translate(143.280000,74.000625)scale(0.144000)">
<use xlink:href="#c_fabc000b0fb83f456ee9f092ad635e20"/>
<use xlink:href="#c_c438d87e693443c2861ebd6359e6491e" x="74.804688"/>
<use xlink:href="#c_4653c6dfde66c7610eae0911760d3490" x="138.183594"/>
<use xlink:href="#c_518d586bee075aa0153eaebfcb5ab11f" x="235.595703"/>
<use xlink:href="#c_3fe22c4af425ac970aec982ae9662abe" x="295.898438"/>
<use xlink:href="#c_d41d8cd98f00b204e9800998ecf8427e" x="355.078125"/>
<use xlink:href="#c_7efa9804c2b4c09a4b614b91fdebee3d" x="386.865234"/>
<use xlink:href="#c_ff9441f72805bc441fcb0bfe0d774f13" x="425.878906"/>
<use xlink:href="#c_0bce5afba2dc6b9024b26277c38ad8e8" x="502.880859"/>
<use xlink:href="#c_5cc9741494d2ad8f9764e03ae145569f" x="564.404297"/>
<use xlink:href="#c_6a63bda47b2f3da1cec6aadd80692cfe" x="627.880859"/>
<use xlink:href="#c_01d93a582460e35a7945ca50d148ffeb" x="655.664062"/>
<use xlink:href="#c_fe791a90f5471e2ab20a5ed41a7fa451" x="716.943359"/>
<use xlink:href="#c_e96974be642f6eac0427d72f9cec6c19" x="780.322266"/>
</g>
</g>
<g id="line2d34">
<path style="fill: none; stroke: #ff0000; stroke-width: 2.000000; stroke-linejoin: round; stroke-linecap: butt; stroke-dasharray: 6.000000,6.000000; stroke-dashoffset: 0.000000; opacity: 1.000000"  d="M107.280000 89.707500L127.440000 89.707500"/>
</g>
<g id="line2d35">
</g>
<g id="text12">
<defs>
<path id="c_b672e4bee30772019085dff1098f516d" d="M53.515625 -70.515625l0.000000 9.625000q-5.609375 -2.687500 -10.593750 -4.000000q-4.984375 -1.328125 -9.625000 -1.328125q-8.046875 0.000000 -12.421875 3.125000q-4.375000 3.125000 -4.375000 8.890625q0.000000 4.843750 2.906250 7.312500q2.906250 2.453125 11.015625 3.968750l5.953125 1.218750q11.031250 2.109375 16.281250 7.406250q5.250000 5.296875 5.250000 14.171875q0.000000 10.609375 -7.109375 16.078125q-7.093750 5.468750 -20.812500 5.468750q-5.171875 0.000000 -11.015625 -1.171875q-5.828125 -1.171875 -12.078125 -3.468750l0.000000 -10.156250q6.000000 3.359375 11.765625 5.078125q5.765625 1.703125 11.328125 1.703125q8.437500 0.000000 13.031250 -3.312500q4.593750 -3.328125 4.593750 -9.484375q0.000000 -5.359375 -3.296875 -8.390625q-3.296875 -3.031250 -10.812500 -4.546875l-6.015625 -1.171875q-11.031250 -2.187500 -15.968750 -6.875000q-4.921875 -4.687500 -4.921875 -13.046875q0.000000 -9.671875 6.812500 -15.234375q6.812500 -5.562500 18.765625 -5.562500q5.140625 0.000000 10.453125 0.937500q5.328125 0.921875 10.890625 2.765625"/>
<path id="c_d650c37394b681142a10dfc54356d478" d="M48.781250 -52.593750l0.000000 8.406250q-3.812500 -2.109375 -7.640625 -3.156250q-3.828125 -1.046875 -7.734375 -1.046875q-8.750000 0.000000 -13.593750 5.546875q-4.828125 5.531250 -4.828125 15.546875q0.000000 10.015625 4.828125 15.562500q4.843750 5.531250 13.593750 5.531250q3.906250 0.000000 7.734375 -1.046875q3.828125 -1.046875 7.640625 -3.156250l0.000000 8.312500q-3.765625 1.750000 -7.796875 2.625000q-4.015625 0.890625 -8.562500 0.890625q-12.359375 0.000000 -19.640625 -7.765625q-7.265625 -7.765625 -7.265625 -20.953125q0.000000 -13.375000 7.343750 -21.031250q7.359375 -7.671875 20.156250 -7.671875q4.140625 0.000000 8.093750 0.859375q3.953125 0.843750 7.671875 2.546875"/>
</defs>
<g style="fill: #000000; opacity: 1.000000" transform="translate(143.280000,94.747500)scale(0.144000)">
<use xlink:href="#c_b672e4bee30772019085dff1098f516d"/>
<use xlink:href="#c_d650c37394b681142a10dfc54356d478" x="63.476562"/>
<use xlink:href="#c_6a63bda47b2f3da1cec6aadd80692cfe" x="118.457031"/>
<use xlink:href="#c_518d586bee075aa0153eaebfcb5ab11f" x="146.240234"/>
<use xlink:href="#c_3fe22c4af425ac970aec982ae9662abe" x="206.542969"/>
<use xlink:href="#c_d41d8cd98f00b204e9800998ecf8427e" x="265.722656"/>
<use xlink:href="#c_7efa9804c2b4c09a4b614b91fdebee3d" x="297.509766"/>
<use xlink:href="#c_ff9441f72805bc441fcb0bfe0d774f13" x="336.523438"/>
<use xlink:href="#c_0bce5afba2dc6b9024b26277c38ad8e8" x="413.525391"/>
<use xlink:href="#c_5cc9741494d2ad8f9764e03ae145569f" x="475.048828"/>
<use xlink:href="#c_6a63bda47b2f3da1cec6aadd80692cfe" x="538.525391"/>
<use xlink:href="#c_01d93a582460e35a7945ca50d148ffeb" x="566.308594"/>
<use xlink:href="#c_fe791a90f5471e2ab20a5ed41a7fa451" x="627.587891"/>
<use xlink:href="#c_e96974be642f6eac0427d72f9cec6c19" x="690.966797"/>
</g>
</g>
<g id="line2d36">
<path style="fill: none; stroke: #0000ff; stroke-width: 3.000000; stroke-linejoin: round; stroke-linecap: square;  opacity: 1.000000"  d="M107.280000 110.454375L127.440000 110.454375"/>
</g>
<g id="line2d37">
</g>
<g id="text13">
<defs>
<path id="c_f0b2f1db24a99c7a6a1fa56820ca5a8a" d="M8.687500 -72.906250l9.921875 0.000000l0.000000 44.296875q0.000000 11.718750 4.234375 16.875000q4.250000 5.140625 13.781250 5.140625q9.468750 0.000000 13.718750 -5.140625q4.250000 -5.156250 4.250000 -16.875000l0.000000 -44.296875l9.906250 0.000000l0.000000 45.515625q0.000000 14.250000 -7.062500 21.531250q-7.046875 7.281250 -20.812500 7.281250q-13.828125 0.000000 -20.890625 -7.281250q-7.046875 -7.281250 -7.046875 -21.531250z"/>
</defs>
<g style="fill: #000000; opacity: 1.000000" transform="translate(143.280000,115.494375)scale(0.144000)">
<use xlink:href="#c_fabc000b0fb83f456ee9f092ad635e20"/>
<use xlink:href="#c_c438d87e693443c2861ebd6359e6491e" x="74.804688"/>
<use xlink:href="#c_4653c6dfde66c7610eae0911760d3490" x="138.183594"/>
<use xlink:href="#c_518d586bee075aa0153eaebfcb5ab11f" x="235.595703"/>
<use xlink:href="#c_3fe22c4af425ac970aec982ae9662abe" x="295.898438"/>
<use xlink:href="#c_d41d8cd98f00b204e9800998ecf8427e" x="355.078125"/>
<use xlink:href="#c_7efa9804c2b4c09a4b614b91fdebee3d" x="386.865234"/>
<use xlink:href="#c_f0b2f1db24a99c7a6a1fa56820ca5a8a" x="425.878906"/>
<use xlink:href="#c_5cc9741494d2ad8f9764e03ae145569f" x="499.072266"/>
<use xlink:href="#c_c438d87e693443c2861ebd6359e6491e" x="562.548828"/>
<use xlink:href="#c_fe791a90f5471e2ab20a5ed41a7fa451" x="625.927734"/>
<use xlink:href="#c_0f8c41144cfbf448378cb6fd1cc8e549" x="689.306641"/>
<use xlink:href="#c_c438d87e693443c2861ebd6359e6491e" x="728.515625"/>
<use xlink:href="#c_e96974be642f6eac0427d72f9cec6c19" x="791.894531"/>
</g>
</g>
<g id="line2d38">
<path style="fill: none; stroke: #0000ff; stroke-width: 2.000000; stroke-linejoin: round; stroke-linecap: butt; stroke-dasharray: 6.000000,6.000000; stroke-dashoffset: 0.000000; opacity: 1.000000"  d="M107.280000 131.201250L127.440000 131.201250"/>
</g>
<g id="line2d39">
</g>
<g id="text14">
<g style="fill: #000000; opacity: 1.000000" transform="translate(143.280000,136.241250)scale(0.144000)">
<use xlink:href="#c_b672e4bee30772019085dff1098f516d"/>
<use xlink:href="#c_d650c37394b681142a10dfc54356d478" x="63.476562"/>
<use xlink:href="#c_6a63bda47b2f3da1cec6aadd80692cfe" x="118.457031"/>
<use xlink:href="#c_518d586bee075aa0153eaebfcb5ab11f" x="146.240234"/>
<use xlink:href="#c_3fe22c4af425ac970aec982ae9662abe" x="206.542969"/>
<use xlink:href="#c_d41d8cd98f00b204e9800998ecf8427e" x="265.722656"/>
<use xlink:href="#c_7efa9804c2b4c09a4b614b91fdebee3d" x="297.509766"/>
<use xlink:href="#c_f0b2f1db24a99c7a6a1fa56820ca5a8a" x="336.523438"/>
<use xlink:href="#c_5cc9741494d2ad8f9764e03ae145569f" x="409.716797"/>
<use xlink:href="#c_c438d87e693443c2861ebd6359e6491e" x="473.193359"/>
<use xlink:href="#c_fe791a90f5471e2ab20a5ed41a7fa451" x="536.572266"/>
<use xlink:href="#c_0f8c41144cfbf448378cb6fd1cc8e549" x="599.951172"/>
<use xlink:href="#c_c438d87e693443c2861ebd6359e6491e" x="639.160156"/>
<use xlink:href="#c_e96974be642f6eac0427d72f9cec6c19" x="702.539063"/>
</g>
</g>
</g>
</g>
</g>
</svg>
